<?xml version="1.0" encoding="utf-8" standalone="no"?>
<!DOCTYPE svg PUBLIC "-//W3C//DTD SVG 1.1//EN"
  "http://www.w3.org/Graphics/SVG/1.1/DTD/svg11.dtd">
<svg xmlns:xlink="http://www.w3.org/1999/xlink" width="485.704648pt" height="329.859381pt" viewBox="0 0 485.704648 329.859381" xmlns="http://www.w3.org/2000/svg" version="1.1">
 <metadata>
  <rdf:RDF xmlns:dc="http://purl.org/dc/elements/1.1/" xmlns:cc="http://creativecommons.org/ns#" xmlns:rdf="http://www.w3.org/1999/02/22-rdf-syntax-ns#">
   <cc:Work>
    <dc:type rdf:resource="http://purl.org/dc/dcmitype/StillImage"/>
    <dc:date>2026-07-12T19:05:14.664594</dc:date>
    <dc:format>image/svg+xml</dc:format>
    <dc:creator>
     <cc:Agent>
      <dc:title>Matplotlib v3.11.0, https://matplotlib.org/</dc:title>
     </cc:Agent>
    </dc:creator>
   </cc:Work>
  </rdf:RDF>
 </metadata>
 <defs>
  <style type="text/css">*{stroke-linejoin: round; stroke-linecap: butt}</style>
 </defs>
 <g id="figure_1">
  <g id="patch_1">
   <path d="M 0 329.859381 
L 485.704648 329.859381 
L 485.704648 0 
L 0 0 
z
" style="fill: #ffffff"/>
  </g>
  <g id="axes_1">
   <g id="patch_2">
    <path d="M 47.288281 289.856256 
L 449.048281 289.856256 
L 449.048281 34.832256 
L 47.288281 34.832256 
z
" style="fill: #ffffff"/>
   </g>
   <g id="PathCollection_1"/>
   <g id="PathCollection_2"/>
   <g id="matplotlib.axis_1">
    <g id="xtick_1">
     <g id="line2d_1">
      <defs>
       <path id="m9e44692dcd" d="M 0 0 
L 0 3.5 
" style="stroke: #000000; stroke-width: 0.8"/>
      </defs>
      <g>
       <use xlink:href="#m9e44692dcd" x="55.069777" y="289.856256" style="stroke: #000000; stroke-width: 0.8"/>
      </g>
     </g>
     <g id="text_1">
      <!-- $\mathdefault{10^{0}}$ -->
      <g transform="translate(46.269777 306.256256) scale(0.1 -0.1)">
       <defs>
        <path id="DejaVuSans-14" d="M 794 531 
L 1825 531 
L 1825 4091 
L 703 3866 
L 703 4441 
L 1819 4666 
L 2450 4666 
L 2450 531 
L 3481 531 
L 3481 0 
L 794 0 
L 794 531 
z
" transform="scale(0.015625)"/>
        <path id="DejaVuSans-13" d="M 2034 4250 
Q 1547 4250 1301 3770 
Q 1056 3291 1056 2328 
Q 1056 1369 1301 889 
Q 1547 409 2034 409 
Q 2525 409 2770 889 
Q 3016 1369 3016 2328 
Q 3016 3291 2770 3770 
Q 2525 4250 2034 4250 
z
M 2034 4750 
Q 2819 4750 3233 4129 
Q 3647 3509 3647 2328 
Q 3647 1150 3233 529 
Q 2819 -91 2034 -91 
Q 1250 -91 836 529 
Q 422 1150 422 2328 
Q 422 3509 836 4129 
Q 1250 4750 2034 4750 
z
" transform="scale(0.015625)"/>
       </defs>
       <use xlink:href="#DejaVuSans-14" transform="translate(0 0.746875)"/>
       <use xlink:href="#DejaVuSans-13" transform="translate(63.623047 0.746875)"/>
       <use xlink:href="#DejaVuSans-13" transform="translate(128.203125 42.046875) scale(0.7)"/>
      </g>
     </g>
    </g>
    <g id="xtick_2">
     <g id="line2d_2">
      <g>
       <use xlink:href="#m9e44692dcd" x="315.731336" y="289.856256" style="stroke: #000000; stroke-width: 0.8"/>
      </g>
     </g>
     <g id="text_2">
      <!-- $\mathdefault{10^{1}}$ -->
      <g transform="translate(306.931336 306.156256) scale(0.1 -0.1)">
       <use xlink:href="#DejaVuSans-14" transform="translate(0 0.665625)"/>
       <use xlink:href="#DejaVuSans-13" transform="translate(63.623047 0.665625)"/>
       <use xlink:href="#DejaVuSans-14" transform="translate(128.203125 41.965625) scale(0.7)"/>
      </g>
     </g>
    </g>
    <g id="xtick_3">
     <g id="line2d_3">
      <defs>
       <path id="m58a102cc23" d="M 0 0 
L 0 2 
" style="stroke: #000000; stroke-width: 0.6"/>
      </defs>
      <g>
       <use xlink:href="#m58a102cc23" x="133.536725" y="289.856256" style="stroke: #000000; stroke-width: 0.6"/>
      </g>
     </g>
    </g>
    <g id="xtick_4">
     <g id="line2d_4">
      <g>
       <use xlink:href="#m58a102cc23" x="179.436947" y="289.856256" style="stroke: #000000; stroke-width: 0.6"/>
      </g>
     </g>
    </g>
    <g id="xtick_5">
     <g id="line2d_5">
      <g>
       <use xlink:href="#m58a102cc23" x="212.003673" y="289.856256" style="stroke: #000000; stroke-width: 0.6"/>
      </g>
     </g>
    </g>
    <g id="xtick_6">
     <g id="line2d_6">
      <g>
       <use xlink:href="#m58a102cc23" x="237.264388" y="289.856256" style="stroke: #000000; stroke-width: 0.6"/>
      </g>
     </g>
    </g>
    <g id="xtick_7">
     <g id="line2d_7">
      <g>
       <use xlink:href="#m58a102cc23" x="257.903895" y="289.856256" style="stroke: #000000; stroke-width: 0.6"/>
      </g>
     </g>
    </g>
    <g id="xtick_8">
     <g id="line2d_8">
      <g>
       <use xlink:href="#m58a102cc23" x="275.35435" y="289.856256" style="stroke: #000000; stroke-width: 0.6"/>
      </g>
     </g>
    </g>
    <g id="xtick_9">
     <g id="line2d_9">
      <g>
       <use xlink:href="#m58a102cc23" x="290.470621" y="289.856256" style="stroke: #000000; stroke-width: 0.6"/>
      </g>
     </g>
    </g>
    <g id="xtick_10">
     <g id="line2d_10">
      <g>
       <use xlink:href="#m58a102cc23" x="303.804118" y="289.856256" style="stroke: #000000; stroke-width: 0.6"/>
      </g>
     </g>
    </g>
    <g id="xtick_11">
     <g id="line2d_11">
      <g>
       <use xlink:href="#m58a102cc23" x="394.198284" y="289.856256" style="stroke: #000000; stroke-width: 0.6"/>
      </g>
     </g>
    </g>
    <g id="xtick_12">
     <g id="line2d_12">
      <g>
       <use xlink:href="#m58a102cc23" x="440.098507" y="289.856256" style="stroke: #000000; stroke-width: 0.6"/>
      </g>
     </g>
    </g>
    <g id="text_3">
     <!-- RunPod queue delay (s, log scale) -->
     <g transform="translate(163.635469 320.257037) scale(0.1 -0.1)">
      <defs>
       <path id="DejaVuSans-35" d="M 2841 2188 
Q 3044 2119 3236 1894 
Q 3428 1669 3622 1275 
L 4263 0 
L 3584 0 
L 2988 1197 
Q 2756 1666 2539 1819 
Q 2322 1972 1947 1972 
L 1259 1972 
L 1259 0 
L 628 0 
L 628 4666 
L 2053 4666 
Q 2853 4666 3247 4331 
Q 3641 3997 3641 3322 
Q 3641 2881 3436 2590 
Q 3231 2300 2841 2188 
z
M 1259 4147 
L 1259 2491 
L 2053 2491 
Q 2509 2491 2742 2702 
Q 2975 2913 2975 3322 
Q 2975 3731 2742 3939 
Q 2509 4147 2053 4147 
L 1259 4147 
z
" transform="scale(0.015625)"/>
       <path id="DejaVuSans-58" d="M 544 1381 
L 544 3500 
L 1119 3500 
L 1119 1403 
Q 1119 906 1312 657 
Q 1506 409 1894 409 
Q 2359 409 2629 706 
Q 2900 1003 2900 1516 
L 2900 3500 
L 3475 3500 
L 3475 0 
L 2900 0 
L 2900 538 
Q 2691 219 2414 64 
Q 2138 -91 1772 -91 
Q 1169 -91 856 284 
Q 544 659 544 1381 
z
M 1991 3584 
L 1991 3584 
z
" transform="scale(0.015625)"/>
       <path id="DejaVuSans-51" d="M 3513 2113 
L 3513 0 
L 2938 0 
L 2938 2094 
Q 2938 2591 2744 2837 
Q 2550 3084 2163 3084 
Q 1697 3084 1428 2787 
Q 1159 2491 1159 1978 
L 1159 0 
L 581 0 
L 581 3500 
L 1159 3500 
L 1159 2956 
Q 1366 3272 1645 3428 
Q 1925 3584 2291 3584 
Q 2894 3584 3203 3211 
Q 3513 2838 3513 2113 
z
" transform="scale(0.015625)"/>
       <path id="DejaVuSans-33" d="M 1259 4147 
L 1259 2394 
L 2053 2394 
Q 2494 2394 2734 2622 
Q 2975 2850 2975 3272 
Q 2975 3691 2734 3919 
Q 2494 4147 2053 4147 
L 1259 4147 
z
M 628 4666 
L 2053 4666 
Q 2838 4666 3239 4311 
Q 3641 3956 3641 3272 
Q 3641 2581 3239 2228 
Q 2838 1875 2053 1875 
L 1259 1875 
L 1259 0 
L 628 0 
L 628 4666 
z
" transform="scale(0.015625)"/>
       <path id="DejaVuSans-52" d="M 1959 3097 
Q 1497 3097 1228 2736 
Q 959 2375 959 1747 
Q 959 1119 1226 758 
Q 1494 397 1959 397 
Q 2419 397 2687 759 
Q 2956 1122 2956 1747 
Q 2956 2369 2687 2733 
Q 2419 3097 1959 3097 
z
M 1959 3584 
Q 2709 3584 3137 3096 
Q 3566 2609 3566 1747 
Q 3566 888 3137 398 
Q 2709 -91 1959 -91 
Q 1206 -91 779 398 
Q 353 888 353 1747 
Q 353 2609 779 3096 
Q 1206 3584 1959 3584 
z
" transform="scale(0.015625)"/>
       <path id="DejaVuSans-47" d="M 2906 2969 
L 2906 4863 
L 3481 4863 
L 3481 0 
L 2906 0 
L 2906 525 
Q 2725 213 2448 61 
Q 2172 -91 1784 -91 
Q 1150 -91 751 415 
Q 353 922 353 1747 
Q 353 2572 751 3078 
Q 1150 3584 1784 3584 
Q 2172 3584 2448 3432 
Q 2725 3281 2906 2969 
z
M 947 1747 
Q 947 1113 1208 752 
Q 1469 391 1925 391 
Q 2381 391 2643 752 
Q 2906 1113 2906 1747 
Q 2906 2381 2643 2742 
Q 2381 3103 1925 3103 
Q 1469 3103 1208 2742 
Q 947 2381 947 1747 
z
" transform="scale(0.015625)"/>
       <path id="DejaVuSans-3" transform="scale(0.015625)"/>
       <path id="DejaVuSans-54" d="M 947 1747 
Q 947 1113 1208 752 
Q 1469 391 1925 391 
Q 2381 391 2643 752 
Q 2906 1113 2906 1747 
Q 2906 2381 2643 2742 
Q 2381 3103 1925 3103 
Q 1469 3103 1208 2742 
Q 947 2381 947 1747 
z
M 2906 525 
Q 2725 213 2448 61 
Q 2172 -91 1784 -91 
Q 1150 -91 751 415 
Q 353 922 353 1747 
Q 353 2572 751 3078 
Q 1150 3584 1784 3584 
Q 2172 3584 2448 3432 
Q 2725 3281 2906 2969 
L 2906 3500 
L 3481 3500 
L 3481 -1331 
L 2906 -1331 
L 2906 525 
z
" transform="scale(0.015625)"/>
       <path id="DejaVuSans-48" d="M 3597 1894 
L 3597 1613 
L 953 1613 
Q 991 1019 1311 708 
Q 1631 397 2203 397 
Q 2534 397 2845 478 
Q 3156 559 3463 722 
L 3463 178 
Q 3153 47 2828 -22 
Q 2503 -91 2169 -91 
Q 1331 -91 842 396 
Q 353 884 353 1716 
Q 353 2575 817 3079 
Q 1281 3584 2069 3584 
Q 2775 3584 3186 3129 
Q 3597 2675 3597 1894 
z
M 3022 2063 
Q 3016 2534 2758 2815 
Q 2500 3097 2075 3097 
Q 1594 3097 1305 2825 
Q 1016 2553 972 2059 
L 3022 2063 
z
" transform="scale(0.015625)"/>
       <path id="DejaVuSans-4f" d="M 603 4863 
L 1178 4863 
L 1178 0 
L 603 0 
L 603 4863 
z
" transform="scale(0.015625)"/>
       <path id="DejaVuSans-44" d="M 2194 1759 
Q 1497 1759 1228 1600 
Q 959 1441 959 1056 
Q 959 750 1161 570 
Q 1363 391 1709 391 
Q 2188 391 2477 730 
Q 2766 1069 2766 1631 
L 2766 1759 
L 2194 1759 
z
M 3341 1997 
L 3341 0 
L 2766 0 
L 2766 531 
Q 2569 213 2275 61 
Q 1981 -91 1556 -91 
Q 1019 -91 701 211 
Q 384 513 384 1019 
Q 384 1609 779 1909 
Q 1175 2209 1959 2209 
L 2766 2209 
L 2766 2266 
Q 2766 2663 2505 2880 
Q 2244 3097 1772 3097 
Q 1472 3097 1187 3025 
Q 903 2953 641 2809 
L 641 3341 
Q 956 3463 1253 3523 
Q 1550 3584 1831 3584 
Q 2591 3584 2966 3190 
Q 3341 2797 3341 1997 
z
" transform="scale(0.015625)"/>
       <path id="DejaVuSans-5c" d="M 2059 -325 
Q 1816 -950 1584 -1140 
Q 1353 -1331 966 -1331 
L 506 -1331 
L 506 -850 
L 844 -850 
Q 1081 -850 1212 -737 
Q 1344 -625 1503 -206 
L 1606 56 
L 191 3500 
L 800 3500 
L 1894 763 
L 2988 3500 
L 3597 3500 
L 2059 -325 
z
" transform="scale(0.015625)"/>
       <path id="DejaVuSans-b" d="M 1984 4856 
Q 1566 4138 1362 3434 
Q 1159 2731 1159 2009 
Q 1159 1288 1364 580 
Q 1569 -128 1984 -844 
L 1484 -844 
Q 1016 -109 783 600 
Q 550 1309 550 2009 
Q 550 2706 781 3412 
Q 1013 4119 1484 4856 
L 1984 4856 
z
" transform="scale(0.015625)"/>
       <path id="DejaVuSans-56" d="M 2834 3397 
L 2834 2853 
Q 2591 2978 2328 3040 
Q 2066 3103 1784 3103 
Q 1356 3103 1142 2972 
Q 928 2841 928 2578 
Q 928 2378 1081 2264 
Q 1234 2150 1697 2047 
L 1894 2003 
Q 2506 1872 2764 1633 
Q 3022 1394 3022 966 
Q 3022 478 2636 193 
Q 2250 -91 1575 -91 
Q 1294 -91 989 -36 
Q 684 19 347 128 
L 347 722 
Q 666 556 975 473 
Q 1284 391 1588 391 
Q 1994 391 2212 530 
Q 2431 669 2431 922 
Q 2431 1156 2273 1281 
Q 2116 1406 1581 1522 
L 1381 1569 
Q 847 1681 609 1914 
Q 372 2147 372 2553 
Q 372 3047 722 3315 
Q 1072 3584 1716 3584 
Q 2034 3584 2315 3537 
Q 2597 3491 2834 3397 
z
" transform="scale(0.015625)"/>
       <path id="DejaVuSans-f" d="M 750 794 
L 1409 794 
L 1409 256 
L 897 -744 
L 494 -744 
L 750 256 
L 750 794 
z
" transform="scale(0.015625)"/>
       <path id="DejaVuSans-4a" d="M 2906 1791 
Q 2906 2416 2648 2759 
Q 2391 3103 1925 3103 
Q 1463 3103 1205 2759 
Q 947 2416 947 1791 
Q 947 1169 1205 825 
Q 1463 481 1925 481 
Q 2391 481 2648 825 
Q 2906 1169 2906 1791 
z
M 3481 434 
Q 3481 -459 3084 -895 
Q 2688 -1331 1869 -1331 
Q 1566 -1331 1297 -1286 
Q 1028 -1241 775 -1147 
L 775 -588 
Q 1028 -725 1275 -790 
Q 1522 -856 1778 -856 
Q 2344 -856 2625 -561 
Q 2906 -266 2906 331 
L 2906 616 
Q 2728 306 2450 153 
Q 2172 0 1784 0 
Q 1141 0 747 490 
Q 353 981 353 1791 
Q 353 2603 747 3093 
Q 1141 3584 1784 3584 
Q 2172 3584 2450 3431 
Q 2728 3278 2906 2969 
L 2906 3500 
L 3481 3500 
L 3481 434 
z
" transform="scale(0.015625)"/>
       <path id="DejaVuSans-46" d="M 3122 3366 
L 3122 2828 
Q 2878 2963 2633 3030 
Q 2388 3097 2138 3097 
Q 1578 3097 1268 2742 
Q 959 2388 959 1747 
Q 959 1106 1268 751 
Q 1578 397 2138 397 
Q 2388 397 2633 464 
Q 2878 531 3122 666 
L 3122 134 
Q 2881 22 2623 -34 
Q 2366 -91 2075 -91 
Q 1284 -91 818 406 
Q 353 903 353 1747 
Q 353 2603 823 3093 
Q 1294 3584 2113 3584 
Q 2378 3584 2631 3529 
Q 2884 3475 3122 3366 
z
" transform="scale(0.015625)"/>
       <path id="DejaVuSans-c" d="M 513 4856 
L 1013 4856 
Q 1481 4119 1714 3412 
Q 1947 2706 1947 2009 
Q 1947 1309 1714 600 
Q 1481 -109 1013 -844 
L 513 -844 
Q 928 -128 1133 580 
Q 1338 1288 1338 2009 
Q 1338 2731 1133 3434 
Q 928 4138 513 4856 
z
" transform="scale(0.015625)"/>
      </defs>
      <use xlink:href="#DejaVuSans-35"/>
      <use xlink:href="#DejaVuSans-58" transform="translate(65 0)"/>
      <use xlink:href="#DejaVuSans-51" transform="translate(128.375 0)"/>
      <use xlink:href="#DejaVuSans-33" transform="translate(191.75 0)"/>
      <use xlink:href="#DejaVuSans-52" transform="translate(248.484375 0)"/>
      <use xlink:href="#DejaVuSans-47" transform="translate(309.671875 0)"/>
      <use xlink:href="#DejaVuSans-3" transform="translate(373.15625 0)"/>
      <use xlink:href="#DejaVuSans-54" transform="translate(404.9375 0)"/>
      <use xlink:href="#DejaVuSans-58" transform="translate(468.421875 0)"/>
      <use xlink:href="#DejaVuSans-48" transform="translate(531.796875 0)"/>
      <use xlink:href="#DejaVuSans-58" transform="translate(593.328125 0)"/>
      <use xlink:href="#DejaVuSans-48" transform="translate(656.703125 0)"/>
      <use xlink:href="#DejaVuSans-3" transform="translate(718.234375 0)"/>
      <use xlink:href="#DejaVuSans-47" transform="translate(750.015625 0)"/>
      <use xlink:href="#DejaVuSans-48" transform="translate(813.5 0)"/>
      <use xlink:href="#DejaVuSans-4f" transform="translate(875.03125 0)"/>
      <use xlink:href="#DejaVuSans-44" transform="translate(902.8125 0)"/>
      <use xlink:href="#DejaVuSans-5c" transform="translate(964.09375 0)"/>
      <use xlink:href="#DejaVuSans-3" transform="translate(1023.28125 0)"/>
      <use xlink:href="#DejaVuSans-b" transform="translate(1055.0625 0)"/>
      <use xlink:href="#DejaVuSans-56" transform="translate(1094.078125 0)"/>
      <use xlink:href="#DejaVuSans-f" transform="translate(1146.171875 0)"/>
      <use xlink:href="#DejaVuSans-3" transform="translate(1177.953125 0)"/>
      <use xlink:href="#DejaVuSans-4f" transform="translate(1209.734375 0)"/>
      <use xlink:href="#DejaVuSans-52" transform="translate(1237.515625 0)"/>
      <use xlink:href="#DejaVuSans-4a" transform="translate(1298.703125 0)"/>
      <use xlink:href="#DejaVuSans-3" transform="translate(1362.1875 0)"/>
      <use xlink:href="#DejaVuSans-56" transform="translate(1393.96875 0)"/>
      <use xlink:href="#DejaVuSans-46" transform="translate(1446.0625 0)"/>
      <use xlink:href="#DejaVuSans-44" transform="translate(1501.046875 0)"/>
      <use xlink:href="#DejaVuSans-4f" transform="translate(1562.328125 0)"/>
      <use xlink:href="#DejaVuSans-48" transform="translate(1590.109375 0)"/>
      <use xlink:href="#DejaVuSans-c" transform="translate(1651.640625 0)"/>
     </g>
    </g>
   </g>
   <g id="matplotlib.axis_2">
    <g id="ytick_1">
     <g id="line2d_13">
      <defs>
       <path id="mca49fbcced" d="M 0 0 
L -3.5 0 
" style="stroke: #000000; stroke-width: 0.8"/>
      </defs>
      <g>
       <use xlink:href="#mca49fbcced" x="47.288281" y="289.195417" style="stroke: #000000; stroke-width: 0.8"/>
      </g>
     </g>
     <g id="text_4">
      <!-- 0 -->
      <g transform="translate(33.925781 292.994246) scale(0.1 -0.1)">
       <use xlink:href="#DejaVuSans-13"/>
      </g>
     </g>
    </g>
    <g id="ytick_2">
     <g id="line2d_14">
      <g>
       <use xlink:href="#mca49fbcced" x="47.288281" y="249.445739" style="stroke: #000000; stroke-width: 0.8"/>
      </g>
     </g>
     <g id="text_5">
      <!-- 20 -->
      <g transform="translate(27.563281 253.244567) scale(0.1 -0.1)">
       <defs>
        <path id="DejaVuSans-15" d="M 1228 531 
L 3431 531 
L 3431 0 
L 469 0 
L 469 531 
Q 828 903 1448 1529 
Q 2069 2156 2228 2338 
Q 2531 2678 2651 2914 
Q 2772 3150 2772 3378 
Q 2772 3750 2511 3984 
Q 2250 4219 1831 4219 
Q 1534 4219 1204 4116 
Q 875 4013 500 3803 
L 500 4441 
Q 881 4594 1212 4672 
Q 1544 4750 1819 4750 
Q 2544 4750 2975 4387 
Q 3406 4025 3406 3419 
Q 3406 3131 3298 2873 
Q 3191 2616 2906 2266 
Q 2828 2175 2409 1742 
Q 1991 1309 1228 531 
z
" transform="scale(0.015625)"/>
       </defs>
       <use xlink:href="#DejaVuSans-15"/>
       <use xlink:href="#DejaVuSans-13" transform="translate(63.625 0)"/>
      </g>
     </g>
    </g>
    <g id="ytick_3">
     <g id="line2d_15">
      <g>
       <use xlink:href="#mca49fbcced" x="47.288281" y="209.69606" style="stroke: #000000; stroke-width: 0.8"/>
      </g>
     </g>
     <g id="text_6">
      <!-- 40 -->
      <g transform="translate(27.563281 213.494889) scale(0.1 -0.1)">
       <defs>
        <path id="DejaVuSans-17" d="M 2419 4116 
L 825 1625 
L 2419 1625 
L 2419 4116 
z
M 2253 4666 
L 3047 4666 
L 3047 1625 
L 3713 1625 
L 3713 1100 
L 3047 1100 
L 3047 0 
L 2419 0 
L 2419 1100 
L 313 1100 
L 313 1709 
L 2253 4666 
z
" transform="scale(0.015625)"/>
       </defs>
       <use xlink:href="#DejaVuSans-17"/>
       <use xlink:href="#DejaVuSans-13" transform="translate(63.625 0)"/>
      </g>
     </g>
    </g>
    <g id="ytick_4">
     <g id="line2d_16">
      <g>
       <use xlink:href="#mca49fbcced" x="47.288281" y="169.946382" style="stroke: #000000; stroke-width: 0.8"/>
      </g>
     </g>
     <g id="text_7">
      <!-- 60 -->
      <g transform="translate(27.563281 173.74521) scale(0.1 -0.1)">
       <defs>
        <path id="DejaVuSans-19" d="M 2113 2584 
Q 1688 2584 1439 2293 
Q 1191 2003 1191 1497 
Q 1191 994 1439 701 
Q 1688 409 2113 409 
Q 2538 409 2786 701 
Q 3034 994 3034 1497 
Q 3034 2003 2786 2293 
Q 2538 2584 2113 2584 
z
M 3366 4563 
L 3366 3988 
Q 3128 4100 2886 4159 
Q 2644 4219 2406 4219 
Q 1781 4219 1451 3797 
Q 1122 3375 1075 2522 
Q 1259 2794 1537 2939 
Q 1816 3084 2150 3084 
Q 2853 3084 3261 2657 
Q 3669 2231 3669 1497 
Q 3669 778 3244 343 
Q 2819 -91 2113 -91 
Q 1303 -91 875 529 
Q 447 1150 447 2328 
Q 447 3434 972 4092 
Q 1497 4750 2381 4750 
Q 2619 4750 2861 4703 
Q 3103 4656 3366 4563 
z
" transform="scale(0.015625)"/>
       </defs>
       <use xlink:href="#DejaVuSans-19"/>
       <use xlink:href="#DejaVuSans-13" transform="translate(63.625 0)"/>
      </g>
     </g>
    </g>
    <g id="ytick_5">
     <g id="line2d_17">
      <g>
       <use xlink:href="#mca49fbcced" x="47.288281" y="130.196703" style="stroke: #000000; stroke-width: 0.8"/>
      </g>
     </g>
     <g id="text_8">
      <!-- 80 -->
      <g transform="translate(27.563281 133.995531) scale(0.1 -0.1)">
       <defs>
        <path id="DejaVuSans-1b" d="M 2034 2216 
Q 1584 2216 1326 1975 
Q 1069 1734 1069 1313 
Q 1069 891 1326 650 
Q 1584 409 2034 409 
Q 2484 409 2743 651 
Q 3003 894 3003 1313 
Q 3003 1734 2745 1975 
Q 2488 2216 2034 2216 
z
M 1403 2484 
Q 997 2584 770 2862 
Q 544 3141 544 3541 
Q 544 4100 942 4425 
Q 1341 4750 2034 4750 
Q 2731 4750 3128 4425 
Q 3525 4100 3525 3541 
Q 3525 3141 3298 2862 
Q 3072 2584 2669 2484 
Q 3125 2378 3379 2068 
Q 3634 1759 3634 1313 
Q 3634 634 3220 271 
Q 2806 -91 2034 -91 
Q 1263 -91 848 271 
Q 434 634 434 1313 
Q 434 1759 690 2068 
Q 947 2378 1403 2484 
z
M 1172 3481 
Q 1172 3119 1398 2916 
Q 1625 2713 2034 2713 
Q 2441 2713 2670 2916 
Q 2900 3119 2900 3481 
Q 2900 3844 2670 4047 
Q 2441 4250 2034 4250 
Q 1625 4250 1398 4047 
Q 1172 3844 1172 3481 
z
" transform="scale(0.015625)"/>
       </defs>
       <use xlink:href="#DejaVuSans-1b"/>
       <use xlink:href="#DejaVuSans-13" transform="translate(63.625 0)"/>
      </g>
     </g>
    </g>
    <g id="ytick_6">
     <g id="line2d_18">
      <g>
       <use xlink:href="#mca49fbcced" x="47.288281" y="90.447025" style="stroke: #000000; stroke-width: 0.8"/>
      </g>
     </g>
     <g id="text_9">
      <!-- 100 -->
      <g transform="translate(21.200781 94.245853) scale(0.1 -0.1)">
       <use xlink:href="#DejaVuSans-14"/>
       <use xlink:href="#DejaVuSans-13" transform="translate(63.625 0)"/>
       <use xlink:href="#DejaVuSans-13" transform="translate(127.25 0)"/>
      </g>
     </g>
    </g>
    <g id="ytick_7">
     <g id="line2d_19">
      <g>
       <use xlink:href="#mca49fbcced" x="47.288281" y="50.697346" style="stroke: #000000; stroke-width: 0.8"/>
      </g>
     </g>
     <g id="text_10">
      <!-- 120 -->
      <g transform="translate(21.200781 54.496174) scale(0.1 -0.1)">
       <use xlink:href="#DejaVuSans-14"/>
       <use xlink:href="#DejaVuSans-15" transform="translate(63.625 0)"/>
       <use xlink:href="#DejaVuSans-13" transform="translate(127.25 0)"/>
      </g>
     </g>
    </g>
    <g id="text_11">
     <!-- total request latency (s) -->
     <g transform="translate(14.798438 222.423943) rotate(-90) scale(0.1 -0.1)">
      <defs>
       <path id="DejaVuSans-57" d="M 1172 4494 
L 1172 3500 
L 2356 3500 
L 2356 3053 
L 1172 3053 
L 1172 1153 
Q 1172 725 1289 603 
Q 1406 481 1766 481 
L 2356 481 
L 2356 0 
L 1766 0 
Q 1100 0 847 248 
Q 594 497 594 1153 
L 594 3053 
L 172 3053 
L 172 3500 
L 594 3500 
L 594 4494 
L 1172 4494 
z
" transform="scale(0.015625)"/>
       <path id="DejaVuSans-55" d="M 2631 2963 
Q 2534 3019 2420 3045 
Q 2306 3072 2169 3072 
Q 1681 3072 1420 2755 
Q 1159 2438 1159 1844 
L 1159 0 
L 581 0 
L 581 3500 
L 1159 3500 
L 1159 2956 
Q 1341 3275 1631 3429 
Q 1922 3584 2338 3584 
Q 2397 3584 2469 3576 
Q 2541 3569 2628 3553 
L 2631 2963 
z
" transform="scale(0.015625)"/>
      </defs>
      <use xlink:href="#DejaVuSans-57"/>
      <use xlink:href="#DejaVuSans-52" transform="translate(39.203125 0)"/>
      <use xlink:href="#DejaVuSans-57" transform="translate(100.390625 0)"/>
      <use xlink:href="#DejaVuSans-44" transform="translate(139.59375 0)"/>
      <use xlink:href="#DejaVuSans-4f" transform="translate(200.875 0)"/>
      <use xlink:href="#DejaVuSans-3" transform="translate(228.65625 0)"/>
      <use xlink:href="#DejaVuSans-55" transform="translate(260.4375 0)"/>
      <use xlink:href="#DejaVuSans-48" transform="translate(299.34375 0)"/>
      <use xlink:href="#DejaVuSans-54" transform="translate(360.875 0)"/>
      <use xlink:href="#DejaVuSans-58" transform="translate(424.359375 0)"/>
      <use xlink:href="#DejaVuSans-48" transform="translate(487.734375 0)"/>
      <use xlink:href="#DejaVuSans-56" transform="translate(549.265625 0)"/>
      <use xlink:href="#DejaVuSans-57" transform="translate(601.359375 0)"/>
      <use xlink:href="#DejaVuSans-3" transform="translate(640.5625 0)"/>
      <use xlink:href="#DejaVuSans-4f" transform="translate(672.34375 0)"/>
      <use xlink:href="#DejaVuSans-44" transform="translate(700.125 0)"/>
      <use xlink:href="#DejaVuSans-57" transform="translate(761.40625 0)"/>
      <use xlink:href="#DejaVuSans-48" transform="translate(800.609375 0)"/>
      <use xlink:href="#DejaVuSans-51" transform="translate(862.140625 0)"/>
      <use xlink:href="#DejaVuSans-46" transform="translate(925.515625 0)"/>
      <use xlink:href="#DejaVuSans-5c" transform="translate(980.5 0)"/>
      <use xlink:href="#DejaVuSans-3" transform="translate(1039.6875 0)"/>
      <use xlink:href="#DejaVuSans-b" transform="translate(1071.46875 0)"/>
      <use xlink:href="#DejaVuSans-56" transform="translate(1110.484375 0)"/>
      <use xlink:href="#DejaVuSans-c" transform="translate(1162.578125 0)"/>
     </g>
    </g>
   </g>
   <g id="line2d_20">
    <path d="M 158.79744 289.856256 
L 158.79744 34.832256 
" clip-path="url(#pbd0cc3dbb8)" style="fill: none; stroke-dasharray: 5.18,2.24; stroke-dashoffset: 0; stroke: #264653; stroke-width: 1.4"/>
   </g>
   <g id="patch_3">
    <path d="M 47.288281 289.856256 
L 47.288281 34.832256 
" style="fill: none; stroke: #000000; stroke-width: 0.8; stroke-linejoin: miter; stroke-linecap: square"/>
   </g>
   <g id="patch_4">
    <path d="M 47.288281 289.856256 
L 449.048281 289.856256 
" style="fill: none; stroke: #000000; stroke-width: 0.8; stroke-linejoin: miter; stroke-linecap: square"/>
   </g>
   <g id="PathCollection_3">
    <defs>
     <path id="C0_0_4551a0d9d6" d="M 0 3.24037 
C 0.859356 3.24037 1.683631 2.898944 2.291288 2.291288 
C 2.898944 1.683631 3.24037 0.859356 3.24037 -0 
C 3.24037 -0.859356 2.898944 -1.683631 2.291288 -2.291288 
C 1.683631 -2.898944 0.859356 -3.24037 0 -3.24037 
C -0.859356 -3.24037 -1.683631 -2.898944 -2.291288 -2.291288 
C -2.898944 -1.683631 -3.24037 -0.859356 -3.24037 0 
C -3.24037 0.859356 -2.898944 1.683631 -2.291288 2.291288 
C -1.683631 2.898944 -0.859356 3.24037 0 3.24037 
z
"/>
    </defs>
    <g clip-path="url(#pbd0cc3dbb8)">
     <use xlink:href="#C0_0_4551a0d9d6" x="318.349789" y="47.318624" style="fill: #e76f51; fill-opacity: 0.85; stroke: #ffffff; stroke-opacity: 0.85; stroke-width: 0.6"/>
    </g>
    <g clip-path="url(#pbd0cc3dbb8)">
     <use xlink:href="#C0_0_4551a0d9d6" x="65.550099" y="278.264256" style="fill: #2a9d8f; fill-opacity: 0.85; stroke: #ffffff; stroke-opacity: 0.85; stroke-width: 0.6"/>
    </g>
    <g clip-path="url(#pbd0cc3dbb8)">
     <use xlink:href="#C0_0_4551a0d9d6" x="76.929064" y="274.488036" style="fill: #2a9d8f; fill-opacity: 0.85; stroke: #ffffff; stroke-opacity: 0.85; stroke-width: 0.6"/>
    </g>
    <g clip-path="url(#pbd0cc3dbb8)">
     <use xlink:href="#C0_0_4551a0d9d6" x="313.732729" y="56.083428" style="fill: #e76f51; fill-opacity: 0.85; stroke: #ffffff; stroke-opacity: 0.85; stroke-width: 0.6"/>
    </g>
    <g clip-path="url(#pbd0cc3dbb8)">
     <use xlink:href="#C0_0_4551a0d9d6" x="423.506397" y="56.063553" style="fill: #e76f51; fill-opacity: 0.85; stroke: #ffffff; stroke-opacity: 0.85; stroke-width: 0.6"/>
    </g>
    <g clip-path="url(#pbd0cc3dbb8)">
     <use xlink:href="#C0_0_4551a0d9d6" x="69.105471" y="277.191015" style="fill: #2a9d8f; fill-opacity: 0.85; stroke: #ffffff; stroke-opacity: 0.85; stroke-width: 0.6"/>
    </g>
    <g clip-path="url(#pbd0cc3dbb8)">
     <use xlink:href="#C0_0_4551a0d9d6" x="321.545294" y="58.547908" style="fill: #e76f51; fill-opacity: 0.85; stroke: #ffffff; stroke-opacity: 0.85; stroke-width: 0.6"/>
    </g>
    <g clip-path="url(#pbd0cc3dbb8)">
     <use xlink:href="#C0_0_4551a0d9d6" x="69.803339" y="277.17114" style="fill: #2a9d8f; fill-opacity: 0.85; stroke: #ffffff; stroke-opacity: 0.85; stroke-width: 0.6"/>
    </g>
    <g clip-path="url(#pbd0cc3dbb8)">
     <use xlink:href="#C0_0_4551a0d9d6" x="308.521885" y="88.717914" style="fill: #e76f51; fill-opacity: 0.85; stroke: #ffffff; stroke-opacity: 0.85; stroke-width: 0.6"/>
    </g>
    <g clip-path="url(#pbd0cc3dbb8)">
     <use xlink:href="#C0_0_4551a0d9d6" x="75.046995" y="277.071766" style="fill: #2a9d8f; fill-opacity: 0.85; stroke: #ffffff; stroke-opacity: 0.85; stroke-width: 0.6"/>
    </g>
    <g clip-path="url(#pbd0cc3dbb8)">
     <use xlink:href="#C0_0_4551a0d9d6" x="79.238485" y="277.151265" style="fill: #2a9d8f; fill-opacity: 0.85; stroke: #ffffff; stroke-opacity: 0.85; stroke-width: 0.6"/>
    </g>
    <g clip-path="url(#pbd0cc3dbb8)">
     <use xlink:href="#C0_0_4551a0d9d6" x="73.998362" y="277.111515" style="fill: #2a9d8f; fill-opacity: 0.85; stroke: #ffffff; stroke-opacity: 0.85; stroke-width: 0.6"/>
    </g>
    <g clip-path="url(#pbd0cc3dbb8)">
     <use xlink:href="#C0_0_4551a0d9d6" x="336.011796" y="87.644672" style="fill: #e76f51; fill-opacity: 0.85; stroke: #ffffff; stroke-opacity: 0.85; stroke-width: 0.6"/>
    </g>
    <g clip-path="url(#pbd0cc3dbb8)">
     <use xlink:href="#C0_0_4551a0d9d6" x="131.480493" y="272.619802" style="fill: #2a9d8f; fill-opacity: 0.85; stroke: #ffffff; stroke-opacity: 0.85; stroke-width: 0.6"/>
    </g>
    <g clip-path="url(#pbd0cc3dbb8)">
     <use xlink:href="#C0_0_4551a0d9d6" x="78.504584" y="277.13139" style="fill: #2a9d8f; fill-opacity: 0.85; stroke: #ffffff; stroke-opacity: 0.85; stroke-width: 0.6"/>
    </g>
    <g clip-path="url(#pbd0cc3dbb8)">
     <use xlink:href="#C0_0_4551a0d9d6" x="76.273893" y="277.071766" style="fill: #2a9d8f; fill-opacity: 0.85; stroke: #ffffff; stroke-opacity: 0.85; stroke-width: 0.6"/>
    </g>
    <g clip-path="url(#pbd0cc3dbb8)">
     <use xlink:href="#C0_0_4551a0d9d6" x="387.782321" y="50.29985" style="fill: #e76f51; fill-opacity: 0.85; stroke: #ffffff; stroke-opacity: 0.85; stroke-width: 0.6"/>
    </g>
    <g clip-path="url(#pbd0cc3dbb8)">
     <use xlink:href="#C0_0_4551a0d9d6" x="68.100993" y="277.270514" style="fill: #2a9d8f; fill-opacity: 0.85; stroke: #ffffff; stroke-opacity: 0.85; stroke-width: 0.6"/>
    </g>
    <g clip-path="url(#pbd0cc3dbb8)">
     <use xlink:href="#C0_0_4551a0d9d6" x="426.144939" y="57.69329" style="fill: #e76f51; fill-opacity: 0.85; stroke: #ffffff; stroke-opacity: 0.85; stroke-width: 0.6"/>
    </g>
    <g clip-path="url(#pbd0cc3dbb8)">
     <use xlink:href="#C0_0_4551a0d9d6" x="71.088076" y="277.369888" style="fill: #2a9d8f; fill-opacity: 0.85; stroke: #ffffff; stroke-opacity: 0.85; stroke-width: 0.6"/>
    </g>
    <g clip-path="url(#pbd0cc3dbb8)">
     <use xlink:href="#C0_0_4551a0d9d6" x="75.709284" y="277.389763" style="fill: #2a9d8f; fill-opacity: 0.85; stroke: #ffffff; stroke-opacity: 0.85; stroke-width: 0.6"/>
    </g>
    <g clip-path="url(#pbd0cc3dbb8)">
     <use xlink:href="#C0_0_4551a0d9d6" x="75.709284" y="277.369888" style="fill: #2a9d8f; fill-opacity: 0.85; stroke: #ffffff; stroke-opacity: 0.85; stroke-width: 0.6"/>
    </g>
    <g clip-path="url(#pbd0cc3dbb8)">
     <use xlink:href="#C0_0_4551a0d9d6" x="312.213191" y="81.523222" style="fill: #e76f51; fill-opacity: 0.85; stroke: #ffffff; stroke-opacity: 0.85; stroke-width: 0.6"/>
    </g>
    <g clip-path="url(#pbd0cc3dbb8)">
     <use xlink:href="#C0_0_4551a0d9d6" x="69.703907" y="277.350013" style="fill: #2a9d8f; fill-opacity: 0.85; stroke: #ffffff; stroke-opacity: 0.85; stroke-width: 0.6"/>
    </g>
    <g clip-path="url(#pbd0cc3dbb8)">
     <use xlink:href="#C0_0_4551a0d9d6" x="430.786463" y="46.424256" style="fill: #e76f51; fill-opacity: 0.85; stroke: #ffffff; stroke-opacity: 0.85; stroke-width: 0.6"/>
    </g>
    <g clip-path="url(#pbd0cc3dbb8)">
     <use xlink:href="#C0_0_4551a0d9d6" x="70.496932" y="277.310264" style="fill: #2a9d8f; fill-opacity: 0.85; stroke: #ffffff; stroke-opacity: 0.85; stroke-width: 0.6"/>
    </g>
    <g clip-path="url(#pbd0cc3dbb8)">
     <use xlink:href="#C0_0_4551a0d9d6" x="324.778548" y="71.426804" style="fill: #e76f51; fill-opacity: 0.85; stroke: #ffffff; stroke-opacity: 0.85; stroke-width: 0.6"/>
    </g>
    <g clip-path="url(#pbd0cc3dbb8)">
     <use xlink:href="#C0_0_4551a0d9d6" x="418.485803" y="50.558222" style="fill: #e76f51; fill-opacity: 0.85; stroke: #ffffff; stroke-opacity: 0.85; stroke-width: 0.6"/>
    </g>
    <g clip-path="url(#pbd0cc3dbb8)">
     <use xlink:href="#C0_0_4551a0d9d6" x="68.201843" y="275.799776" style="fill: #2a9d8f; fill-opacity: 0.85; stroke: #ffffff; stroke-opacity: 0.85; stroke-width: 0.6"/>
    </g>
    <g clip-path="url(#pbd0cc3dbb8)">
     <use xlink:href="#C0_0_4551a0d9d6" x="72.746413" y="276.058149" style="fill: #2a9d8f; fill-opacity: 0.85; stroke: #ffffff; stroke-opacity: 0.85; stroke-width: 0.6"/>
    </g>
    <g clip-path="url(#pbd0cc3dbb8)">
     <use xlink:href="#C0_0_4551a0d9d6" x="418.174803" y="57.395167" style="fill: #e76f51; fill-opacity: 0.85; stroke: #ffffff; stroke-opacity: 0.85; stroke-width: 0.6"/>
    </g>
    <g clip-path="url(#pbd0cc3dbb8)">
     <use xlink:href="#C0_0_4551a0d9d6" x="417.881315" y="71.069057" style="fill: #e76f51; fill-opacity: 0.85; stroke: #ffffff; stroke-opacity: 0.85; stroke-width: 0.6"/>
    </g>
    <g clip-path="url(#pbd0cc3dbb8)">
     <use xlink:href="#C0_0_4551a0d9d6" x="306.611688" y="111.355356" style="fill: #e76f51; fill-opacity: 0.85; stroke: #ffffff; stroke-opacity: 0.85; stroke-width: 0.6"/>
    </g>
    <g clip-path="url(#pbd0cc3dbb8)">
     <use xlink:href="#C0_0_4551a0d9d6" x="76.086003" y="277.191015" style="fill: #2a9d8f; fill-opacity: 0.85; stroke: #ffffff; stroke-opacity: 0.85; stroke-width: 0.6"/>
    </g>
    <g clip-path="url(#pbd0cc3dbb8)">
     <use xlink:href="#C0_0_4551a0d9d6" x="80.149221" y="276.714018" style="fill: #2a9d8f; fill-opacity: 0.85; stroke: #ffffff; stroke-opacity: 0.85; stroke-width: 0.6"/>
    </g>
    <g clip-path="url(#pbd0cc3dbb8)">
     <use xlink:href="#C0_0_4551a0d9d6" x="73.806653" y="277.290389" style="fill: #2a9d8f; fill-opacity: 0.85; stroke: #ffffff; stroke-opacity: 0.85; stroke-width: 0.6"/>
    </g>
    <g clip-path="url(#pbd0cc3dbb8)">
     <use xlink:href="#C0_0_4551a0d9d6" x="73.325957" y="272.659551" style="fill: #2a9d8f; fill-opacity: 0.85; stroke: #ffffff; stroke-opacity: 0.85; stroke-width: 0.6"/>
    </g>
    <g clip-path="url(#pbd0cc3dbb8)">
     <use xlink:href="#C0_0_4551a0d9d6" x="74.666797" y="276.435771" style="fill: #2a9d8f; fill-opacity: 0.85; stroke: #ffffff; stroke-opacity: 0.85; stroke-width: 0.6"/>
    </g>
    <g clip-path="url(#pbd0cc3dbb8)">
     <use xlink:href="#C0_0_4551a0d9d6" x="76.742259" y="277.051891" style="fill: #2a9d8f; fill-opacity: 0.85; stroke: #ffffff; stroke-opacity: 0.85; stroke-width: 0.6"/>
    </g>
    <g clip-path="url(#pbd0cc3dbb8)">
     <use xlink:href="#C0_0_4551a0d9d6" x="75.42592" y="277.330138" style="fill: #2a9d8f; fill-opacity: 0.85; stroke: #ffffff; stroke-opacity: 0.85; stroke-width: 0.6"/>
    </g>
    <g clip-path="url(#pbd0cc3dbb8)">
     <use xlink:href="#C0_0_4551a0d9d6" x="77.301752" y="277.429513" style="fill: #2a9d8f; fill-opacity: 0.85; stroke: #ffffff; stroke-opacity: 0.85; stroke-width: 0.6"/>
    </g>
    <g clip-path="url(#pbd0cc3dbb8)">
     <use xlink:href="#C0_0_4551a0d9d6" x="327.02397" y="80.48973" style="fill: #e76f51; fill-opacity: 0.85; stroke: #ffffff; stroke-opacity: 0.85; stroke-width: 0.6"/>
    </g>
    <g clip-path="url(#pbd0cc3dbb8)">
     <use xlink:href="#C0_0_4551a0d9d6" x="347.639568" y="90.129027" style="fill: #e76f51; fill-opacity: 0.85; stroke: #ffffff; stroke-opacity: 0.85; stroke-width: 0.6"/>
    </g>
    <g clip-path="url(#pbd0cc3dbb8)">
     <use xlink:href="#C0_0_4551a0d9d6" x="68.905287" y="277.310264" style="fill: #2a9d8f; fill-opacity: 0.85; stroke: #ffffff; stroke-opacity: 0.85; stroke-width: 0.6"/>
    </g>
    <g clip-path="url(#pbd0cc3dbb8)">
     <use xlink:href="#C0_0_4551a0d9d6" x="76.742259" y="277.290389" style="fill: #2a9d8f; fill-opacity: 0.85; stroke: #ffffff; stroke-opacity: 0.85; stroke-width: 0.6"/>
    </g>
    <g clip-path="url(#pbd0cc3dbb8)">
     <use xlink:href="#C0_0_4551a0d9d6" x="77.394733" y="277.310264" style="fill: #2a9d8f; fill-opacity: 0.85; stroke: #ffffff; stroke-opacity: 0.85; stroke-width: 0.6"/>
    </g>
    <g clip-path="url(#pbd0cc3dbb8)">
     <use xlink:href="#C0_0_4551a0d9d6" x="302.958225" y="101.417936" style="fill: #e76f51; fill-opacity: 0.85; stroke: #ffffff; stroke-opacity: 0.85; stroke-width: 0.6"/>
    </g>
    <g clip-path="url(#pbd0cc3dbb8)">
     <use xlink:href="#C0_0_4551a0d9d6" x="75.236616" y="277.290389" style="fill: #2a9d8f; fill-opacity: 0.85; stroke: #ffffff; stroke-opacity: 0.85; stroke-width: 0.6"/>
    </g>
    <g clip-path="url(#pbd0cc3dbb8)">
     <use xlink:href="#C0_0_4551a0d9d6" x="66.781704" y="277.70776" style="fill: #2a9d8f; fill-opacity: 0.85; stroke: #ffffff; stroke-opacity: 0.85; stroke-width: 0.6"/>
    </g>
    <g clip-path="url(#pbd0cc3dbb8)">
     <use xlink:href="#C0_0_4551a0d9d6" x="76.367722" y="277.230764" style="fill: #2a9d8f; fill-opacity: 0.85; stroke: #ffffff; stroke-opacity: 0.85; stroke-width: 0.6"/>
    </g>
    <g clip-path="url(#pbd0cc3dbb8)">
     <use xlink:href="#C0_0_4551a0d9d6" x="75.236616" y="277.330138" style="fill: #2a9d8f; fill-opacity: 0.85; stroke: #ffffff; stroke-opacity: 0.85; stroke-width: 0.6"/>
    </g>
    <g clip-path="url(#pbd0cc3dbb8)">
     <use xlink:href="#C0_0_4551a0d9d6" x="75.991941" y="277.270514" style="fill: #2a9d8f; fill-opacity: 0.85; stroke: #ffffff; stroke-opacity: 0.85; stroke-width: 0.6"/>
    </g>
    <g clip-path="url(#pbd0cc3dbb8)">
     <use xlink:href="#C0_0_4551a0d9d6" x="71.773866" y="277.310264" style="fill: #2a9d8f; fill-opacity: 0.85; stroke: #ffffff; stroke-opacity: 0.85; stroke-width: 0.6"/>
    </g>
    <g clip-path="url(#pbd0cc3dbb8)">
     <use xlink:href="#C0_0_4551a0d9d6" x="78.596582" y="277.270514" style="fill: #2a9d8f; fill-opacity: 0.85; stroke: #ffffff; stroke-opacity: 0.85; stroke-width: 0.6"/>
    </g>
   </g>
   <g id="patch_5">
    <path d="M 200.325395 143.405625 
Q 180.520788 149.255093 161.788424 154.787865 
" style="fill: none; stroke: #264653; stroke-linecap: round"/>
    <path d="M 165.750849 155.494399 
L 161.788424 154.787865 
L 164.731106 152.041845 
" style="fill: none; stroke: #264653; stroke-linecap: round"/>
   </g>
   <g id="text_12">
    <!-- policy poll at 2.5 s -->
    <g style="fill: #264653" transform="translate(183.148882 138.677297) scale(0.09 -0.09)">
     <defs>
      <path id="DejaVuSans-53" d="M 1159 525 
L 1159 -1331 
L 581 -1331 
L 581 3500 
L 1159 3500 
L 1159 2969 
Q 1341 3281 1617 3432 
Q 1894 3584 2278 3584 
Q 2916 3584 3314 3078 
Q 3713 2572 3713 1747 
Q 3713 922 3314 415 
Q 2916 -91 2278 -91 
Q 1894 -91 1617 61 
Q 1341 213 1159 525 
z
M 3116 1747 
Q 3116 2381 2855 2742 
Q 2594 3103 2138 3103 
Q 1681 3103 1420 2742 
Q 1159 2381 1159 1747 
Q 1159 1113 1420 752 
Q 1681 391 2138 391 
Q 2594 391 2855 752 
Q 3116 1113 3116 1747 
z
" transform="scale(0.015625)"/>
      <path id="DejaVuSans-4c" d="M 603 3500 
L 1178 3500 
L 1178 0 
L 603 0 
L 603 3500 
z
M 603 4863 
L 1178 4863 
L 1178 4134 
L 603 4134 
L 603 4863 
z
" transform="scale(0.015625)"/>
      <path id="DejaVuSans-11" d="M 684 794 
L 1344 794 
L 1344 0 
L 684 0 
L 684 794 
z
" transform="scale(0.015625)"/>
      <path id="DejaVuSans-18" d="M 691 4666 
L 3169 4666 
L 3169 4134 
L 1269 4134 
L 1269 2991 
Q 1406 3038 1543 3061 
Q 1681 3084 1819 3084 
Q 2600 3084 3056 2656 
Q 3513 2228 3513 1497 
Q 3513 744 3044 326 
Q 2575 -91 1722 -91 
Q 1428 -91 1123 -41 
Q 819 9 494 109 
L 494 744 
Q 775 591 1075 516 
Q 1375 441 1709 441 
Q 2250 441 2565 725 
Q 2881 1009 2881 1497 
Q 2881 1984 2565 2268 
Q 2250 2553 1709 2553 
Q 1456 2553 1204 2497 
Q 953 2441 691 2322 
L 691 4666 
z
" transform="scale(0.015625)"/>
     </defs>
     <use xlink:href="#DejaVuSans-53"/>
     <use xlink:href="#DejaVuSans-52" transform="translate(63.484375 0)"/>
     <use xlink:href="#DejaVuSans-4f" transform="translate(124.671875 0)"/>
     <use xlink:href="#DejaVuSans-4c" transform="translate(152.453125 0)"/>
     <use xlink:href="#DejaVuSans-46" transform="translate(180.234375 0)"/>
     <use xlink:href="#DejaVuSans-5c" transform="translate(235.21875 0)"/>
     <use xlink:href="#DejaVuSans-3" transform="translate(294.40625 0)"/>
     <use xlink:href="#DejaVuSans-53" transform="translate(326.1875 0)"/>
     <use xlink:href="#DejaVuSans-52" transform="translate(389.671875 0)"/>
     <use xlink:href="#DejaVuSans-4f" transform="translate(450.859375 0)"/>
     <use xlink:href="#DejaVuSans-4f" transform="translate(478.640625 0)"/>
     <use xlink:href="#DejaVuSans-3" transform="translate(506.421875 0)"/>
     <use xlink:href="#DejaVuSans-44" transform="translate(538.203125 0)"/>
     <use xlink:href="#DejaVuSans-57" transform="translate(599.484375 0)"/>
     <use xlink:href="#DejaVuSans-3" transform="translate(638.6875 0)"/>
     <use xlink:href="#DejaVuSans-15" transform="translate(670.46875 0)"/>
     <use xlink:href="#DejaVuSans-11" transform="translate(734.09375 0)"/>
     <use xlink:href="#DejaVuSans-18" transform="translate(765.875 0)"/>
     <use xlink:href="#DejaVuSans-3" transform="translate(829.5 0)"/>
     <use xlink:href="#DejaVuSans-56" transform="translate(861.28125 0)"/>
    </g>
   </g>
   <g id="text_13">
    <!-- A 2.5-second observation predicted the 90–122 s tail -->
    <g transform="translate(109.104805 16.229385) scale(0.105 -0.105)">
     <defs>
      <path id="DejaVuSans-24" d="M 2188 4044 
L 1331 1722 
L 3047 1722 
L 2188 4044 
z
M 1831 4666 
L 2547 4666 
L 4325 0 
L 3669 0 
L 3244 1197 
L 1141 1197 
L 716 0 
L 50 0 
L 1831 4666 
z
" transform="scale(0.015625)"/>
      <path id="DejaVuSans-10" d="M 313 2009 
L 1997 2009 
L 1997 1497 
L 313 1497 
L 313 2009 
z
" transform="scale(0.015625)"/>
      <path id="DejaVuSans-45" d="M 3116 1747 
Q 3116 2381 2855 2742 
Q 2594 3103 2138 3103 
Q 1681 3103 1420 2742 
Q 1159 2381 1159 1747 
Q 1159 1113 1420 752 
Q 1681 391 2138 391 
Q 2594 391 2855 752 
Q 3116 1113 3116 1747 
z
M 1159 2969 
Q 1341 3281 1617 3432 
Q 1894 3584 2278 3584 
Q 2916 3584 3314 3078 
Q 3713 2572 3713 1747 
Q 3713 922 3314 415 
Q 2916 -91 2278 -91 
Q 1894 -91 1617 61 
Q 1341 213 1159 525 
L 1159 0 
L 581 0 
L 581 4863 
L 1159 4863 
L 1159 2969 
z
" transform="scale(0.015625)"/>
      <path id="DejaVuSans-59" d="M 191 3500 
L 800 3500 
L 1894 563 
L 2988 3500 
L 3597 3500 
L 2284 0 
L 1503 0 
L 191 3500 
z
" transform="scale(0.015625)"/>
      <path id="DejaVuSans-4b" d="M 3513 2113 
L 3513 0 
L 2938 0 
L 2938 2094 
Q 2938 2591 2744 2837 
Q 2550 3084 2163 3084 
Q 1697 3084 1428 2787 
Q 1159 2491 1159 1978 
L 1159 0 
L 581 0 
L 581 4863 
L 1159 4863 
L 1159 2956 
Q 1366 3272 1645 3428 
Q 1925 3584 2291 3584 
Q 2894 3584 3203 3211 
Q 3513 2838 3513 2113 
z
" transform="scale(0.015625)"/>
      <path id="DejaVuSans-1c" d="M 703 97 
L 703 672 
Q 941 559 1184 500 
Q 1428 441 1663 441 
Q 2288 441 2617 861 
Q 2947 1281 2994 2138 
Q 2813 1869 2534 1725 
Q 2256 1581 1919 1581 
Q 1219 1581 811 2004 
Q 403 2428 403 3163 
Q 403 3881 828 4315 
Q 1253 4750 1959 4750 
Q 2769 4750 3195 4129 
Q 3622 3509 3622 2328 
Q 3622 1225 3098 567 
Q 2575 -91 1691 -91 
Q 1453 -91 1209 -44 
Q 966 3 703 97 
z
M 1959 2075 
Q 2384 2075 2632 2365 
Q 2881 2656 2881 3163 
Q 2881 3666 2632 3958 
Q 2384 4250 1959 4250 
Q 1534 4250 1286 3958 
Q 1038 3666 1038 3163 
Q 1038 2656 1286 2365 
Q 1534 2075 1959 2075 
z
" transform="scale(0.015625)"/>
      <path id="DejaVuSans-af5" d="M 313 1978 
L 2888 1978 
L 2888 1528 
L 313 1528 
L 313 1978 
z
" transform="scale(0.015625)"/>
     </defs>
     <use xlink:href="#DejaVuSans-24"/>
     <use xlink:href="#DejaVuSans-3" transform="translate(68.40625 0)"/>
     <use xlink:href="#DejaVuSans-15" transform="translate(100.1875 0)"/>
     <use xlink:href="#DejaVuSans-11" transform="translate(163.8125 0)"/>
     <use xlink:href="#DejaVuSans-18" transform="translate(195.59375 0)"/>
     <use xlink:href="#DejaVuSans-10" transform="translate(259.21875 0)"/>
     <use xlink:href="#DejaVuSans-56" transform="translate(295.296875 0)"/>
     <use xlink:href="#DejaVuSans-48" transform="translate(347.390625 0)"/>
     <use xlink:href="#DejaVuSans-46" transform="translate(408.921875 0)"/>
     <use xlink:href="#DejaVuSans-52" transform="translate(463.90625 0)"/>
     <use xlink:href="#DejaVuSans-51" transform="translate(525.09375 0)"/>
     <use xlink:href="#DejaVuSans-47" transform="translate(588.46875 0)"/>
     <use xlink:href="#DejaVuSans-3" transform="translate(651.953125 0)"/>
     <use xlink:href="#DejaVuSans-52" transform="translate(683.734375 0)"/>
     <use xlink:href="#DejaVuSans-45" transform="translate(744.921875 0)"/>
     <use xlink:href="#DejaVuSans-56" transform="translate(808.40625 0)"/>
     <use xlink:href="#DejaVuSans-48" transform="translate(860.5 0)"/>
     <use xlink:href="#DejaVuSans-55" transform="translate(922.03125 0)"/>
     <use xlink:href="#DejaVuSans-59" transform="translate(963.140625 0)"/>
     <use xlink:href="#DejaVuSans-44" transform="translate(1022.328125 0)"/>
     <use xlink:href="#DejaVuSans-57" transform="translate(1083.609375 0)"/>
     <use xlink:href="#DejaVuSans-4c" transform="translate(1122.8125 0)"/>
     <use xlink:href="#DejaVuSans-52" transform="translate(1150.59375 0)"/>
     <use xlink:href="#DejaVuSans-51" transform="translate(1211.78125 0)"/>
     <use xlink:href="#DejaVuSans-3" transform="translate(1275.15625 0)"/>
     <use xlink:href="#DejaVuSans-53" transform="translate(1306.9375 0)"/>
     <use xlink:href="#DejaVuSans-55" transform="translate(1370.421875 0)"/>
     <use xlink:href="#DejaVuSans-48" transform="translate(1409.328125 0)"/>
     <use xlink:href="#DejaVuSans-47" transform="translate(1470.859375 0)"/>
     <use xlink:href="#DejaVuSans-4c" transform="translate(1534.34375 0)"/>
     <use xlink:href="#DejaVuSans-46" transform="translate(1562.125 0)"/>
     <use xlink:href="#DejaVuSans-57" transform="translate(1617.109375 0)"/>
     <use xlink:href="#DejaVuSans-48" transform="translate(1656.3125 0)"/>
     <use xlink:href="#DejaVuSans-47" transform="translate(1717.84375 0)"/>
     <use xlink:href="#DejaVuSans-3" transform="translate(1781.328125 0)"/>
     <use xlink:href="#DejaVuSans-57" transform="translate(1813.109375 0)"/>
     <use xlink:href="#DejaVuSans-4b" transform="translate(1852.3125 0)"/>
     <use xlink:href="#DejaVuSans-48" transform="translate(1915.6875 0)"/>
     <use xlink:href="#DejaVuSans-3" transform="translate(1977.21875 0)"/>
     <use xlink:href="#DejaVuSans-1c" transform="translate(2009 0)"/>
     <use xlink:href="#DejaVuSans-13" transform="translate(2072.625 0)"/>
     <use xlink:href="#DejaVuSans-af5" transform="translate(2136.25 0)"/>
     <use xlink:href="#DejaVuSans-14" transform="translate(2186.25 0)"/>
     <use xlink:href="#DejaVuSans-15" transform="translate(2249.875 0)"/>
     <use xlink:href="#DejaVuSans-15" transform="translate(2313.5 0)"/>
     <use xlink:href="#DejaVuSans-3" transform="translate(2377.125 0)"/>
     <use xlink:href="#DejaVuSans-56" transform="translate(2408.90625 0)"/>
     <use xlink:href="#DejaVuSans-3" transform="translate(2461 0)"/>
     <use xlink:href="#DejaVuSans-57" transform="translate(2492.78125 0)"/>
     <use xlink:href="#DejaVuSans-44" transform="translate(2531.984375 0)"/>
     <use xlink:href="#DejaVuSans-4c" transform="translate(2593.265625 0)"/>
     <use xlink:href="#DejaVuSans-4f" transform="translate(2621.046875 0)"/>
    </g>
    <!-- fast path queued 1.1–2.0 s · fresh worker queued 8.9–27.6 s · zero overlap in 54 rounds -->
    <g transform="translate(17.831914 28.832256) scale(0.105 -0.105)">
     <defs>
      <path id="DejaVuSans-49" d="M 2375 4863 
L 2375 4384 
L 1825 4384 
Q 1516 4384 1395 4259 
Q 1275 4134 1275 3809 
L 1275 3500 
L 2222 3500 
L 2222 3053 
L 1275 3053 
L 1275 0 
L 697 0 
L 697 3053 
L 147 3053 
L 147 3500 
L 697 3500 
L 697 3744 
Q 697 4328 969 4595 
Q 1241 4863 1831 4863 
L 2375 4863 
z
" transform="scale(0.015625)"/>
      <path id="DejaVuSans-79" d="M 684 2619 
L 1344 2619 
L 1344 1825 
L 684 1825 
L 684 2619 
z
" transform="scale(0.015625)"/>
      <path id="DejaVuSans-5a" d="M 269 3500 
L 844 3500 
L 1563 769 
L 2278 3500 
L 2956 3500 
L 3675 769 
L 4391 3500 
L 4966 3500 
L 4050 0 
L 3372 0 
L 2619 2869 
L 1863 0 
L 1184 0 
L 269 3500 
z
" transform="scale(0.015625)"/>
      <path id="DejaVuSans-4e" d="M 581 4863 
L 1159 4863 
L 1159 1991 
L 2875 3500 
L 3609 3500 
L 1753 1863 
L 3688 0 
L 2938 0 
L 1159 1709 
L 1159 0 
L 581 0 
L 581 4863 
z
" transform="scale(0.015625)"/>
      <path id="DejaVuSans-1a" d="M 525 4666 
L 3525 4666 
L 3525 4397 
L 1831 0 
L 1172 0 
L 2766 4134 
L 525 4134 
L 525 4666 
z
" transform="scale(0.015625)"/>
      <path id="DejaVuSans-5d" d="M 353 3500 
L 3084 3500 
L 3084 2975 
L 922 459 
L 3084 459 
L 3084 0 
L 275 0 
L 275 525 
L 2438 3041 
L 353 3041 
L 353 3500 
z
" transform="scale(0.015625)"/>
     </defs>
     <use xlink:href="#DejaVuSans-49"/>
     <use xlink:href="#DejaVuSans-44" transform="translate(35.203125 0)"/>
     <use xlink:href="#DejaVuSans-56" transform="translate(96.484375 0)"/>
     <use xlink:href="#DejaVuSans-57" transform="translate(148.578125 0)"/>
     <use xlink:href="#DejaVuSans-3" transform="translate(187.78125 0)"/>
     <use xlink:href="#DejaVuSans-53" transform="translate(219.5625 0)"/>
     <use xlink:href="#DejaVuSans-44" transform="translate(283.046875 0)"/>
     <use xlink:href="#DejaVuSans-57" transform="translate(344.328125 0)"/>
     <use xlink:href="#DejaVuSans-4b" transform="translate(383.53125 0)"/>
     <use xlink:href="#DejaVuSans-3" transform="translate(446.90625 0)"/>
     <use xlink:href="#DejaVuSans-54" transform="translate(478.6875 0)"/>
     <use xlink:href="#DejaVuSans-58" transform="translate(542.171875 0)"/>
     <use xlink:href="#DejaVuSans-48" transform="translate(605.546875 0)"/>
     <use xlink:href="#DejaVuSans-58" transform="translate(667.078125 0)"/>
     <use xlink:href="#DejaVuSans-48" transform="translate(730.453125 0)"/>
     <use xlink:href="#DejaVuSans-47" transform="translate(791.984375 0)"/>
     <use xlink:href="#DejaVuSans-3" transform="translate(855.46875 0)"/>
     <use xlink:href="#DejaVuSans-14" transform="translate(887.25 0)"/>
     <use xlink:href="#DejaVuSans-11" transform="translate(950.875 0)"/>
     <use xlink:href="#DejaVuSans-14" transform="translate(982.65625 0)"/>
     <use xlink:href="#DejaVuSans-af5" transform="translate(1046.28125 0)"/>
     <use xlink:href="#DejaVuSans-15" transform="translate(1096.28125 0)"/>
     <use xlink:href="#DejaVuSans-11" transform="translate(1159.90625 0)"/>
     <use xlink:href="#DejaVuSans-13" transform="translate(1191.6875 0)"/>
     <use xlink:href="#DejaVuSans-3" transform="translate(1255.3125 0)"/>
     <use xlink:href="#DejaVuSans-56" transform="translate(1287.09375 0)"/>
     <use xlink:href="#DejaVuSans-3" transform="translate(1339.1875 0)"/>
     <use xlink:href="#DejaVuSans-79" transform="translate(1370.96875 0)"/>
     <use xlink:href="#DejaVuSans-3" transform="translate(1402.75 0)"/>
     <use xlink:href="#DejaVuSans-49" transform="translate(1434.53125 0)"/>
     <use xlink:href="#DejaVuSans-55" transform="translate(1469.734375 0)"/>
     <use xlink:href="#DejaVuSans-48" transform="translate(1508.640625 0)"/>
     <use xlink:href="#DejaVuSans-56" transform="translate(1570.171875 0)"/>
     <use xlink:href="#DejaVuSans-4b" transform="translate(1622.265625 0)"/>
     <use xlink:href="#DejaVuSans-3" transform="translate(1685.640625 0)"/>
     <use xlink:href="#DejaVuSans-5a" transform="translate(1717.421875 0)"/>
     <use xlink:href="#DejaVuSans-52" transform="translate(1799.203125 0)"/>
     <use xlink:href="#DejaVuSans-55" transform="translate(1860.390625 0)"/>
     <use xlink:href="#DejaVuSans-4e" transform="translate(1901.5 0)"/>
     <use xlink:href="#DejaVuSans-48" transform="translate(1955.84375 0)"/>
     <use xlink:href="#DejaVuSans-55" transform="translate(2017.375 0)"/>
     <use xlink:href="#DejaVuSans-3" transform="translate(2058.484375 0)"/>
     <use xlink:href="#DejaVuSans-54" transform="translate(2090.265625 0)"/>
     <use xlink:href="#DejaVuSans-58" transform="translate(2153.75 0)"/>
     <use xlink:href="#DejaVuSans-48" transform="translate(2217.125 0)"/>
     <use xlink:href="#DejaVuSans-58" transform="translate(2278.65625 0)"/>
     <use xlink:href="#DejaVuSans-48" transform="translate(2342.03125 0)"/>
     <use xlink:href="#DejaVuSans-47" transform="translate(2403.5625 0)"/>
     <use xlink:href="#DejaVuSans-3" transform="translate(2467.046875 0)"/>
     <use xlink:href="#DejaVuSans-1b" transform="translate(2498.828125 0)"/>
     <use xlink:href="#DejaVuSans-11" transform="translate(2562.453125 0)"/>
     <use xlink:href="#DejaVuSans-1c" transform="translate(2594.234375 0)"/>
     <use xlink:href="#DejaVuSans-af5" transform="translate(2657.859375 0)"/>
     <use xlink:href="#DejaVuSans-15" transform="translate(2707.859375 0)"/>
     <use xlink:href="#DejaVuSans-1a" transform="translate(2771.484375 0)"/>
     <use xlink:href="#DejaVuSans-11" transform="translate(2835.109375 0)"/>
     <use xlink:href="#DejaVuSans-19" transform="translate(2866.890625 0)"/>
     <use xlink:href="#DejaVuSans-3" transform="translate(2930.515625 0)"/>
     <use xlink:href="#DejaVuSans-56" transform="translate(2962.296875 0)"/>
     <use xlink:href="#DejaVuSans-3" transform="translate(3014.390625 0)"/>
     <use xlink:href="#DejaVuSans-79" transform="translate(3046.171875 0)"/>
     <use xlink:href="#DejaVuSans-3" transform="translate(3077.953125 0)"/>
     <use xlink:href="#DejaVuSans-5d" transform="translate(3109.734375 0)"/>
     <use xlink:href="#DejaVuSans-48" transform="translate(3162.21875 0)"/>
     <use xlink:href="#DejaVuSans-55" transform="translate(3223.75 0)"/>
     <use xlink:href="#DejaVuSans-52" transform="translate(3262.65625 0)"/>
     <use xlink:href="#DejaVuSans-3" transform="translate(3323.84375 0)"/>
     <use xlink:href="#DejaVuSans-52" transform="translate(3355.625 0)"/>
     <use xlink:href="#DejaVuSans-59" transform="translate(3416.8125 0)"/>
     <use xlink:href="#DejaVuSans-48" transform="translate(3476 0)"/>
     <use xlink:href="#DejaVuSans-55" transform="translate(3537.53125 0)"/>
     <use xlink:href="#DejaVuSans-4f" transform="translate(3578.640625 0)"/>
     <use xlink:href="#DejaVuSans-44" transform="translate(3606.421875 0)"/>
     <use xlink:href="#DejaVuSans-53" transform="translate(3667.703125 0)"/>
     <use xlink:href="#DejaVuSans-3" transform="translate(3731.1875 0)"/>
     <use xlink:href="#DejaVuSans-4c" transform="translate(3762.96875 0)"/>
     <use xlink:href="#DejaVuSans-51" transform="translate(3790.75 0)"/>
     <use xlink:href="#DejaVuSans-3" transform="translate(3854.125 0)"/>
     <use xlink:href="#DejaVuSans-18" transform="translate(3885.90625 0)"/>
     <use xlink:href="#DejaVuSans-17" transform="translate(3949.53125 0)"/>
     <use xlink:href="#DejaVuSans-3" transform="translate(4013.15625 0)"/>
     <use xlink:href="#DejaVuSans-55" transform="translate(4044.9375 0)"/>
     <use xlink:href="#DejaVuSans-52" transform="translate(4083.84375 0)"/>
     <use xlink:href="#DejaVuSans-58" transform="translate(4145.03125 0)"/>
     <use xlink:href="#DejaVuSans-51" transform="translate(4208.40625 0)"/>
     <use xlink:href="#DejaVuSans-47" transform="translate(4271.78125 0)"/>
     <use xlink:href="#DejaVuSans-56" transform="translate(4335.265625 0)"/>
    </g>
   </g>
   <g id="legend_1">
    <g id="PathCollection_4">
     <defs>
      <path id="m54b0bb6e79" d="M 0 3 
C 0.795609 3 1.55874 2.683901 2.12132 2.12132 
C 2.683901 1.55874 3 0.795609 3 0 
C 3 -0.795609 2.683901 -1.55874 2.12132 -2.12132 
C 1.55874 -2.683901 0.795609 -3 0 -3 
C -0.795609 -3 -1.55874 -2.683901 -2.12132 -2.12132 
C -2.683901 -1.55874 -3 -0.795609 -3 0 
C -3 0.795609 -2.683901 1.55874 -2.12132 2.12132 
C -1.55874 2.683901 -0.795609 3 0 3 
z
" style="stroke: #2a9d8f"/>
     </defs>
     <g>
      <use xlink:href="#m54b0bb6e79" x="277.427969" y="154.816912" style="fill: #2a9d8f; stroke: #2a9d8f"/>
     </g>
    </g>
    <g id="text_14">
     <!-- FlashBoot hit (≤30 s total) -->
     <g transform="translate(295.427969 157.441912) scale(0.1 -0.1)">
      <defs>
       <path id="DejaVuSans-29" d="M 628 4666 
L 3309 4666 
L 3309 4134 
L 1259 4134 
L 1259 2759 
L 3109 2759 
L 3109 2228 
L 1259 2228 
L 1259 0 
L 628 0 
L 628 4666 
z
" transform="scale(0.015625)"/>
       <path id="DejaVuSans-25" d="M 1259 2228 
L 1259 519 
L 2272 519 
Q 2781 519 3026 730 
Q 3272 941 3272 1375 
Q 3272 1813 3026 2020 
Q 2781 2228 2272 2228 
L 1259 2228 
z
M 1259 4147 
L 1259 2741 
L 2194 2741 
Q 2656 2741 2882 2914 
Q 3109 3088 3109 3444 
Q 3109 3797 2882 3972 
Q 2656 4147 2194 4147 
L 1259 4147 
z
M 628 4666 
L 2241 4666 
Q 2963 4666 3353 4366 
Q 3744 4066 3744 3513 
Q 3744 3084 3544 2831 
Q 3344 2578 2956 2516 
Q 3422 2416 3680 2098 
Q 3938 1781 3938 1306 
Q 3938 681 3513 340 
Q 3088 0 2303 0 
L 628 0 
L 628 4666 
z
" transform="scale(0.015625)"/>
       <path id="DejaVuSans-cee" d="M 4684 3175 
L 1684 2309 
L 4684 1453 
L 4684 897 
L 678 2047 
L 678 2578 
L 4684 3725 
L 4684 3175 
z
M 678 531 
L 4684 531 
L 4684 0 
L 678 0 
L 678 531 
z
" transform="scale(0.015625)"/>
       <path id="DejaVuSans-16" d="M 2597 2516 
Q 3050 2419 3304 2112 
Q 3559 1806 3559 1356 
Q 3559 666 3084 287 
Q 2609 -91 1734 -91 
Q 1441 -91 1130 -33 
Q 819 25 488 141 
L 488 750 
Q 750 597 1062 519 
Q 1375 441 1716 441 
Q 2309 441 2620 675 
Q 2931 909 2931 1356 
Q 2931 1769 2642 2001 
Q 2353 2234 1838 2234 
L 1294 2234 
L 1294 2753 
L 1863 2753 
Q 2328 2753 2575 2939 
Q 2822 3125 2822 3475 
Q 2822 3834 2567 4026 
Q 2313 4219 1838 4219 
Q 1578 4219 1281 4162 
Q 984 4106 628 3988 
L 628 4550 
Q 988 4650 1302 4700 
Q 1616 4750 1894 4750 
Q 2613 4750 3031 4423 
Q 3450 4097 3450 3541 
Q 3450 3153 3228 2886 
Q 3006 2619 2597 2516 
z
" transform="scale(0.015625)"/>
      </defs>
      <use xlink:href="#DejaVuSans-29"/>
      <use xlink:href="#DejaVuSans-4f" transform="translate(57.515625 0)"/>
      <use xlink:href="#DejaVuSans-44" transform="translate(85.296875 0)"/>
      <use xlink:href="#DejaVuSans-56" transform="translate(146.578125 0)"/>
      <use xlink:href="#DejaVuSans-4b" transform="translate(198.671875 0)"/>
      <use xlink:href="#DejaVuSans-25" transform="translate(262.046875 0)"/>
      <use xlink:href="#DejaVuSans-52" transform="translate(330.65625 0)"/>
      <use xlink:href="#DejaVuSans-52" transform="translate(391.84375 0)"/>
      <use xlink:href="#DejaVuSans-57" transform="translate(453.03125 0)"/>
      <use xlink:href="#DejaVuSans-3" transform="translate(492.234375 0)"/>
      <use xlink:href="#DejaVuSans-4b" transform="translate(524.015625 0)"/>
      <use xlink:href="#DejaVuSans-4c" transform="translate(587.390625 0)"/>
      <use xlink:href="#DejaVuSans-57" transform="translate(615.171875 0)"/>
      <use xlink:href="#DejaVuSans-3" transform="translate(654.375 0)"/>
      <use xlink:href="#DejaVuSans-b" transform="translate(686.15625 0)"/>
      <use xlink:href="#DejaVuSans-cee" transform="translate(725.171875 0)"/>
      <use xlink:href="#DejaVuSans-16" transform="translate(808.96875 0)"/>
      <use xlink:href="#DejaVuSans-13" transform="translate(872.59375 0)"/>
      <use xlink:href="#DejaVuSans-3" transform="translate(936.21875 0)"/>
      <use xlink:href="#DejaVuSans-56" transform="translate(968 0)"/>
      <use xlink:href="#DejaVuSans-3" transform="translate(1020.09375 0)"/>
      <use xlink:href="#DejaVuSans-57" transform="translate(1051.875 0)"/>
      <use xlink:href="#DejaVuSans-52" transform="translate(1091.078125 0)"/>
      <use xlink:href="#DejaVuSans-57" transform="translate(1152.265625 0)"/>
      <use xlink:href="#DejaVuSans-44" transform="translate(1191.46875 0)"/>
      <use xlink:href="#DejaVuSans-4f" transform="translate(1252.75 0)"/>
      <use xlink:href="#DejaVuSans-c" transform="translate(1280.53125 0)"/>
     </g>
    </g>
    <g id="PathCollection_5">
     <defs>
      <path id="md788e462f4" d="M 0 3 
C 0.795609 3 1.55874 2.683901 2.12132 2.12132 
C 2.683901 1.55874 3 0.795609 3 0 
C 3 -0.795609 2.683901 -1.55874 2.12132 -2.12132 
C 1.55874 -2.683901 0.795609 -3 0 -3 
C -0.795609 -3 -1.55874 -2.683901 -2.12132 -2.12132 
C -2.683901 -1.55874 -3 -0.795609 -3 0 
C -3 0.795609 -2.683901 1.55874 -2.12132 2.12132 
C -1.55874 2.683901 -0.795609 3 0 3 
z
" style="stroke: #e76f51"/>
     </defs>
     <g>
      <use xlink:href="#md788e462f4" x="277.427969" y="169.817693" style="fill: #e76f51; stroke: #e76f51"/>
     </g>
    </g>
    <g id="text_15">
     <!-- fresh worker (89–122 s total) -->
     <g transform="translate(295.427969 172.442693) scale(0.1 -0.1)">
      <use xlink:href="#DejaVuSans-49"/>
      <use xlink:href="#DejaVuSans-55" transform="translate(35.203125 0)"/>
      <use xlink:href="#DejaVuSans-48" transform="translate(74.109375 0)"/>
      <use xlink:href="#DejaVuSans-56" transform="translate(135.640625 0)"/>
      <use xlink:href="#DejaVuSans-4b" transform="translate(187.734375 0)"/>
      <use xlink:href="#DejaVuSans-3" transform="translate(251.109375 0)"/>
      <use xlink:href="#DejaVuSans-5a" transform="translate(282.890625 0)"/>
      <use xlink:href="#DejaVuSans-52" transform="translate(364.671875 0)"/>
      <use xlink:href="#DejaVuSans-55" transform="translate(425.859375 0)"/>
      <use xlink:href="#DejaVuSans-4e" transform="translate(466.96875 0)"/>
      <use xlink:href="#DejaVuSans-48" transform="translate(521.3125 0)"/>
      <use xlink:href="#DejaVuSans-55" transform="translate(582.84375 0)"/>
      <use xlink:href="#DejaVuSans-3" transform="translate(623.953125 0)"/>
      <use xlink:href="#DejaVuSans-b" transform="translate(655.734375 0)"/>
      <use xlink:href="#DejaVuSans-1b" transform="translate(694.75 0)"/>
      <use xlink:href="#DejaVuSans-1c" transform="translate(758.375 0)"/>
      <use xlink:href="#DejaVuSans-af5" transform="translate(822 0)"/>
      <use xlink:href="#DejaVuSans-14" transform="translate(872 0)"/>
      <use xlink:href="#DejaVuSans-15" transform="translate(935.625 0)"/>
      <use xlink:href="#DejaVuSans-15" transform="translate(999.25 0)"/>
      <use xlink:href="#DejaVuSans-3" transform="translate(1062.875 0)"/>
      <use xlink:href="#DejaVuSans-56" transform="translate(1094.65625 0)"/>
      <use xlink:href="#DejaVuSans-3" transform="translate(1146.75 0)"/>
      <use xlink:href="#DejaVuSans-57" transform="translate(1178.53125 0)"/>
      <use xlink:href="#DejaVuSans-52" transform="translate(1217.734375 0)"/>
      <use xlink:href="#DejaVuSans-57" transform="translate(1278.921875 0)"/>
      <use xlink:href="#DejaVuSans-44" transform="translate(1318.125 0)"/>
      <use xlink:href="#DejaVuSans-4f" transform="translate(1379.40625 0)"/>
      <use xlink:href="#DejaVuSans-c" transform="translate(1407.1875 0)"/>
     </g>
    </g>
   </g>
  </g>
 </g>
 <defs>
  <clipPath id="pbd0cc3dbb8">
   <rect x="47.288281" y="34.832256" width="401.76" height="255.024"/>
  </clipPath>
 </defs>
</svg>
