<?xml version="1.0" encoding="utf-8" standalone="no"?>
<!DOCTYPE svg PUBLIC "-//W3C//DTD SVG 1.1//EN"
  "http://www.w3.org/Graphics/SVG/1.1/DTD/svg11.dtd">
<svg xmlns:xlink="http://www.w3.org/1999/xlink" width="496.651048pt" height="327.02693pt" viewBox="0 0 496.651048 327.02693" xmlns="http://www.w3.org/2000/svg" version="1.1">
 <metadata>
  <rdf:RDF xmlns:dc="http://purl.org/dc/elements/1.1/" xmlns:cc="http://creativecommons.org/ns#" xmlns:rdf="http://www.w3.org/1999/02/22-rdf-syntax-ns#">
   <cc:Work>
    <dc:type rdf:resource="http://purl.org/dc/dcmitype/StillImage"/>
    <dc:date>2026-07-12T19:05:15.008256</dc:date>
    <dc:format>image/svg+xml</dc:format>
    <dc:creator>
     <cc:Agent>
      <dc:title>Matplotlib v3.11.0, https://matplotlib.org/</dc:title>
     </cc:Agent>
    </dc:creator>
   </cc:Work>
  </rdf:RDF>
 </metadata>
 <defs>
  <style type="text/css">*{stroke-linejoin: round; stroke-linecap: butt}</style>
 </defs>
 <g id="figure_1">
  <g id="patch_1">
   <path d="M 0 327.02693 
L 496.651048 327.02693 
L 496.651048 0 
L 0 0 
z
" style="fill: #ffffff"/>
  </g>
  <g id="axes_1">
   <g id="patch_2">
    <path d="M 50.427344 288.826148 
L 441.027344 288.826148 
L 441.027344 33.802148 
L 50.427344 33.802148 
z
" style="fill: #ffffff"/>
   </g>
   <g id="matplotlib.axis_1">
    <g id="xtick_1">
     <g id="line2d_1">
      <defs>
       <path id="m3d69430062" d="M 0 0 
L 0 3.5 
" style="stroke: #000000; stroke-width: 0.8"/>
      </defs>
      <g>
       <use xlink:href="#m3d69430062" x="79.878506" y="288.826148" style="stroke: #000000; stroke-width: 0.8"/>
      </g>
     </g>
     <g id="text_1">
      <!-- 0.016 -->
      <g transform="translate(65.564443 303.423805) scale(0.1 -0.1)">
       <defs>
        <path id="DejaVuSans-13" d="M 2034 4250 
Q 1547 4250 1301 3770 
Q 1056 3291 1056 2328 
Q 1056 1369 1301 889 
Q 1547 409 2034 409 
Q 2525 409 2770 889 
Q 3016 1369 3016 2328 
Q 3016 3291 2770 3770 
Q 2525 4250 2034 4250 
z
M 2034 4750 
Q 2819 4750 3233 4129 
Q 3647 3509 3647 2328 
Q 3647 1150 3233 529 
Q 2819 -91 2034 -91 
Q 1250 -91 836 529 
Q 422 1150 422 2328 
Q 422 3509 836 4129 
Q 1250 4750 2034 4750 
z
" transform="scale(0.015625)"/>
        <path id="DejaVuSans-11" d="M 684 794 
L 1344 794 
L 1344 0 
L 684 0 
L 684 794 
z
" transform="scale(0.015625)"/>
        <path id="DejaVuSans-14" d="M 794 531 
L 1825 531 
L 1825 4091 
L 703 3866 
L 703 4441 
L 1819 4666 
L 2450 4666 
L 2450 531 
L 3481 531 
L 3481 0 
L 794 0 
L 794 531 
z
" transform="scale(0.015625)"/>
        <path id="DejaVuSans-19" d="M 2113 2584 
Q 1688 2584 1439 2293 
Q 1191 2003 1191 1497 
Q 1191 994 1439 701 
Q 1688 409 2113 409 
Q 2538 409 2786 701 
Q 3034 994 3034 1497 
Q 3034 2003 2786 2293 
Q 2538 2584 2113 2584 
z
M 3366 4563 
L 3366 3988 
Q 3128 4100 2886 4159 
Q 2644 4219 2406 4219 
Q 1781 4219 1451 3797 
Q 1122 3375 1075 2522 
Q 1259 2794 1537 2939 
Q 1816 3084 2150 3084 
Q 2853 3084 3261 2657 
Q 3669 2231 3669 1497 
Q 3669 778 3244 343 
Q 2819 -91 2113 -91 
Q 1303 -91 875 529 
Q 447 1150 447 2328 
Q 447 3434 972 4092 
Q 1497 4750 2381 4750 
Q 2619 4750 2861 4703 
Q 3103 4656 3366 4563 
z
" transform="scale(0.015625)"/>
       </defs>
       <use xlink:href="#DejaVuSans-13"/>
       <use xlink:href="#DejaVuSans-11" transform="translate(63.625 0)"/>
       <use xlink:href="#DejaVuSans-13" transform="translate(95.40625 0)"/>
       <use xlink:href="#DejaVuSans-14" transform="translate(159.03125 0)"/>
       <use xlink:href="#DejaVuSans-19" transform="translate(222.65625 0)"/>
      </g>
     </g>
    </g>
    <g id="xtick_2">
     <g id="line2d_2">
      <g>
       <use xlink:href="#m3d69430062" x="129.760777" y="288.826148" style="stroke: #000000; stroke-width: 0.8"/>
      </g>
     </g>
     <g id="text_2">
      <!-- 0.018 -->
      <g transform="translate(115.446714 303.423805) scale(0.1 -0.1)">
       <defs>
        <path id="DejaVuSans-1b" d="M 2034 2216 
Q 1584 2216 1326 1975 
Q 1069 1734 1069 1313 
Q 1069 891 1326 650 
Q 1584 409 2034 409 
Q 2484 409 2743 651 
Q 3003 894 3003 1313 
Q 3003 1734 2745 1975 
Q 2488 2216 2034 2216 
z
M 1403 2484 
Q 997 2584 770 2862 
Q 544 3141 544 3541 
Q 544 4100 942 4425 
Q 1341 4750 2034 4750 
Q 2731 4750 3128 4425 
Q 3525 4100 3525 3541 
Q 3525 3141 3298 2862 
Q 3072 2584 2669 2484 
Q 3125 2378 3379 2068 
Q 3634 1759 3634 1313 
Q 3634 634 3220 271 
Q 2806 -91 2034 -91 
Q 1263 -91 848 271 
Q 434 634 434 1313 
Q 434 1759 690 2068 
Q 947 2378 1403 2484 
z
M 1172 3481 
Q 1172 3119 1398 2916 
Q 1625 2713 2034 2713 
Q 2441 2713 2670 2916 
Q 2900 3119 2900 3481 
Q 2900 3844 2670 4047 
Q 2441 4250 2034 4250 
Q 1625 4250 1398 4047 
Q 1172 3844 1172 3481 
z
" transform="scale(0.015625)"/>
       </defs>
       <use xlink:href="#DejaVuSans-13"/>
       <use xlink:href="#DejaVuSans-11" transform="translate(63.625 0)"/>
       <use xlink:href="#DejaVuSans-13" transform="translate(95.40625 0)"/>
       <use xlink:href="#DejaVuSans-14" transform="translate(159.03125 0)"/>
       <use xlink:href="#DejaVuSans-1b" transform="translate(222.65625 0)"/>
      </g>
     </g>
    </g>
    <g id="xtick_3">
     <g id="line2d_3">
      <g>
       <use xlink:href="#m3d69430062" x="179.643048" y="288.826148" style="stroke: #000000; stroke-width: 0.8"/>
      </g>
     </g>
     <g id="text_3">
      <!-- 0.020 -->
      <g transform="translate(165.328985 303.423805) scale(0.1 -0.1)">
       <defs>
        <path id="DejaVuSans-15" d="M 1228 531 
L 3431 531 
L 3431 0 
L 469 0 
L 469 531 
Q 828 903 1448 1529 
Q 2069 2156 2228 2338 
Q 2531 2678 2651 2914 
Q 2772 3150 2772 3378 
Q 2772 3750 2511 3984 
Q 2250 4219 1831 4219 
Q 1534 4219 1204 4116 
Q 875 4013 500 3803 
L 500 4441 
Q 881 4594 1212 4672 
Q 1544 4750 1819 4750 
Q 2544 4750 2975 4387 
Q 3406 4025 3406 3419 
Q 3406 3131 3298 2873 
Q 3191 2616 2906 2266 
Q 2828 2175 2409 1742 
Q 1991 1309 1228 531 
z
" transform="scale(0.015625)"/>
       </defs>
       <use xlink:href="#DejaVuSans-13"/>
       <use xlink:href="#DejaVuSans-11" transform="translate(63.625 0)"/>
       <use xlink:href="#DejaVuSans-13" transform="translate(95.40625 0)"/>
       <use xlink:href="#DejaVuSans-15" transform="translate(159.03125 0)"/>
       <use xlink:href="#DejaVuSans-13" transform="translate(222.65625 0)"/>
      </g>
     </g>
    </g>
    <g id="xtick_4">
     <g id="line2d_4">
      <g>
       <use xlink:href="#m3d69430062" x="229.525319" y="288.826148" style="stroke: #000000; stroke-width: 0.8"/>
      </g>
     </g>
     <g id="text_4">
      <!-- 0.022 -->
      <g transform="translate(215.211256 303.423805) scale(0.1 -0.1)">
       <use xlink:href="#DejaVuSans-13"/>
       <use xlink:href="#DejaVuSans-11" transform="translate(63.625 0)"/>
       <use xlink:href="#DejaVuSans-13" transform="translate(95.40625 0)"/>
       <use xlink:href="#DejaVuSans-15" transform="translate(159.03125 0)"/>
       <use xlink:href="#DejaVuSans-15" transform="translate(222.65625 0)"/>
      </g>
     </g>
    </g>
    <g id="xtick_5">
     <g id="line2d_5">
      <g>
       <use xlink:href="#m3d69430062" x="279.40759" y="288.826148" style="stroke: #000000; stroke-width: 0.8"/>
      </g>
     </g>
     <g id="text_5">
      <!-- 0.024 -->
      <g transform="translate(265.093527 303.423805) scale(0.1 -0.1)">
       <defs>
        <path id="DejaVuSans-17" d="M 2419 4116 
L 825 1625 
L 2419 1625 
L 2419 4116 
z
M 2253 4666 
L 3047 4666 
L 3047 1625 
L 3713 1625 
L 3713 1100 
L 3047 1100 
L 3047 0 
L 2419 0 
L 2419 1100 
L 313 1100 
L 313 1709 
L 2253 4666 
z
" transform="scale(0.015625)"/>
       </defs>
       <use xlink:href="#DejaVuSans-13"/>
       <use xlink:href="#DejaVuSans-11" transform="translate(63.625 0)"/>
       <use xlink:href="#DejaVuSans-13" transform="translate(95.40625 0)"/>
       <use xlink:href="#DejaVuSans-15" transform="translate(159.03125 0)"/>
       <use xlink:href="#DejaVuSans-17" transform="translate(222.65625 0)"/>
      </g>
     </g>
    </g>
    <g id="xtick_6">
     <g id="line2d_6">
      <g>
       <use xlink:href="#m3d69430062" x="329.289861" y="288.826148" style="stroke: #000000; stroke-width: 0.8"/>
      </g>
     </g>
     <g id="text_6">
      <!-- 0.026 -->
      <g transform="translate(314.975798 303.423805) scale(0.1 -0.1)">
       <use xlink:href="#DejaVuSans-13"/>
       <use xlink:href="#DejaVuSans-11" transform="translate(63.625 0)"/>
       <use xlink:href="#DejaVuSans-13" transform="translate(95.40625 0)"/>
       <use xlink:href="#DejaVuSans-15" transform="translate(159.03125 0)"/>
       <use xlink:href="#DejaVuSans-19" transform="translate(222.65625 0)"/>
      </g>
     </g>
    </g>
    <g id="xtick_7">
     <g id="line2d_7">
      <g>
       <use xlink:href="#m3d69430062" x="379.172132" y="288.826148" style="stroke: #000000; stroke-width: 0.8"/>
      </g>
     </g>
     <g id="text_7">
      <!-- 0.028 -->
      <g transform="translate(364.858069 303.423805) scale(0.1 -0.1)">
       <use xlink:href="#DejaVuSans-13"/>
       <use xlink:href="#DejaVuSans-11" transform="translate(63.625 0)"/>
       <use xlink:href="#DejaVuSans-13" transform="translate(95.40625 0)"/>
       <use xlink:href="#DejaVuSans-15" transform="translate(159.03125 0)"/>
       <use xlink:href="#DejaVuSans-1b" transform="translate(222.65625 0)"/>
      </g>
     </g>
    </g>
    <g id="xtick_8">
     <g id="line2d_8">
      <g>
       <use xlink:href="#m3d69430062" x="429.054403" y="288.826148" style="stroke: #000000; stroke-width: 0.8"/>
      </g>
     </g>
     <g id="text_8">
      <!-- 0.030 -->
      <g transform="translate(414.74034 303.423805) scale(0.1 -0.1)">
       <defs>
        <path id="DejaVuSans-16" d="M 2597 2516 
Q 3050 2419 3304 2112 
Q 3559 1806 3559 1356 
Q 3559 666 3084 287 
Q 2609 -91 1734 -91 
Q 1441 -91 1130 -33 
Q 819 25 488 141 
L 488 750 
Q 750 597 1062 519 
Q 1375 441 1716 441 
Q 2309 441 2620 675 
Q 2931 909 2931 1356 
Q 2931 1769 2642 2001 
Q 2353 2234 1838 2234 
L 1294 2234 
L 1294 2753 
L 1863 2753 
Q 2328 2753 2575 2939 
Q 2822 3125 2822 3475 
Q 2822 3834 2567 4026 
Q 2313 4219 1838 4219 
Q 1578 4219 1281 4162 
Q 984 4106 628 3988 
L 628 4550 
Q 988 4650 1302 4700 
Q 1616 4750 1894 4750 
Q 2613 4750 3031 4423 
Q 3450 4097 3450 3541 
Q 3450 3153 3228 2886 
Q 3006 2619 2597 2516 
z
" transform="scale(0.015625)"/>
       </defs>
       <use xlink:href="#DejaVuSans-13"/>
       <use xlink:href="#DejaVuSans-11" transform="translate(63.625 0)"/>
       <use xlink:href="#DejaVuSans-13" transform="translate(95.40625 0)"/>
       <use xlink:href="#DejaVuSans-16" transform="translate(159.03125 0)"/>
       <use xlink:href="#DejaVuSans-13" transform="translate(222.65625 0)"/>
      </g>
     </g>
    </g>
    <g id="text_9">
     <!-- modeled billed $/request (incl. idle windows) -->
     <g transform="translate(133.707813 317.424586) scale(0.1 -0.1)">
      <defs>
       <path id="DejaVuSans-50" d="M 3328 2828 
Q 3544 3216 3844 3400 
Q 4144 3584 4550 3584 
Q 5097 3584 5394 3201 
Q 5691 2819 5691 2113 
L 5691 0 
L 5113 0 
L 5113 2094 
Q 5113 2597 4934 2840 
Q 4756 3084 4391 3084 
Q 3944 3084 3684 2787 
Q 3425 2491 3425 1978 
L 3425 0 
L 2847 0 
L 2847 2094 
Q 2847 2600 2669 2842 
Q 2491 3084 2119 3084 
Q 1678 3084 1418 2786 
Q 1159 2488 1159 1978 
L 1159 0 
L 581 0 
L 581 3500 
L 1159 3500 
L 1159 2956 
Q 1356 3278 1631 3431 
Q 1906 3584 2284 3584 
Q 2666 3584 2933 3390 
Q 3200 3197 3328 2828 
z
" transform="scale(0.015625)"/>
       <path id="DejaVuSans-52" d="M 1959 3097 
Q 1497 3097 1228 2736 
Q 959 2375 959 1747 
Q 959 1119 1226 758 
Q 1494 397 1959 397 
Q 2419 397 2687 759 
Q 2956 1122 2956 1747 
Q 2956 2369 2687 2733 
Q 2419 3097 1959 3097 
z
M 1959 3584 
Q 2709 3584 3137 3096 
Q 3566 2609 3566 1747 
Q 3566 888 3137 398 
Q 2709 -91 1959 -91 
Q 1206 -91 779 398 
Q 353 888 353 1747 
Q 353 2609 779 3096 
Q 1206 3584 1959 3584 
z
" transform="scale(0.015625)"/>
       <path id="DejaVuSans-47" d="M 2906 2969 
L 2906 4863 
L 3481 4863 
L 3481 0 
L 2906 0 
L 2906 525 
Q 2725 213 2448 61 
Q 2172 -91 1784 -91 
Q 1150 -91 751 415 
Q 353 922 353 1747 
Q 353 2572 751 3078 
Q 1150 3584 1784 3584 
Q 2172 3584 2448 3432 
Q 2725 3281 2906 2969 
z
M 947 1747 
Q 947 1113 1208 752 
Q 1469 391 1925 391 
Q 2381 391 2643 752 
Q 2906 1113 2906 1747 
Q 2906 2381 2643 2742 
Q 2381 3103 1925 3103 
Q 1469 3103 1208 2742 
Q 947 2381 947 1747 
z
" transform="scale(0.015625)"/>
       <path id="DejaVuSans-48" d="M 3597 1894 
L 3597 1613 
L 953 1613 
Q 991 1019 1311 708 
Q 1631 397 2203 397 
Q 2534 397 2845 478 
Q 3156 559 3463 722 
L 3463 178 
Q 3153 47 2828 -22 
Q 2503 -91 2169 -91 
Q 1331 -91 842 396 
Q 353 884 353 1716 
Q 353 2575 817 3079 
Q 1281 3584 2069 3584 
Q 2775 3584 3186 3129 
Q 3597 2675 3597 1894 
z
M 3022 2063 
Q 3016 2534 2758 2815 
Q 2500 3097 2075 3097 
Q 1594 3097 1305 2825 
Q 1016 2553 972 2059 
L 3022 2063 
z
" transform="scale(0.015625)"/>
       <path id="DejaVuSans-4f" d="M 603 4863 
L 1178 4863 
L 1178 0 
L 603 0 
L 603 4863 
z
" transform="scale(0.015625)"/>
       <path id="DejaVuSans-3" transform="scale(0.015625)"/>
       <path id="DejaVuSans-45" d="M 3116 1747 
Q 3116 2381 2855 2742 
Q 2594 3103 2138 3103 
Q 1681 3103 1420 2742 
Q 1159 2381 1159 1747 
Q 1159 1113 1420 752 
Q 1681 391 2138 391 
Q 2594 391 2855 752 
Q 3116 1113 3116 1747 
z
M 1159 2969 
Q 1341 3281 1617 3432 
Q 1894 3584 2278 3584 
Q 2916 3584 3314 3078 
Q 3713 2572 3713 1747 
Q 3713 922 3314 415 
Q 2916 -91 2278 -91 
Q 1894 -91 1617 61 
Q 1341 213 1159 525 
L 1159 0 
L 581 0 
L 581 4863 
L 1159 4863 
L 1159 2969 
z
" transform="scale(0.015625)"/>
       <path id="DejaVuSans-4c" d="M 603 3500 
L 1178 3500 
L 1178 0 
L 603 0 
L 603 3500 
z
M 603 4863 
L 1178 4863 
L 1178 4134 
L 603 4134 
L 603 4863 
z
" transform="scale(0.015625)"/>
       <path id="DejaVuSans-7" d="M 2163 -941 
L 1850 -941 
L 1847 0 
Q 1519 6 1191 76 
Q 863 147 531 288 
L 531 850 
Q 850 650 1176 548 
Q 1503 447 1850 444 
L 1850 1869 
Q 1159 1981 845 2250 
Q 531 2519 531 2988 
Q 531 3497 872 3790 
Q 1213 4084 1850 4128 
L 1850 4863 
L 2163 4863 
L 2163 4138 
Q 2453 4125 2725 4076 
Q 2997 4028 3256 3944 
L 3256 3397 
Q 2997 3528 2723 3600 
Q 2450 3672 2163 3684 
L 2163 2350 
Q 2872 2241 3206 1959 
Q 3541 1678 3541 1191 
Q 3541 663 3186 358 
Q 2831 53 2163 6 
L 2163 -941 
z
M 1850 2406 
L 1850 3688 
Q 1488 3647 1297 3481 
Q 1106 3316 1106 3041 
Q 1106 2772 1282 2622 
Q 1459 2472 1850 2406 
z
M 2163 1806 
L 2163 453 
Q 2559 506 2761 678 
Q 2963 850 2963 1131 
Q 2963 1406 2770 1568 
Q 2578 1731 2163 1806 
z
" transform="scale(0.015625)"/>
       <path id="DejaVuSans-12" d="M 1625 4666 
L 2156 4666 
L 531 -594 
L 0 -594 
L 1625 4666 
z
" transform="scale(0.015625)"/>
       <path id="DejaVuSans-55" d="M 2631 2963 
Q 2534 3019 2420 3045 
Q 2306 3072 2169 3072 
Q 1681 3072 1420 2755 
Q 1159 2438 1159 1844 
L 1159 0 
L 581 0 
L 581 3500 
L 1159 3500 
L 1159 2956 
Q 1341 3275 1631 3429 
Q 1922 3584 2338 3584 
Q 2397 3584 2469 3576 
Q 2541 3569 2628 3553 
L 2631 2963 
z
" transform="scale(0.015625)"/>
       <path id="DejaVuSans-54" d="M 947 1747 
Q 947 1113 1208 752 
Q 1469 391 1925 391 
Q 2381 391 2643 752 
Q 2906 1113 2906 1747 
Q 2906 2381 2643 2742 
Q 2381 3103 1925 3103 
Q 1469 3103 1208 2742 
Q 947 2381 947 1747 
z
M 2906 525 
Q 2725 213 2448 61 
Q 2172 -91 1784 -91 
Q 1150 -91 751 415 
Q 353 922 353 1747 
Q 353 2572 751 3078 
Q 1150 3584 1784 3584 
Q 2172 3584 2448 3432 
Q 2725 3281 2906 2969 
L 2906 3500 
L 3481 3500 
L 3481 -1331 
L 2906 -1331 
L 2906 525 
z
" transform="scale(0.015625)"/>
       <path id="DejaVuSans-58" d="M 544 1381 
L 544 3500 
L 1119 3500 
L 1119 1403 
Q 1119 906 1312 657 
Q 1506 409 1894 409 
Q 2359 409 2629 706 
Q 2900 1003 2900 1516 
L 2900 3500 
L 3475 3500 
L 3475 0 
L 2900 0 
L 2900 538 
Q 2691 219 2414 64 
Q 2138 -91 1772 -91 
Q 1169 -91 856 284 
Q 544 659 544 1381 
z
M 1991 3584 
L 1991 3584 
z
" transform="scale(0.015625)"/>
       <path id="DejaVuSans-56" d="M 2834 3397 
L 2834 2853 
Q 2591 2978 2328 3040 
Q 2066 3103 1784 3103 
Q 1356 3103 1142 2972 
Q 928 2841 928 2578 
Q 928 2378 1081 2264 
Q 1234 2150 1697 2047 
L 1894 2003 
Q 2506 1872 2764 1633 
Q 3022 1394 3022 966 
Q 3022 478 2636 193 
Q 2250 -91 1575 -91 
Q 1294 -91 989 -36 
Q 684 19 347 128 
L 347 722 
Q 666 556 975 473 
Q 1284 391 1588 391 
Q 1994 391 2212 530 
Q 2431 669 2431 922 
Q 2431 1156 2273 1281 
Q 2116 1406 1581 1522 
L 1381 1569 
Q 847 1681 609 1914 
Q 372 2147 372 2553 
Q 372 3047 722 3315 
Q 1072 3584 1716 3584 
Q 2034 3584 2315 3537 
Q 2597 3491 2834 3397 
z
" transform="scale(0.015625)"/>
       <path id="DejaVuSans-57" d="M 1172 4494 
L 1172 3500 
L 2356 3500 
L 2356 3053 
L 1172 3053 
L 1172 1153 
Q 1172 725 1289 603 
Q 1406 481 1766 481 
L 2356 481 
L 2356 0 
L 1766 0 
Q 1100 0 847 248 
Q 594 497 594 1153 
L 594 3053 
L 172 3053 
L 172 3500 
L 594 3500 
L 594 4494 
L 1172 4494 
z
" transform="scale(0.015625)"/>
       <path id="DejaVuSans-b" d="M 1984 4856 
Q 1566 4138 1362 3434 
Q 1159 2731 1159 2009 
Q 1159 1288 1364 580 
Q 1569 -128 1984 -844 
L 1484 -844 
Q 1016 -109 783 600 
Q 550 1309 550 2009 
Q 550 2706 781 3412 
Q 1013 4119 1484 4856 
L 1984 4856 
z
" transform="scale(0.015625)"/>
       <path id="DejaVuSans-51" d="M 3513 2113 
L 3513 0 
L 2938 0 
L 2938 2094 
Q 2938 2591 2744 2837 
Q 2550 3084 2163 3084 
Q 1697 3084 1428 2787 
Q 1159 2491 1159 1978 
L 1159 0 
L 581 0 
L 581 3500 
L 1159 3500 
L 1159 2956 
Q 1366 3272 1645 3428 
Q 1925 3584 2291 3584 
Q 2894 3584 3203 3211 
Q 3513 2838 3513 2113 
z
" transform="scale(0.015625)"/>
       <path id="DejaVuSans-46" d="M 3122 3366 
L 3122 2828 
Q 2878 2963 2633 3030 
Q 2388 3097 2138 3097 
Q 1578 3097 1268 2742 
Q 959 2388 959 1747 
Q 959 1106 1268 751 
Q 1578 397 2138 397 
Q 2388 397 2633 464 
Q 2878 531 3122 666 
L 3122 134 
Q 2881 22 2623 -34 
Q 2366 -91 2075 -91 
Q 1284 -91 818 406 
Q 353 903 353 1747 
Q 353 2603 823 3093 
Q 1294 3584 2113 3584 
Q 2378 3584 2631 3529 
Q 2884 3475 3122 3366 
z
" transform="scale(0.015625)"/>
       <path id="DejaVuSans-5a" d="M 269 3500 
L 844 3500 
L 1563 769 
L 2278 3500 
L 2956 3500 
L 3675 769 
L 4391 3500 
L 4966 3500 
L 4050 0 
L 3372 0 
L 2619 2869 
L 1863 0 
L 1184 0 
L 269 3500 
z
" transform="scale(0.015625)"/>
       <path id="DejaVuSans-c" d="M 513 4856 
L 1013 4856 
Q 1481 4119 1714 3412 
Q 1947 2706 1947 2009 
Q 1947 1309 1714 600 
Q 1481 -109 1013 -844 
L 513 -844 
Q 928 -128 1133 580 
Q 1338 1288 1338 2009 
Q 1338 2731 1133 3434 
Q 928 4138 513 4856 
z
" transform="scale(0.015625)"/>
      </defs>
      <use xlink:href="#DejaVuSans-50"/>
      <use xlink:href="#DejaVuSans-52" transform="translate(97.40625 0)"/>
      <use xlink:href="#DejaVuSans-47" transform="translate(158.59375 0)"/>
      <use xlink:href="#DejaVuSans-48" transform="translate(222.078125 0)"/>
      <use xlink:href="#DejaVuSans-4f" transform="translate(283.609375 0)"/>
      <use xlink:href="#DejaVuSans-48" transform="translate(311.390625 0)"/>
      <use xlink:href="#DejaVuSans-47" transform="translate(372.921875 0)"/>
      <use xlink:href="#DejaVuSans-3" transform="translate(436.40625 0)"/>
      <use xlink:href="#DejaVuSans-45" transform="translate(468.1875 0)"/>
      <use xlink:href="#DejaVuSans-4c" transform="translate(531.671875 0)"/>
      <use xlink:href="#DejaVuSans-4f" transform="translate(559.453125 0)"/>
      <use xlink:href="#DejaVuSans-4f" transform="translate(587.234375 0)"/>
      <use xlink:href="#DejaVuSans-48" transform="translate(615.015625 0)"/>
      <use xlink:href="#DejaVuSans-47" transform="translate(676.546875 0)"/>
      <use xlink:href="#DejaVuSans-3" transform="translate(740.03125 0)"/>
      <use xlink:href="#DejaVuSans-7" transform="translate(771.8125 0)"/>
      <use xlink:href="#DejaVuSans-12" transform="translate(835.4375 0)"/>
      <use xlink:href="#DejaVuSans-55" transform="translate(869.125 0)"/>
      <use xlink:href="#DejaVuSans-48" transform="translate(908.03125 0)"/>
      <use xlink:href="#DejaVuSans-54" transform="translate(969.5625 0)"/>
      <use xlink:href="#DejaVuSans-58" transform="translate(1033.046875 0)"/>
      <use xlink:href="#DejaVuSans-48" transform="translate(1096.421875 0)"/>
      <use xlink:href="#DejaVuSans-56" transform="translate(1157.953125 0)"/>
      <use xlink:href="#DejaVuSans-57" transform="translate(1210.046875 0)"/>
      <use xlink:href="#DejaVuSans-3" transform="translate(1249.25 0)"/>
      <use xlink:href="#DejaVuSans-b" transform="translate(1281.03125 0)"/>
      <use xlink:href="#DejaVuSans-4c" transform="translate(1320.046875 0)"/>
      <use xlink:href="#DejaVuSans-51" transform="translate(1347.828125 0)"/>
      <use xlink:href="#DejaVuSans-46" transform="translate(1411.203125 0)"/>
      <use xlink:href="#DejaVuSans-4f" transform="translate(1466.1875 0)"/>
      <use xlink:href="#DejaVuSans-11" transform="translate(1493.96875 0)"/>
      <use xlink:href="#DejaVuSans-3" transform="translate(1525.75 0)"/>
      <use xlink:href="#DejaVuSans-4c" transform="translate(1557.53125 0)"/>
      <use xlink:href="#DejaVuSans-47" transform="translate(1585.3125 0)"/>
      <use xlink:href="#DejaVuSans-4f" transform="translate(1648.796875 0)"/>
      <use xlink:href="#DejaVuSans-48" transform="translate(1676.578125 0)"/>
      <use xlink:href="#DejaVuSans-3" transform="translate(1738.109375 0)"/>
      <use xlink:href="#DejaVuSans-5a" transform="translate(1769.890625 0)"/>
      <use xlink:href="#DejaVuSans-4c" transform="translate(1851.671875 0)"/>
      <use xlink:href="#DejaVuSans-51" transform="translate(1879.453125 0)"/>
      <use xlink:href="#DejaVuSans-47" transform="translate(1942.828125 0)"/>
      <use xlink:href="#DejaVuSans-52" transform="translate(2006.3125 0)"/>
      <use xlink:href="#DejaVuSans-5a" transform="translate(2067.5 0)"/>
      <use xlink:href="#DejaVuSans-56" transform="translate(2149.28125 0)"/>
      <use xlink:href="#DejaVuSans-c" transform="translate(2201.375 0)"/>
     </g>
    </g>
   </g>
   <g id="matplotlib.axis_2">
    <g id="ytick_1">
     <g id="line2d_9">
      <defs>
       <path id="me78784ce39" d="M 0 0 
L -3.5 0 
" style="stroke: #000000; stroke-width: 0.8"/>
      </defs>
      <g>
       <use xlink:href="#me78784ce39" x="50.427344" y="271.113871" style="stroke: #000000; stroke-width: 0.8"/>
      </g>
     </g>
     <g id="text_10">
      <!-- 0% -->
      <g transform="translate(27.563281 274.912699) scale(0.1 -0.1)">
       <defs>
        <path id="DejaVuSans-8" d="M 4653 2053 
Q 4381 2053 4226 1822 
Q 4072 1591 4072 1178 
Q 4072 772 4226 539 
Q 4381 306 4653 306 
Q 4919 306 5073 539 
Q 5228 772 5228 1178 
Q 5228 1588 5073 1820 
Q 4919 2053 4653 2053 
z
M 4653 2450 
Q 5147 2450 5437 2106 
Q 5728 1763 5728 1178 
Q 5728 594 5436 251 
Q 5144 -91 4653 -91 
Q 4153 -91 3862 251 
Q 3572 594 3572 1178 
Q 3572 1766 3864 2108 
Q 4156 2450 4653 2450 
z
M 1428 4353 
Q 1159 4353 1004 4120 
Q 850 3888 850 3481 
Q 850 3069 1003 2837 
Q 1156 2606 1428 2606 
Q 1700 2606 1854 2837 
Q 2009 3069 2009 3481 
Q 2009 3884 1853 4118 
Q 1697 4353 1428 4353 
z
M 4250 4750 
L 4750 4750 
L 1831 -91 
L 1331 -91 
L 4250 4750 
z
M 1428 4750 
Q 1922 4750 2215 4408 
Q 2509 4066 2509 3481 
Q 2509 2891 2217 2550 
Q 1925 2209 1428 2209 
Q 931 2209 642 2551 
Q 353 2894 353 3481 
Q 353 4063 643 4406 
Q 934 4750 1428 4750 
z
" transform="scale(0.015625)"/>
       </defs>
       <use xlink:href="#DejaVuSans-13"/>
       <use xlink:href="#DejaVuSans-8" transform="translate(63.625 0)"/>
      </g>
     </g>
    </g>
    <g id="ytick_2">
     <g id="line2d_10">
      <g>
       <use xlink:href="#me78784ce39" x="50.427344" y="241.593408" style="stroke: #000000; stroke-width: 0.8"/>
      </g>
     </g>
     <g id="text_11">
      <!-- 5% -->
      <g transform="translate(27.563281 245.392236) scale(0.1 -0.1)">
       <defs>
        <path id="DejaVuSans-18" d="M 691 4666 
L 3169 4666 
L 3169 4134 
L 1269 4134 
L 1269 2991 
Q 1406 3038 1543 3061 
Q 1681 3084 1819 3084 
Q 2600 3084 3056 2656 
Q 3513 2228 3513 1497 
Q 3513 744 3044 326 
Q 2575 -91 1722 -91 
Q 1428 -91 1123 -41 
Q 819 9 494 109 
L 494 744 
Q 775 591 1075 516 
Q 1375 441 1709 441 
Q 2250 441 2565 725 
Q 2881 1009 2881 1497 
Q 2881 1984 2565 2268 
Q 2250 2553 1709 2553 
Q 1456 2553 1204 2497 
Q 953 2441 691 2322 
L 691 4666 
z
" transform="scale(0.015625)"/>
       </defs>
       <use xlink:href="#DejaVuSans-18"/>
       <use xlink:href="#DejaVuSans-8" transform="translate(63.625 0)"/>
      </g>
     </g>
    </g>
    <g id="ytick_3">
     <g id="line2d_11">
      <g>
       <use xlink:href="#me78784ce39" x="50.427344" y="212.072945" style="stroke: #000000; stroke-width: 0.8"/>
      </g>
     </g>
     <g id="text_12">
      <!-- 10% -->
      <g transform="translate(21.200781 215.871773) scale(0.1 -0.1)">
       <use xlink:href="#DejaVuSans-14"/>
       <use xlink:href="#DejaVuSans-13" transform="translate(63.625 0)"/>
       <use xlink:href="#DejaVuSans-8" transform="translate(127.25 0)"/>
      </g>
     </g>
    </g>
    <g id="ytick_4">
     <g id="line2d_12">
      <g>
       <use xlink:href="#me78784ce39" x="50.427344" y="182.552482" style="stroke: #000000; stroke-width: 0.8"/>
      </g>
     </g>
     <g id="text_13">
      <!-- 15% -->
      <g transform="translate(21.200781 186.35131) scale(0.1 -0.1)">
       <use xlink:href="#DejaVuSans-14"/>
       <use xlink:href="#DejaVuSans-18" transform="translate(63.625 0)"/>
       <use xlink:href="#DejaVuSans-8" transform="translate(127.25 0)"/>
      </g>
     </g>
    </g>
    <g id="ytick_5">
     <g id="line2d_13">
      <g>
       <use xlink:href="#me78784ce39" x="50.427344" y="153.032019" style="stroke: #000000; stroke-width: 0.8"/>
      </g>
     </g>
     <g id="text_14">
      <!-- 20% -->
      <g transform="translate(21.200781 156.830847) scale(0.1 -0.1)">
       <use xlink:href="#DejaVuSans-15"/>
       <use xlink:href="#DejaVuSans-13" transform="translate(63.625 0)"/>
       <use xlink:href="#DejaVuSans-8" transform="translate(127.25 0)"/>
      </g>
     </g>
    </g>
    <g id="ytick_6">
     <g id="line2d_14">
      <g>
       <use xlink:href="#me78784ce39" x="50.427344" y="123.511556" style="stroke: #000000; stroke-width: 0.8"/>
      </g>
     </g>
     <g id="text_15">
      <!-- 25% -->
      <g transform="translate(21.200781 127.310384) scale(0.1 -0.1)">
       <use xlink:href="#DejaVuSans-15"/>
       <use xlink:href="#DejaVuSans-18" transform="translate(63.625 0)"/>
       <use xlink:href="#DejaVuSans-8" transform="translate(127.25 0)"/>
      </g>
     </g>
    </g>
    <g id="ytick_7">
     <g id="line2d_15">
      <g>
       <use xlink:href="#me78784ce39" x="50.427344" y="93.991092" style="stroke: #000000; stroke-width: 0.8"/>
      </g>
     </g>
     <g id="text_16">
      <!-- 30% -->
      <g transform="translate(21.200781 97.789921) scale(0.1 -0.1)">
       <use xlink:href="#DejaVuSans-16"/>
       <use xlink:href="#DejaVuSans-13" transform="translate(63.625 0)"/>
       <use xlink:href="#DejaVuSans-8" transform="translate(127.25 0)"/>
      </g>
     </g>
    </g>
    <g id="ytick_8">
     <g id="line2d_16">
      <g>
       <use xlink:href="#me78784ce39" x="50.427344" y="64.470629" style="stroke: #000000; stroke-width: 0.8"/>
      </g>
     </g>
     <g id="text_17">
      <!-- 35% -->
      <g transform="translate(21.200781 68.269458) scale(0.1 -0.1)">
       <use xlink:href="#DejaVuSans-16"/>
       <use xlink:href="#DejaVuSans-18" transform="translate(63.625 0)"/>
       <use xlink:href="#DejaVuSans-8" transform="translate(127.25 0)"/>
      </g>
     </g>
    </g>
    <g id="ytick_9">
     <g id="line2d_17">
      <g>
       <use xlink:href="#me78784ce39" x="50.427344" y="34.950166" style="stroke: #000000; stroke-width: 0.8"/>
      </g>
     </g>
     <g id="text_18">
      <!-- 40% -->
      <g transform="translate(21.200781 38.748995) scale(0.1 -0.1)">
       <use xlink:href="#DejaVuSans-17"/>
       <use xlink:href="#DejaVuSans-13" transform="translate(63.625 0)"/>
       <use xlink:href="#DejaVuSans-8" transform="translate(127.25 0)"/>
      </g>
     </g>
    </g>
    <g id="text_19">
     <!-- 60 s deadline miss rate -->
     <g transform="translate(14.798438 219.775086) rotate(-90) scale(0.1 -0.1)">
      <defs>
       <path id="DejaVuSans-44" d="M 2194 1759 
Q 1497 1759 1228 1600 
Q 959 1441 959 1056 
Q 959 750 1161 570 
Q 1363 391 1709 391 
Q 2188 391 2477 730 
Q 2766 1069 2766 1631 
L 2766 1759 
L 2194 1759 
z
M 3341 1997 
L 3341 0 
L 2766 0 
L 2766 531 
Q 2569 213 2275 61 
Q 1981 -91 1556 -91 
Q 1019 -91 701 211 
Q 384 513 384 1019 
Q 384 1609 779 1909 
Q 1175 2209 1959 2209 
L 2766 2209 
L 2766 2266 
Q 2766 2663 2505 2880 
Q 2244 3097 1772 3097 
Q 1472 3097 1187 3025 
Q 903 2953 641 2809 
L 641 3341 
Q 956 3463 1253 3523 
Q 1550 3584 1831 3584 
Q 2591 3584 2966 3190 
Q 3341 2797 3341 1997 
z
" transform="scale(0.015625)"/>
      </defs>
      <use xlink:href="#DejaVuSans-19"/>
      <use xlink:href="#DejaVuSans-13" transform="translate(63.625 0)"/>
      <use xlink:href="#DejaVuSans-3" transform="translate(127.25 0)"/>
      <use xlink:href="#DejaVuSans-56" transform="translate(159.03125 0)"/>
      <use xlink:href="#DejaVuSans-3" transform="translate(211.125 0)"/>
      <use xlink:href="#DejaVuSans-47" transform="translate(242.90625 0)"/>
      <use xlink:href="#DejaVuSans-48" transform="translate(306.390625 0)"/>
      <use xlink:href="#DejaVuSans-44" transform="translate(367.921875 0)"/>
      <use xlink:href="#DejaVuSans-47" transform="translate(429.203125 0)"/>
      <use xlink:href="#DejaVuSans-4f" transform="translate(492.6875 0)"/>
      <use xlink:href="#DejaVuSans-4c" transform="translate(520.46875 0)"/>
      <use xlink:href="#DejaVuSans-51" transform="translate(548.25 0)"/>
      <use xlink:href="#DejaVuSans-48" transform="translate(611.625 0)"/>
      <use xlink:href="#DejaVuSans-3" transform="translate(673.15625 0)"/>
      <use xlink:href="#DejaVuSans-50" transform="translate(704.9375 0)"/>
      <use xlink:href="#DejaVuSans-4c" transform="translate(802.34375 0)"/>
      <use xlink:href="#DejaVuSans-56" transform="translate(830.125 0)"/>
      <use xlink:href="#DejaVuSans-56" transform="translate(882.21875 0)"/>
      <use xlink:href="#DejaVuSans-3" transform="translate(934.3125 0)"/>
      <use xlink:href="#DejaVuSans-55" transform="translate(966.09375 0)"/>
      <use xlink:href="#DejaVuSans-44" transform="translate(1007.203125 0)"/>
      <use xlink:href="#DejaVuSans-57" transform="translate(1068.484375 0)"/>
      <use xlink:href="#DejaVuSans-48" transform="translate(1107.6875 0)"/>
     </g>
    </g>
   </g>
   <g id="patch_3">
    <path d="M 50.427344 288.826148 
L 50.427344 33.802148 
" style="fill: none; stroke: #000000; stroke-width: 0.8; stroke-linejoin: miter; stroke-linecap: square"/>
   </g>
   <g id="patch_4">
    <path d="M 50.427344 288.826148 
L 441.027344 288.826148 
" style="fill: none; stroke: #000000; stroke-width: 0.8; stroke-linejoin: miter; stroke-linecap: square"/>
   </g>
   <g id="PathCollection_1">
    <defs>
     <path id="med31943345" d="M 0 4.472136 
C 1.186024 4.472136 2.323632 4.000923 3.162278 3.162278 
C 4.000923 2.323632 4.472136 1.186024 4.472136 0 
C 4.472136 -1.186024 4.000923 -2.323632 3.162278 -3.162278 
C 2.323632 -4.000923 1.186024 -4.472136 0 -4.472136 
C -1.186024 -4.472136 -2.323632 -4.000923 -3.162278 -3.162278 
C -4.000923 -2.323632 -4.472136 -1.186024 -4.472136 0 
C -4.472136 1.186024 -4.000923 2.323632 -3.162278 3.162278 
C -2.323632 4.000923 -1.186024 4.472136 0 4.472136 
z
" style="stroke: #ffffff; stroke-width: 0.6"/>
    </defs>
    <g clip-path="url(#pa712e5b754)">
     <use xlink:href="#med31943345" x="423.272798" y="90.711041" style="fill: #6c757d; stroke: #ffffff; stroke-width: 0.6"/>
    </g>
   </g>
   <g id="text_20">
    <!-- single runpod -->
    <g transform="translate(429.272798 84.711041) scale(0.088 -0.088)">
     <defs>
      <path id="DejaVuSans-4a" d="M 2906 1791 
Q 2906 2416 2648 2759 
Q 2391 3103 1925 3103 
Q 1463 3103 1205 2759 
Q 947 2416 947 1791 
Q 947 1169 1205 825 
Q 1463 481 1925 481 
Q 2391 481 2648 825 
Q 2906 1169 2906 1791 
z
M 3481 434 
Q 3481 -459 3084 -895 
Q 2688 -1331 1869 -1331 
Q 1566 -1331 1297 -1286 
Q 1028 -1241 775 -1147 
L 775 -588 
Q 1028 -725 1275 -790 
Q 1522 -856 1778 -856 
Q 2344 -856 2625 -561 
Q 2906 -266 2906 331 
L 2906 616 
Q 2728 306 2450 153 
Q 2172 0 1784 0 
Q 1141 0 747 490 
Q 353 981 353 1791 
Q 353 2603 747 3093 
Q 1141 3584 1784 3584 
Q 2172 3584 2450 3431 
Q 2728 3278 2906 2969 
L 2906 3500 
L 3481 3500 
L 3481 434 
z
" transform="scale(0.015625)"/>
      <path id="DejaVuSans-53" d="M 1159 525 
L 1159 -1331 
L 581 -1331 
L 581 3500 
L 1159 3500 
L 1159 2969 
Q 1341 3281 1617 3432 
Q 1894 3584 2278 3584 
Q 2916 3584 3314 3078 
Q 3713 2572 3713 1747 
Q 3713 922 3314 415 
Q 2916 -91 2278 -91 
Q 1894 -91 1617 61 
Q 1341 213 1159 525 
z
M 3116 1747 
Q 3116 2381 2855 2742 
Q 2594 3103 2138 3103 
Q 1681 3103 1420 2742 
Q 1159 2381 1159 1747 
Q 1159 1113 1420 752 
Q 1681 391 2138 391 
Q 2594 391 2855 752 
Q 3116 1113 3116 1747 
z
" transform="scale(0.015625)"/>
     </defs>
     <use xlink:href="#DejaVuSans-56"/>
     <use xlink:href="#DejaVuSans-4c" transform="translate(52.09375 0)"/>
     <use xlink:href="#DejaVuSans-51" transform="translate(79.875 0)"/>
     <use xlink:href="#DejaVuSans-4a" transform="translate(143.25 0)"/>
     <use xlink:href="#DejaVuSans-4f" transform="translate(206.734375 0)"/>
     <use xlink:href="#DejaVuSans-48" transform="translate(234.515625 0)"/>
     <use xlink:href="#DejaVuSans-3" transform="translate(296.046875 0)"/>
     <use xlink:href="#DejaVuSans-55" transform="translate(327.828125 0)"/>
     <use xlink:href="#DejaVuSans-58" transform="translate(368.9375 0)"/>
     <use xlink:href="#DejaVuSans-51" transform="translate(432.3125 0)"/>
     <use xlink:href="#DejaVuSans-53" transform="translate(495.6875 0)"/>
     <use xlink:href="#DejaVuSans-52" transform="translate(559.171875 0)"/>
     <use xlink:href="#DejaVuSans-47" transform="translate(620.359375 0)"/>
    </g>
   </g>
   <g id="PathCollection_2">
    <g clip-path="url(#pa712e5b754)">
     <use xlink:href="#med31943345" x="416.98245" y="189.112584" style="fill: #6c757d; stroke: #ffffff; stroke-width: 0.6"/>
    </g>
   </g>
   <g id="text_21">
    <!-- single modal -->
    <g transform="translate(422.98245 183.112584) scale(0.088 -0.088)">
     <use xlink:href="#DejaVuSans-56"/>
     <use xlink:href="#DejaVuSans-4c" transform="translate(52.09375 0)"/>
     <use xlink:href="#DejaVuSans-51" transform="translate(79.875 0)"/>
     <use xlink:href="#DejaVuSans-4a" transform="translate(143.25 0)"/>
     <use xlink:href="#DejaVuSans-4f" transform="translate(206.734375 0)"/>
     <use xlink:href="#DejaVuSans-48" transform="translate(234.515625 0)"/>
     <use xlink:href="#DejaVuSans-3" transform="translate(296.046875 0)"/>
     <use xlink:href="#DejaVuSans-50" transform="translate(327.828125 0)"/>
     <use xlink:href="#DejaVuSans-52" transform="translate(425.234375 0)"/>
     <use xlink:href="#DejaVuSans-47" transform="translate(486.421875 0)"/>
     <use xlink:href="#DejaVuSans-44" transform="translate(549.90625 0)"/>
     <use xlink:href="#DejaVuSans-4f" transform="translate(611.1875 0)"/>
    </g>
   </g>
   <g id="PathCollection_3">
    <g clip-path="url(#pa712e5b754)">
     <use xlink:href="#med31943345" x="68.181889" y="254.713613" style="fill: #6c757d; stroke: #ffffff; stroke-width: 0.6"/>
    </g>
   </g>
   <g id="text_22">
    <!-- single cerebrium -->
    <g transform="translate(74.181889 248.713613) scale(0.088 -0.088)">
     <use xlink:href="#DejaVuSans-56"/>
     <use xlink:href="#DejaVuSans-4c" transform="translate(52.09375 0)"/>
     <use xlink:href="#DejaVuSans-51" transform="translate(79.875 0)"/>
     <use xlink:href="#DejaVuSans-4a" transform="translate(143.25 0)"/>
     <use xlink:href="#DejaVuSans-4f" transform="translate(206.734375 0)"/>
     <use xlink:href="#DejaVuSans-48" transform="translate(234.515625 0)"/>
     <use xlink:href="#DejaVuSans-3" transform="translate(296.046875 0)"/>
     <use xlink:href="#DejaVuSans-46" transform="translate(327.828125 0)"/>
     <use xlink:href="#DejaVuSans-48" transform="translate(382.8125 0)"/>
     <use xlink:href="#DejaVuSans-55" transform="translate(444.34375 0)"/>
     <use xlink:href="#DejaVuSans-48" transform="translate(483.25 0)"/>
     <use xlink:href="#DejaVuSans-45" transform="translate(544.78125 0)"/>
     <use xlink:href="#DejaVuSans-55" transform="translate(608.265625 0)"/>
     <use xlink:href="#DejaVuSans-4c" transform="translate(649.375 0)"/>
     <use xlink:href="#DejaVuSans-58" transform="translate(677.15625 0)"/>
     <use xlink:href="#DejaVuSans-50" transform="translate(740.53125 0)"/>
    </g>
   </g>
   <g id="PathCollection_4">
    <defs>
     <path id="mbdac3ccf95" d="M -4.472136 4.472136 
L 4.472136 4.472136 
L 4.472136 -4.472136 
L -4.472136 -4.472136 
z
" style="stroke: #ffffff; stroke-width: 0.6"/>
    </defs>
    <g clip-path="url(#pa712e5b754)">
     <use xlink:href="#mbdac3ccf95" x="316.117713" y="271.113871" style="fill: #457b9d; stroke: #ffffff; stroke-width: 0.6"/>
    </g>
   </g>
   <g id="text_23">
    <!-- immediate race -->
    <g transform="translate(238.765463 259.113871) scale(0.088 -0.088)">
     <use xlink:href="#DejaVuSans-4c"/>
     <use xlink:href="#DejaVuSans-50" transform="translate(27.78125 0)"/>
     <use xlink:href="#DejaVuSans-50" transform="translate(125.1875 0)"/>
     <use xlink:href="#DejaVuSans-48" transform="translate(222.59375 0)"/>
     <use xlink:href="#DejaVuSans-47" transform="translate(284.125 0)"/>
     <use xlink:href="#DejaVuSans-4c" transform="translate(347.609375 0)"/>
     <use xlink:href="#DejaVuSans-44" transform="translate(375.390625 0)"/>
     <use xlink:href="#DejaVuSans-57" transform="translate(436.671875 0)"/>
     <use xlink:href="#DejaVuSans-48" transform="translate(475.875 0)"/>
     <use xlink:href="#DejaVuSans-3" transform="translate(537.40625 0)"/>
     <use xlink:href="#DejaVuSans-55" transform="translate(569.1875 0)"/>
     <use xlink:href="#DejaVuSans-44" transform="translate(610.296875 0)"/>
     <use xlink:href="#DejaVuSans-46" transform="translate(671.578125 0)"/>
     <use xlink:href="#DejaVuSans-48" transform="translate(726.5625 0)"/>
    </g>
   </g>
   <g id="PathCollection_5">
    <defs>
     <path id="mb91ef49f1b" d="M -0 6.324555 
L 6.324555 0 
L 0 -6.324555 
L -6.324555 -0 
z
" style="stroke: #ffffff; stroke-width: 0.6"/>
    </defs>
    <g clip-path="url(#pa712e5b754)">
     <use xlink:href="#mb91ef49f1b" x="345.226484" y="271.113871" style="fill: #2a9d8f; stroke: #ffffff; stroke-width: 0.6"/>
    </g>
   </g>
   <g id="text_24">
    <!-- fixed hedge @10 s -->
    <g transform="translate(353.226484 285.113871) scale(0.088 -0.088)">
     <defs>
      <path id="DejaVuSans-13af" d="M 3431 3500 
L 3431 0 
L 2853 0 
L 2853 3053 
L 1275 3053 
L 1275 0 
L 697 0 
L 697 3053 
L 147 3053 
L 147 3500 
L 697 3500 
L 697 3744 
Q 697 4316 967 4589 
Q 1238 4863 1797 4863 
L 2375 4863 
L 2375 4384 
L 1825 4384 
Q 1516 4384 1395 4259 
Q 1275 4134 1275 3809 
L 1275 3500 
L 3431 3500 
z
M 2853 4856 
L 3431 4856 
L 3431 4128 
L 2853 4128 
L 2853 4856 
z
" transform="scale(0.015625)"/>
      <path id="DejaVuSans-5b" d="M 3513 3500 
L 2247 1797 
L 3578 0 
L 2900 0 
L 1881 1375 
L 863 0 
L 184 0 
L 1544 1831 
L 300 3500 
L 978 3500 
L 1906 2253 
L 2834 3500 
L 3513 3500 
z
" transform="scale(0.015625)"/>
      <path id="DejaVuSans-4b" d="M 3513 2113 
L 3513 0 
L 2938 0 
L 2938 2094 
Q 2938 2591 2744 2837 
Q 2550 3084 2163 3084 
Q 1697 3084 1428 2787 
Q 1159 2491 1159 1978 
L 1159 0 
L 581 0 
L 581 4863 
L 1159 4863 
L 1159 2956 
Q 1366 3272 1645 3428 
Q 1925 3584 2291 3584 
Q 2894 3584 3203 3211 
Q 3513 2838 3513 2113 
z
" transform="scale(0.015625)"/>
      <path id="DejaVuSans-23" d="M 2381 1678 
Q 2381 1231 2603 976 
Q 2825 722 3213 722 
Q 3597 722 3817 978 
Q 4038 1234 4038 1678 
Q 4038 2116 3813 2373 
Q 3588 2631 3206 2631 
Q 2828 2631 2604 2375 
Q 2381 2119 2381 1678 
z
M 4084 744 
Q 3897 503 3655 389 
Q 3413 275 3091 275 
Q 2553 275 2217 664 
Q 1881 1053 1881 1678 
Q 1881 2303 2218 2693 
Q 2556 3084 3091 3084 
Q 3413 3084 3656 2967 
Q 3900 2850 4084 2613 
L 4084 3022 
L 4531 3022 
L 4531 722 
Q 4988 791 5245 1139 
Q 5503 1488 5503 2041 
Q 5503 2375 5404 2669 
Q 5306 2963 5106 3213 
Q 4781 3622 4314 3839 
Q 3847 4056 3297 4056 
Q 2913 4056 2559 3954 
Q 2206 3853 1906 3653 
Q 1416 3334 1139 2817 
Q 863 2300 863 1697 
Q 863 1200 1042 765 
Q 1222 331 1563 0 
Q 1891 -325 2322 -495 
Q 2753 -666 3244 -666 
Q 3647 -666 4036 -530 
Q 4425 -394 4750 -141 
L 5031 -488 
Q 4641 -791 4180 -952 
Q 3719 -1113 3244 -1113 
Q 2666 -1113 2153 -908 
Q 1641 -703 1241 -313 
Q 841 78 631 592 
Q 422 1106 422 1697 
Q 422 2266 634 2781 
Q 847 3297 1241 3688 
Q 1644 4084 2172 4295 
Q 2700 4506 3291 4506 
Q 3953 4506 4520 4234 
Q 5088 3963 5472 3463 
Q 5706 3156 5829 2797 
Q 5953 2438 5953 2053 
Q 5953 1231 5456 756 
Q 4959 281 4084 263 
L 4084 744 
z
" transform="scale(0.015625)"/>
     </defs>
     <use xlink:href="#DejaVuSans-13af"/>
     <use xlink:href="#DejaVuSans-5b" transform="translate(62.984375 0)"/>
     <use xlink:href="#DejaVuSans-48" transform="translate(119.09375 0)"/>
     <use xlink:href="#DejaVuSans-47" transform="translate(180.625 0)"/>
     <use xlink:href="#DejaVuSans-3" transform="translate(244.109375 0)"/>
     <use xlink:href="#DejaVuSans-4b" transform="translate(275.890625 0)"/>
     <use xlink:href="#DejaVuSans-48" transform="translate(339.265625 0)"/>
     <use xlink:href="#DejaVuSans-47" transform="translate(400.796875 0)"/>
     <use xlink:href="#DejaVuSans-4a" transform="translate(464.28125 0)"/>
     <use xlink:href="#DejaVuSans-48" transform="translate(527.765625 0)"/>
     <use xlink:href="#DejaVuSans-3" transform="translate(589.296875 0)"/>
     <use xlink:href="#DejaVuSans-23" transform="translate(621.078125 0)"/>
     <use xlink:href="#DejaVuSans-14" transform="translate(721.078125 0)"/>
     <use xlink:href="#DejaVuSans-13" transform="translate(784.703125 0)"/>
     <use xlink:href="#DejaVuSans-3" transform="translate(848.328125 0)"/>
     <use xlink:href="#DejaVuSans-56" transform="translate(880.109375 0)"/>
    </g>
   </g>
   <g id="PathCollection_6">
    <defs>
     <path id="m47fad98f39" d="M 0 -8.062258 
L -1.81009 -2.491375 
L -7.667663 -2.491375 
L -2.928786 0.95162 
L -4.738876 6.522504 
L -0 3.079508 
L 4.738876 6.522504 
L 2.928786 0.95162 
L 7.667663 -2.491375 
L 1.81009 -2.491375 
z
" style="stroke: #ffffff; stroke-width: 0.6"/>
    </defs>
    <g clip-path="url(#pa712e5b754)">
     <use xlink:href="#m47fad98f39" x="137.776345" y="271.113871" style="fill: #e63946; stroke: #ffffff; stroke-width: 0.6"/>
    </g>
   </g>
   <g id="text_25">
    <!-- queue cutover @2.5 s* -->
    <g transform="translate(147.776345 263.113871) scale(0.088 -0.088)">
     <defs>
      <path id="DejaVuSans-59" d="M 191 3500 
L 800 3500 
L 1894 563 
L 2988 3500 
L 3597 3500 
L 2284 0 
L 1503 0 
L 191 3500 
z
" transform="scale(0.015625)"/>
      <path id="DejaVuSans-d" d="M 3009 3897 
L 1888 3291 
L 3009 2681 
L 2828 2375 
L 1778 3009 
L 1778 1831 
L 1422 1831 
L 1422 3009 
L 372 2375 
L 191 2681 
L 1313 3291 
L 191 3897 
L 372 4206 
L 1422 3572 
L 1422 4750 
L 1778 4750 
L 1778 3572 
L 2828 4206 
L 3009 3897 
z
" transform="scale(0.015625)"/>
     </defs>
     <use xlink:href="#DejaVuSans-54"/>
     <use xlink:href="#DejaVuSans-58" transform="translate(63.484375 0)"/>
     <use xlink:href="#DejaVuSans-48" transform="translate(126.859375 0)"/>
     <use xlink:href="#DejaVuSans-58" transform="translate(188.390625 0)"/>
     <use xlink:href="#DejaVuSans-48" transform="translate(251.765625 0)"/>
     <use xlink:href="#DejaVuSans-3" transform="translate(313.296875 0)"/>
     <use xlink:href="#DejaVuSans-46" transform="translate(345.078125 0)"/>
     <use xlink:href="#DejaVuSans-58" transform="translate(400.0625 0)"/>
     <use xlink:href="#DejaVuSans-57" transform="translate(463.4375 0)"/>
     <use xlink:href="#DejaVuSans-52" transform="translate(502.640625 0)"/>
     <use xlink:href="#DejaVuSans-59" transform="translate(563.828125 0)"/>
     <use xlink:href="#DejaVuSans-48" transform="translate(623.015625 0)"/>
     <use xlink:href="#DejaVuSans-55" transform="translate(684.546875 0)"/>
     <use xlink:href="#DejaVuSans-3" transform="translate(725.65625 0)"/>
     <use xlink:href="#DejaVuSans-23" transform="translate(757.4375 0)"/>
     <use xlink:href="#DejaVuSans-15" transform="translate(857.4375 0)"/>
     <use xlink:href="#DejaVuSans-11" transform="translate(921.0625 0)"/>
     <use xlink:href="#DejaVuSans-18" transform="translate(952.84375 0)"/>
     <use xlink:href="#DejaVuSans-3" transform="translate(1016.46875 0)"/>
     <use xlink:href="#DejaVuSans-56" transform="translate(1048.25 0)"/>
     <use xlink:href="#DejaVuSans-d" transform="translate(1100.34375 0)"/>
    </g>
   </g>
   <g id="text_26">
    <!-- 36 evaluation rounds — down-left is better -->
    <g transform="translate(138.719531 15.799414) scale(0.1 -0.1)">
     <defs>
      <path id="DejaVuSans-af6" d="M 313 1978 
L 6088 1978 
L 6088 1528 
L 313 1528 
L 313 1978 
z
" transform="scale(0.015625)"/>
      <path id="DejaVuSans-10" d="M 313 2009 
L 1997 2009 
L 1997 1497 
L 313 1497 
L 313 2009 
z
" transform="scale(0.015625)"/>
      <path id="DejaVuSans-49" d="M 2375 4863 
L 2375 4384 
L 1825 4384 
Q 1516 4384 1395 4259 
Q 1275 4134 1275 3809 
L 1275 3500 
L 2222 3500 
L 2222 3053 
L 1275 3053 
L 1275 0 
L 697 0 
L 697 3053 
L 147 3053 
L 147 3500 
L 697 3500 
L 697 3744 
Q 697 4328 969 4595 
Q 1241 4863 1831 4863 
L 2375 4863 
z
" transform="scale(0.015625)"/>
     </defs>
     <use xlink:href="#DejaVuSans-16"/>
     <use xlink:href="#DejaVuSans-19" transform="translate(63.625 0)"/>
     <use xlink:href="#DejaVuSans-3" transform="translate(127.25 0)"/>
     <use xlink:href="#DejaVuSans-48" transform="translate(159.03125 0)"/>
     <use xlink:href="#DejaVuSans-59" transform="translate(220.5625 0)"/>
     <use xlink:href="#DejaVuSans-44" transform="translate(279.75 0)"/>
     <use xlink:href="#DejaVuSans-4f" transform="translate(341.03125 0)"/>
     <use xlink:href="#DejaVuSans-58" transform="translate(368.8125 0)"/>
     <use xlink:href="#DejaVuSans-44" transform="translate(432.1875 0)"/>
     <use xlink:href="#DejaVuSans-57" transform="translate(493.46875 0)"/>
     <use xlink:href="#DejaVuSans-4c" transform="translate(532.671875 0)"/>
     <use xlink:href="#DejaVuSans-52" transform="translate(560.453125 0)"/>
     <use xlink:href="#DejaVuSans-51" transform="translate(621.640625 0)"/>
     <use xlink:href="#DejaVuSans-3" transform="translate(685.015625 0)"/>
     <use xlink:href="#DejaVuSans-55" transform="translate(716.796875 0)"/>
     <use xlink:href="#DejaVuSans-52" transform="translate(755.703125 0)"/>
     <use xlink:href="#DejaVuSans-58" transform="translate(816.890625 0)"/>
     <use xlink:href="#DejaVuSans-51" transform="translate(880.265625 0)"/>
     <use xlink:href="#DejaVuSans-47" transform="translate(943.640625 0)"/>
     <use xlink:href="#DejaVuSans-56" transform="translate(1007.125 0)"/>
     <use xlink:href="#DejaVuSans-3" transform="translate(1059.21875 0)"/>
     <use xlink:href="#DejaVuSans-af6" transform="translate(1091 0)"/>
     <use xlink:href="#DejaVuSans-3" transform="translate(1191 0)"/>
     <use xlink:href="#DejaVuSans-47" transform="translate(1222.78125 0)"/>
     <use xlink:href="#DejaVuSans-52" transform="translate(1286.265625 0)"/>
     <use xlink:href="#DejaVuSans-5a" transform="translate(1347.453125 0)"/>
     <use xlink:href="#DejaVuSans-51" transform="translate(1429.234375 0)"/>
     <use xlink:href="#DejaVuSans-10" transform="translate(1492.609375 0)"/>
     <use xlink:href="#DejaVuSans-4f" transform="translate(1528.6875 0)"/>
     <use xlink:href="#DejaVuSans-48" transform="translate(1556.46875 0)"/>
     <use xlink:href="#DejaVuSans-49" transform="translate(1618 0)"/>
     <use xlink:href="#DejaVuSans-57" transform="translate(1651.453125 0)"/>
     <use xlink:href="#DejaVuSans-3" transform="translate(1690.65625 0)"/>
     <use xlink:href="#DejaVuSans-4c" transform="translate(1722.4375 0)"/>
     <use xlink:href="#DejaVuSans-56" transform="translate(1750.21875 0)"/>
     <use xlink:href="#DejaVuSans-3" transform="translate(1802.3125 0)"/>
     <use xlink:href="#DejaVuSans-45" transform="translate(1834.09375 0)"/>
     <use xlink:href="#DejaVuSans-48" transform="translate(1897.578125 0)"/>
     <use xlink:href="#DejaVuSans-57" transform="translate(1959.109375 0)"/>
     <use xlink:href="#DejaVuSans-57" transform="translate(1998.3125 0)"/>
     <use xlink:href="#DejaVuSans-48" transform="translate(2037.515625 0)"/>
     <use xlink:href="#DejaVuSans-55" transform="translate(2099.046875 0)"/>
    </g>
    <!-- *post-hoc replay; pre-registered live validation in benchmarks/2026-07-queue-cutover -->
    <g transform="translate(29.703906 27.802148) scale(0.1 -0.1)">
     <defs>
      <path id="DejaVuSans-5c" d="M 2059 -325 
Q 1816 -950 1584 -1140 
Q 1353 -1331 966 -1331 
L 506 -1331 
L 506 -850 
L 844 -850 
Q 1081 -850 1212 -737 
Q 1344 -625 1503 -206 
L 1606 56 
L 191 3500 
L 800 3500 
L 1894 763 
L 2988 3500 
L 3597 3500 
L 2059 -325 
z
" transform="scale(0.015625)"/>
      <path id="DejaVuSans-1e" d="M 750 3309 
L 1409 3309 
L 1409 2516 
L 750 2516 
L 750 3309 
z
M 750 794 
L 1409 794 
L 1409 256 
L 897 -744 
L 494 -744 
L 750 256 
L 750 794 
z
" transform="scale(0.015625)"/>
      <path id="DejaVuSans-4e" d="M 581 4863 
L 1159 4863 
L 1159 1991 
L 2875 3500 
L 3609 3500 
L 1753 1863 
L 3688 0 
L 2938 0 
L 1159 1709 
L 1159 0 
L 581 0 
L 581 4863 
z
" transform="scale(0.015625)"/>
      <path id="DejaVuSans-1a" d="M 525 4666 
L 3525 4666 
L 3525 4397 
L 1831 0 
L 1172 0 
L 2766 4134 
L 525 4134 
L 525 4666 
z
" transform="scale(0.015625)"/>
     </defs>
     <use xlink:href="#DejaVuSans-d"/>
     <use xlink:href="#DejaVuSans-53" transform="translate(50 0)"/>
     <use xlink:href="#DejaVuSans-52" transform="translate(113.484375 0)"/>
     <use xlink:href="#DejaVuSans-56" transform="translate(174.671875 0)"/>
     <use xlink:href="#DejaVuSans-57" transform="translate(226.765625 0)"/>
     <use xlink:href="#DejaVuSans-10" transform="translate(265.96875 0)"/>
     <use xlink:href="#DejaVuSans-4b" transform="translate(302.046875 0)"/>
     <use xlink:href="#DejaVuSans-52" transform="translate(365.421875 0)"/>
     <use xlink:href="#DejaVuSans-46" transform="translate(426.609375 0)"/>
     <use xlink:href="#DejaVuSans-3" transform="translate(481.59375 0)"/>
     <use xlink:href="#DejaVuSans-55" transform="translate(513.375 0)"/>
     <use xlink:href="#DejaVuSans-48" transform="translate(552.28125 0)"/>
     <use xlink:href="#DejaVuSans-53" transform="translate(613.8125 0)"/>
     <use xlink:href="#DejaVuSans-4f" transform="translate(677.296875 0)"/>
     <use xlink:href="#DejaVuSans-44" transform="translate(705.078125 0)"/>
     <use xlink:href="#DejaVuSans-5c" transform="translate(766.359375 0)"/>
     <use xlink:href="#DejaVuSans-1e" transform="translate(825.546875 0)"/>
     <use xlink:href="#DejaVuSans-3" transform="translate(859.234375 0)"/>
     <use xlink:href="#DejaVuSans-53" transform="translate(891.015625 0)"/>
     <use xlink:href="#DejaVuSans-55" transform="translate(954.5 0)"/>
     <use xlink:href="#DejaVuSans-48" transform="translate(993.40625 0)"/>
     <use xlink:href="#DejaVuSans-10" transform="translate(1054.9375 0)"/>
     <use xlink:href="#DejaVuSans-55" transform="translate(1091.015625 0)"/>
     <use xlink:href="#DejaVuSans-48" transform="translate(1129.921875 0)"/>
     <use xlink:href="#DejaVuSans-4a" transform="translate(1191.453125 0)"/>
     <use xlink:href="#DejaVuSans-4c" transform="translate(1254.9375 0)"/>
     <use xlink:href="#DejaVuSans-56" transform="translate(1282.71875 0)"/>
     <use xlink:href="#DejaVuSans-57" transform="translate(1334.8125 0)"/>
     <use xlink:href="#DejaVuSans-48" transform="translate(1374.015625 0)"/>
     <use xlink:href="#DejaVuSans-55" transform="translate(1435.546875 0)"/>
     <use xlink:href="#DejaVuSans-48" transform="translate(1474.453125 0)"/>
     <use xlink:href="#DejaVuSans-47" transform="translate(1535.984375 0)"/>
     <use xlink:href="#DejaVuSans-3" transform="translate(1599.46875 0)"/>
     <use xlink:href="#DejaVuSans-4f" transform="translate(1631.25 0)"/>
     <use xlink:href="#DejaVuSans-4c" transform="translate(1659.03125 0)"/>
     <use xlink:href="#DejaVuSans-59" transform="translate(1686.8125 0)"/>
     <use xlink:href="#DejaVuSans-48" transform="translate(1746 0)"/>
     <use xlink:href="#DejaVuSans-3" transform="translate(1807.53125 0)"/>
     <use xlink:href="#DejaVuSans-59" transform="translate(1839.3125 0)"/>
     <use xlink:href="#DejaVuSans-44" transform="translate(1898.5 0)"/>
     <use xlink:href="#DejaVuSans-4f" transform="translate(1959.78125 0)"/>
     <use xlink:href="#DejaVuSans-4c" transform="translate(1987.5625 0)"/>
     <use xlink:href="#DejaVuSans-47" transform="translate(2015.34375 0)"/>
     <use xlink:href="#DejaVuSans-44" transform="translate(2078.828125 0)"/>
     <use xlink:href="#DejaVuSans-57" transform="translate(2140.109375 0)"/>
     <use xlink:href="#DejaVuSans-4c" transform="translate(2179.3125 0)"/>
     <use xlink:href="#DejaVuSans-52" transform="translate(2207.09375 0)"/>
     <use xlink:href="#DejaVuSans-51" transform="translate(2268.28125 0)"/>
     <use xlink:href="#DejaVuSans-3" transform="translate(2331.65625 0)"/>
     <use xlink:href="#DejaVuSans-4c" transform="translate(2363.4375 0)"/>
     <use xlink:href="#DejaVuSans-51" transform="translate(2391.21875 0)"/>
     <use xlink:href="#DejaVuSans-3" transform="translate(2454.59375 0)"/>
     <use xlink:href="#DejaVuSans-45" transform="translate(2486.375 0)"/>
     <use xlink:href="#DejaVuSans-48" transform="translate(2549.859375 0)"/>
     <use xlink:href="#DejaVuSans-51" transform="translate(2611.390625 0)"/>
     <use xlink:href="#DejaVuSans-46" transform="translate(2674.765625 0)"/>
     <use xlink:href="#DejaVuSans-4b" transform="translate(2729.75 0)"/>
     <use xlink:href="#DejaVuSans-50" transform="translate(2793.125 0)"/>
     <use xlink:href="#DejaVuSans-44" transform="translate(2890.53125 0)"/>
     <use xlink:href="#DejaVuSans-55" transform="translate(2951.8125 0)"/>
     <use xlink:href="#DejaVuSans-4e" transform="translate(2992.921875 0)"/>
     <use xlink:href="#DejaVuSans-56" transform="translate(3050.828125 0)"/>
     <use xlink:href="#DejaVuSans-12" transform="translate(3102.921875 0)"/>
     <use xlink:href="#DejaVuSans-15" transform="translate(3136.609375 0)"/>
     <use xlink:href="#DejaVuSans-13" transform="translate(3200.234375 0)"/>
     <use xlink:href="#DejaVuSans-15" transform="translate(3263.859375 0)"/>
     <use xlink:href="#DejaVuSans-19" transform="translate(3327.484375 0)"/>
     <use xlink:href="#DejaVuSans-10" transform="translate(3391.109375 0)"/>
     <use xlink:href="#DejaVuSans-13" transform="translate(3427.1875 0)"/>
     <use xlink:href="#DejaVuSans-1a" transform="translate(3490.8125 0)"/>
     <use xlink:href="#DejaVuSans-10" transform="translate(3554.4375 0)"/>
     <use xlink:href="#DejaVuSans-54" transform="translate(3590.515625 0)"/>
     <use xlink:href="#DejaVuSans-58" transform="translate(3654 0)"/>
     <use xlink:href="#DejaVuSans-48" transform="translate(3717.375 0)"/>
     <use xlink:href="#DejaVuSans-58" transform="translate(3778.90625 0)"/>
     <use xlink:href="#DejaVuSans-48" transform="translate(3842.28125 0)"/>
     <use xlink:href="#DejaVuSans-10" transform="translate(3903.8125 0)"/>
     <use xlink:href="#DejaVuSans-46" transform="translate(3939.890625 0)"/>
     <use xlink:href="#DejaVuSans-58" transform="translate(3994.875 0)"/>
     <use xlink:href="#DejaVuSans-57" transform="translate(4058.25 0)"/>
     <use xlink:href="#DejaVuSans-52" transform="translate(4097.453125 0)"/>
     <use xlink:href="#DejaVuSans-59" transform="translate(4158.640625 0)"/>
     <use xlink:href="#DejaVuSans-48" transform="translate(4217.828125 0)"/>
     <use xlink:href="#DejaVuSans-55" transform="translate(4279.359375 0)"/>
    </g>
   </g>
  </g>
 </g>
 <defs>
  <clipPath id="pa712e5b754">
   <rect x="50.427344" y="33.802148" width="390.6" height="255.024"/>
  </clipPath>
 </defs>
</svg>
