<?xml version="1.0" encoding="utf-8" standalone="no"?>
<!DOCTYPE svg PUBLIC "-//W3C//DTD SVG 1.1//EN"
  "http://www.w3.org/Graphics/SVG/1.1/DTD/svg11.dtd">
<svg xmlns:xlink="http://www.w3.org/1999/xlink" width="592.685301pt" height="474.070341pt" viewBox="0 0 592.685301 474.070341" xmlns="http://www.w3.org/2000/svg" version="1.1">
 <metadata>
  <rdf:RDF xmlns:dc="http://purl.org/dc/elements/1.1/" xmlns:cc="http://creativecommons.org/ns#" xmlns:rdf="http://www.w3.org/1999/02/22-rdf-syntax-ns#">
   <cc:Work>
    <dc:type rdf:resource="http://purl.org/dc/dcmitype/StillImage"/>
    <dc:date>2026-07-12T19:05:15.191108</dc:date>
    <dc:format>image/svg+xml</dc:format>
    <dc:creator>
     <cc:Agent>
      <dc:title>Matplotlib v3.11.0, https://matplotlib.org/</dc:title>
     </cc:Agent>
    </dc:creator>
   </cc:Work>
  </rdf:RDF>
 </metadata>
 <defs>
  <style type="text/css">*{stroke-linejoin: round; stroke-linecap: butt}</style>
 </defs>
 <g id="figure_1">
  <g id="patch_1">
   <path d="M 0 474.070341 
L 592.685301 474.070341 
L 592.685301 0 
L 0 0 
z
" style="fill: #ffffff"/>
  </g>
  <g id="axes_1">
   <g id="patch_2">
    <path d="M 125.203937 435.869559 
L 526.963938 435.869559 
L 526.963938 21.178359 
L 125.203937 21.178359 
z
" style="fill: #ffffff"/>
   </g>
   <g id="patch_3">
    <path d="M 125.203937 57.189122 
L 138.565839 57.189122 
L 138.565839 40.027959 
L 125.203937 40.027959 
z
" clip-path="url(#pc234ad84d9)" style="fill: #5a189a; opacity: 0.35"/>
   </g>
   <g id="patch_4">
    <path d="M 125.203937 57.189122 
L 135.913816 57.189122 
L 135.913816 40.027959 
L 125.203937 40.027959 
z
" clip-path="url(#pc234ad84d9)" style="fill: #5a189a"/>
   </g>
   <g id="patch_5">
    <path d="M 125.203937 84.868418 
L 138.687339 84.868418 
L 138.687339 67.707255 
L 125.203937 67.707255 
z
" clip-path="url(#pc234ad84d9)" style="fill: #5a189a; opacity: 0.35"/>
   </g>
   <g id="patch_6">
    <path d="M 125.203937 84.868418 
L 136.010862 84.868418 
L 136.010862 67.707255 
L 125.203937 67.707255 
z
" clip-path="url(#pc234ad84d9)" style="fill: #5a189a"/>
   </g>
   <g id="patch_7">
    <path d="M 125.203937 112.547713 
L 137.769305 112.547713 
L 137.769305 95.38655 
L 125.203937 95.38655 
z
" clip-path="url(#pc234ad84d9)" style="fill: #5a189a; opacity: 0.35"/>
   </g>
   <g id="patch_8">
    <path d="M 125.203937 112.547713 
L 135.39325 112.547713 
L 135.39325 95.38655 
L 125.203937 95.38655 
z
" clip-path="url(#pc234ad84d9)" style="fill: #5a189a"/>
   </g>
   <g id="patch_9">
    <path d="M 125.203937 140.227008 
L 138.285941 140.227008 
L 138.285941 123.065845 
L 125.203937 123.065845 
z
" clip-path="url(#pc234ad84d9)" style="fill: #5a189a; opacity: 0.35"/>
   </g>
   <g id="patch_10">
    <path d="M 125.203937 140.227008 
L 135.777091 140.227008 
L 135.777091 123.065845 
L 125.203937 123.065845 
z
" clip-path="url(#pc234ad84d9)" style="fill: #5a189a"/>
   </g>
   <g id="patch_11">
    <path d="M 125.203937 167.906303 
L 138.243322 167.906303 
L 138.243322 150.74514 
L 125.203937 150.74514 
z
" clip-path="url(#pc234ad84d9)" style="fill: #5a189a; opacity: 0.35"/>
   </g>
   <g id="patch_12">
    <path d="M 125.203937 167.906303 
L 135.5562 167.906303 
L 135.5562 150.74514 
L 125.203937 150.74514 
z
" clip-path="url(#pc234ad84d9)" style="fill: #5a189a"/>
   </g>
   <g id="patch_13">
    <path d="M 125.203937 195.585598 
L 137.843004 195.585598 
L 137.843004 178.424435 
L 125.203937 178.424435 
z
" clip-path="url(#pc234ad84d9)" style="fill: #5a189a; opacity: 0.35"/>
   </g>
   <g id="patch_14">
    <path d="M 125.203937 195.585598 
L 135.715868 195.585598 
L 135.715868 178.424435 
L 125.203937 178.424435 
z
" clip-path="url(#pc234ad84d9)" style="fill: #5a189a"/>
   </g>
   <g id="patch_15">
    <path d="M 125.203937 223.264893 
L 261.897099 223.264893 
L 261.897099 206.10373 
L 125.203937 206.10373 
z
" clip-path="url(#pc234ad84d9)" style="fill: #2a9d8f"/>
   </g>
   <g id="patch_16">
    <path d="M 125.203937 250.944188 
L 184.737028 250.944188 
L 184.737028 233.783025 
L 125.203937 233.783025 
z
" clip-path="url(#pc234ad84d9)" style="fill: #2a9d8f"/>
   </g>
   <g id="patch_17">
    <path d="M 125.203937 278.623484 
L 475.551734 278.623484 
L 475.551734 261.462321 
L 125.203937 261.462321 
z
" clip-path="url(#pc234ad84d9)" style="fill: #2a9d8f; opacity: 0.35"/>
   </g>
   <g id="patch_18">
    <path d="M 125.203937 278.623484 
L 171.342627 278.623484 
L 171.342627 261.462321 
L 125.203937 261.462321 
z
" clip-path="url(#pc234ad84d9)" style="fill: #2a9d8f"/>
   </g>
   <g id="patch_19">
    <path d="M 125.203937 306.302779 
L 507.832509 306.302779 
L 507.832509 289.141616 
L 125.203937 289.141616 
z
" clip-path="url(#pc234ad84d9)" style="fill: #2a9d8f; opacity: 0.35"/>
   </g>
   <g id="patch_20">
    <path d="M 125.203937 306.302779 
L 220.522149 306.302779 
L 220.522149 289.141616 
L 125.203937 289.141616 
z
" clip-path="url(#pc234ad84d9)" style="fill: #2a9d8f"/>
   </g>
   <g id="patch_21">
    <path d="M 125.203937 333.982074 
L 136.084224 333.982074 
L 136.084224 316.820911 
L 125.203937 316.820911 
z
" clip-path="url(#pc234ad84d9)" style="fill: #1d3557; opacity: 0.35"/>
   </g>
   <g id="patch_22">
    <path d="M 125.203937 333.982074 
L 136.084224 333.982074 
L 136.084224 316.820911 
L 125.203937 316.820911 
z
" clip-path="url(#pc234ad84d9)" style="fill: #1d3557"/>
   </g>
   <g id="patch_23">
    <path d="M 125.203937 361.661369 
L 135.960368 361.661369 
L 135.960368 344.500206 
L 125.203937 344.500206 
z
" clip-path="url(#pc234ad84d9)" style="fill: #1d3557; opacity: 0.35"/>
   </g>
   <g id="patch_24">
    <path d="M 125.203937 361.661369 
L 135.960368 361.661369 
L 135.960368 344.500206 
L 125.203937 344.500206 
z
" clip-path="url(#pc234ad84d9)" style="fill: #1d3557"/>
   </g>
   <g id="patch_25">
    <path d="M 125.203937 389.340664 
L 136.087901 389.340664 
L 136.087901 372.179501 
L 125.203937 372.179501 
z
" clip-path="url(#pc234ad84d9)" style="fill: #1d3557; opacity: 0.35"/>
   </g>
   <g id="patch_26">
    <path d="M 125.203937 389.340664 
L 136.087901 389.340664 
L 136.087901 372.179501 
L 125.203937 372.179501 
z
" clip-path="url(#pc234ad84d9)" style="fill: #1d3557"/>
   </g>
   <g id="patch_27">
    <path d="M 125.203937 417.019959 
L 138.275194 417.019959 
L 138.275194 399.858796 
L 125.203937 399.858796 
z
" clip-path="url(#pc234ad84d9)" style="fill: #1d3557; opacity: 0.35"/>
   </g>
   <g id="patch_28">
    <path d="M 125.203937 417.019959 
L 138.275194 417.019959 
L 138.275194 399.858796 
L 125.203937 399.858796 
z
" clip-path="url(#pc234ad84d9)" style="fill: #1d3557"/>
   </g>
   <g id="matplotlib.axis_1">
    <g id="xtick_1">
     <g id="line2d_1">
      <defs>
       <path id="m999cd607f8" d="M 0 0 
L 0 3.5 
" style="stroke: #000000; stroke-width: 0.8"/>
      </defs>
      <g>
       <use xlink:href="#m999cd607f8" x="125.203937" y="435.869559" style="stroke: #000000; stroke-width: 0.8"/>
      </g>
     </g>
     <g id="text_1">
      <!-- 0 -->
      <g transform="translate(122.022687 450.467216) scale(0.1 -0.1)">
       <defs>
        <path id="DejaVuSans-13" d="M 2034 4250 
Q 1547 4250 1301 3770 
Q 1056 3291 1056 2328 
Q 1056 1369 1301 889 
Q 1547 409 2034 409 
Q 2525 409 2770 889 
Q 3016 1369 3016 2328 
Q 3016 3291 2770 3770 
Q 2525 4250 2034 4250 
z
M 2034 4750 
Q 2819 4750 3233 4129 
Q 3647 3509 3647 2328 
Q 3647 1150 3233 529 
Q 2819 -91 2034 -91 
Q 1250 -91 836 529 
Q 422 1150 422 2328 
Q 422 3509 836 4129 
Q 1250 4750 2034 4750 
z
" transform="scale(0.015625)"/>
       </defs>
       <use xlink:href="#DejaVuSans-13"/>
      </g>
     </g>
    </g>
    <g id="xtick_2">
     <g id="line2d_2">
      <g>
       <use xlink:href="#m999cd607f8" x="206.792606" y="435.869559" style="stroke: #000000; stroke-width: 0.8"/>
      </g>
     </g>
     <g id="text_2">
      <!-- 2000 -->
      <g transform="translate(194.067606 450.467216) scale(0.1 -0.1)">
       <defs>
        <path id="DejaVuSans-15" d="M 1228 531 
L 3431 531 
L 3431 0 
L 469 0 
L 469 531 
Q 828 903 1448 1529 
Q 2069 2156 2228 2338 
Q 2531 2678 2651 2914 
Q 2772 3150 2772 3378 
Q 2772 3750 2511 3984 
Q 2250 4219 1831 4219 
Q 1534 4219 1204 4116 
Q 875 4013 500 3803 
L 500 4441 
Q 881 4594 1212 4672 
Q 1544 4750 1819 4750 
Q 2544 4750 2975 4387 
Q 3406 4025 3406 3419 
Q 3406 3131 3298 2873 
Q 3191 2616 2906 2266 
Q 2828 2175 2409 1742 
Q 1991 1309 1228 531 
z
" transform="scale(0.015625)"/>
       </defs>
       <use xlink:href="#DejaVuSans-15"/>
       <use xlink:href="#DejaVuSans-13" transform="translate(63.625 0)"/>
       <use xlink:href="#DejaVuSans-13" transform="translate(127.25 0)"/>
       <use xlink:href="#DejaVuSans-13" transform="translate(190.875 0)"/>
      </g>
     </g>
    </g>
    <g id="xtick_3">
     <g id="line2d_3">
      <g>
       <use xlink:href="#m999cd607f8" x="288.381275" y="435.869559" style="stroke: #000000; stroke-width: 0.8"/>
      </g>
     </g>
     <g id="text_3">
      <!-- 4000 -->
      <g transform="translate(275.656275 450.467216) scale(0.1 -0.1)">
       <defs>
        <path id="DejaVuSans-17" d="M 2419 4116 
L 825 1625 
L 2419 1625 
L 2419 4116 
z
M 2253 4666 
L 3047 4666 
L 3047 1625 
L 3713 1625 
L 3713 1100 
L 3047 1100 
L 3047 0 
L 2419 0 
L 2419 1100 
L 313 1100 
L 313 1709 
L 2253 4666 
z
" transform="scale(0.015625)"/>
       </defs>
       <use xlink:href="#DejaVuSans-17"/>
       <use xlink:href="#DejaVuSans-13" transform="translate(63.625 0)"/>
       <use xlink:href="#DejaVuSans-13" transform="translate(127.25 0)"/>
       <use xlink:href="#DejaVuSans-13" transform="translate(190.875 0)"/>
      </g>
     </g>
    </g>
    <g id="xtick_4">
     <g id="line2d_4">
      <g>
       <use xlink:href="#m999cd607f8" x="369.969944" y="435.869559" style="stroke: #000000; stroke-width: 0.8"/>
      </g>
     </g>
     <g id="text_4">
      <!-- 6000 -->
      <g transform="translate(357.244944 450.467216) scale(0.1 -0.1)">
       <defs>
        <path id="DejaVuSans-19" d="M 2113 2584 
Q 1688 2584 1439 2293 
Q 1191 2003 1191 1497 
Q 1191 994 1439 701 
Q 1688 409 2113 409 
Q 2538 409 2786 701 
Q 3034 994 3034 1497 
Q 3034 2003 2786 2293 
Q 2538 2584 2113 2584 
z
M 3366 4563 
L 3366 3988 
Q 3128 4100 2886 4159 
Q 2644 4219 2406 4219 
Q 1781 4219 1451 3797 
Q 1122 3375 1075 2522 
Q 1259 2794 1537 2939 
Q 1816 3084 2150 3084 
Q 2853 3084 3261 2657 
Q 3669 2231 3669 1497 
Q 3669 778 3244 343 
Q 2819 -91 2113 -91 
Q 1303 -91 875 529 
Q 447 1150 447 2328 
Q 447 3434 972 4092 
Q 1497 4750 2381 4750 
Q 2619 4750 2861 4703 
Q 3103 4656 3366 4563 
z
" transform="scale(0.015625)"/>
       </defs>
       <use xlink:href="#DejaVuSans-19"/>
       <use xlink:href="#DejaVuSans-13" transform="translate(63.625 0)"/>
       <use xlink:href="#DejaVuSans-13" transform="translate(127.25 0)"/>
       <use xlink:href="#DejaVuSans-13" transform="translate(190.875 0)"/>
      </g>
     </g>
    </g>
    <g id="xtick_5">
     <g id="line2d_5">
      <g>
       <use xlink:href="#m999cd607f8" x="451.558613" y="435.869559" style="stroke: #000000; stroke-width: 0.8"/>
      </g>
     </g>
     <g id="text_5">
      <!-- 8000 -->
      <g transform="translate(438.833613 450.467216) scale(0.1 -0.1)">
       <defs>
        <path id="DejaVuSans-1b" d="M 2034 2216 
Q 1584 2216 1326 1975 
Q 1069 1734 1069 1313 
Q 1069 891 1326 650 
Q 1584 409 2034 409 
Q 2484 409 2743 651 
Q 3003 894 3003 1313 
Q 3003 1734 2745 1975 
Q 2488 2216 2034 2216 
z
M 1403 2484 
Q 997 2584 770 2862 
Q 544 3141 544 3541 
Q 544 4100 942 4425 
Q 1341 4750 2034 4750 
Q 2731 4750 3128 4425 
Q 3525 4100 3525 3541 
Q 3525 3141 3298 2862 
Q 3072 2584 2669 2484 
Q 3125 2378 3379 2068 
Q 3634 1759 3634 1313 
Q 3634 634 3220 271 
Q 2806 -91 2034 -91 
Q 1263 -91 848 271 
Q 434 634 434 1313 
Q 434 1759 690 2068 
Q 947 2378 1403 2484 
z
M 1172 3481 
Q 1172 3119 1398 2916 
Q 1625 2713 2034 2713 
Q 2441 2713 2670 2916 
Q 2900 3119 2900 3481 
Q 2900 3844 2670 4047 
Q 2441 4250 2034 4250 
Q 1625 4250 1398 4047 
Q 1172 3844 1172 3481 
z
" transform="scale(0.015625)"/>
       </defs>
       <use xlink:href="#DejaVuSans-1b"/>
       <use xlink:href="#DejaVuSans-13" transform="translate(63.625 0)"/>
       <use xlink:href="#DejaVuSans-13" transform="translate(127.25 0)"/>
       <use xlink:href="#DejaVuSans-13" transform="translate(190.875 0)"/>
      </g>
     </g>
    </g>
    <g id="text_6">
     <!-- ms after cancel sent  (solid = provider ack, faded = confirmed terminal) -->
     <g transform="translate(145.324563 464.467997) scale(0.1 -0.1)">
      <defs>
       <path id="DejaVuSans-50" d="M 3328 2828 
Q 3544 3216 3844 3400 
Q 4144 3584 4550 3584 
Q 5097 3584 5394 3201 
Q 5691 2819 5691 2113 
L 5691 0 
L 5113 0 
L 5113 2094 
Q 5113 2597 4934 2840 
Q 4756 3084 4391 3084 
Q 3944 3084 3684 2787 
Q 3425 2491 3425 1978 
L 3425 0 
L 2847 0 
L 2847 2094 
Q 2847 2600 2669 2842 
Q 2491 3084 2119 3084 
Q 1678 3084 1418 2786 
Q 1159 2488 1159 1978 
L 1159 0 
L 581 0 
L 581 3500 
L 1159 3500 
L 1159 2956 
Q 1356 3278 1631 3431 
Q 1906 3584 2284 3584 
Q 2666 3584 2933 3390 
Q 3200 3197 3328 2828 
z
" transform="scale(0.015625)"/>
       <path id="DejaVuSans-56" d="M 2834 3397 
L 2834 2853 
Q 2591 2978 2328 3040 
Q 2066 3103 1784 3103 
Q 1356 3103 1142 2972 
Q 928 2841 928 2578 
Q 928 2378 1081 2264 
Q 1234 2150 1697 2047 
L 1894 2003 
Q 2506 1872 2764 1633 
Q 3022 1394 3022 966 
Q 3022 478 2636 193 
Q 2250 -91 1575 -91 
Q 1294 -91 989 -36 
Q 684 19 347 128 
L 347 722 
Q 666 556 975 473 
Q 1284 391 1588 391 
Q 1994 391 2212 530 
Q 2431 669 2431 922 
Q 2431 1156 2273 1281 
Q 2116 1406 1581 1522 
L 1381 1569 
Q 847 1681 609 1914 
Q 372 2147 372 2553 
Q 372 3047 722 3315 
Q 1072 3584 1716 3584 
Q 2034 3584 2315 3537 
Q 2597 3491 2834 3397 
z
" transform="scale(0.015625)"/>
       <path id="DejaVuSans-3" transform="scale(0.015625)"/>
       <path id="DejaVuSans-44" d="M 2194 1759 
Q 1497 1759 1228 1600 
Q 959 1441 959 1056 
Q 959 750 1161 570 
Q 1363 391 1709 391 
Q 2188 391 2477 730 
Q 2766 1069 2766 1631 
L 2766 1759 
L 2194 1759 
z
M 3341 1997 
L 3341 0 
L 2766 0 
L 2766 531 
Q 2569 213 2275 61 
Q 1981 -91 1556 -91 
Q 1019 -91 701 211 
Q 384 513 384 1019 
Q 384 1609 779 1909 
Q 1175 2209 1959 2209 
L 2766 2209 
L 2766 2266 
Q 2766 2663 2505 2880 
Q 2244 3097 1772 3097 
Q 1472 3097 1187 3025 
Q 903 2953 641 2809 
L 641 3341 
Q 956 3463 1253 3523 
Q 1550 3584 1831 3584 
Q 2591 3584 2966 3190 
Q 3341 2797 3341 1997 
z
" transform="scale(0.015625)"/>
       <path id="DejaVuSans-49" d="M 2375 4863 
L 2375 4384 
L 1825 4384 
Q 1516 4384 1395 4259 
Q 1275 4134 1275 3809 
L 1275 3500 
L 2222 3500 
L 2222 3053 
L 1275 3053 
L 1275 0 
L 697 0 
L 697 3053 
L 147 3053 
L 147 3500 
L 697 3500 
L 697 3744 
Q 697 4328 969 4595 
Q 1241 4863 1831 4863 
L 2375 4863 
z
" transform="scale(0.015625)"/>
       <path id="DejaVuSans-57" d="M 1172 4494 
L 1172 3500 
L 2356 3500 
L 2356 3053 
L 1172 3053 
L 1172 1153 
Q 1172 725 1289 603 
Q 1406 481 1766 481 
L 2356 481 
L 2356 0 
L 1766 0 
Q 1100 0 847 248 
Q 594 497 594 1153 
L 594 3053 
L 172 3053 
L 172 3500 
L 594 3500 
L 594 4494 
L 1172 4494 
z
" transform="scale(0.015625)"/>
       <path id="DejaVuSans-48" d="M 3597 1894 
L 3597 1613 
L 953 1613 
Q 991 1019 1311 708 
Q 1631 397 2203 397 
Q 2534 397 2845 478 
Q 3156 559 3463 722 
L 3463 178 
Q 3153 47 2828 -22 
Q 2503 -91 2169 -91 
Q 1331 -91 842 396 
Q 353 884 353 1716 
Q 353 2575 817 3079 
Q 1281 3584 2069 3584 
Q 2775 3584 3186 3129 
Q 3597 2675 3597 1894 
z
M 3022 2063 
Q 3016 2534 2758 2815 
Q 2500 3097 2075 3097 
Q 1594 3097 1305 2825 
Q 1016 2553 972 2059 
L 3022 2063 
z
" transform="scale(0.015625)"/>
       <path id="DejaVuSans-55" d="M 2631 2963 
Q 2534 3019 2420 3045 
Q 2306 3072 2169 3072 
Q 1681 3072 1420 2755 
Q 1159 2438 1159 1844 
L 1159 0 
L 581 0 
L 581 3500 
L 1159 3500 
L 1159 2956 
Q 1341 3275 1631 3429 
Q 1922 3584 2338 3584 
Q 2397 3584 2469 3576 
Q 2541 3569 2628 3553 
L 2631 2963 
z
" transform="scale(0.015625)"/>
       <path id="DejaVuSans-46" d="M 3122 3366 
L 3122 2828 
Q 2878 2963 2633 3030 
Q 2388 3097 2138 3097 
Q 1578 3097 1268 2742 
Q 959 2388 959 1747 
Q 959 1106 1268 751 
Q 1578 397 2138 397 
Q 2388 397 2633 464 
Q 2878 531 3122 666 
L 3122 134 
Q 2881 22 2623 -34 
Q 2366 -91 2075 -91 
Q 1284 -91 818 406 
Q 353 903 353 1747 
Q 353 2603 823 3093 
Q 1294 3584 2113 3584 
Q 2378 3584 2631 3529 
Q 2884 3475 3122 3366 
z
" transform="scale(0.015625)"/>
       <path id="DejaVuSans-51" d="M 3513 2113 
L 3513 0 
L 2938 0 
L 2938 2094 
Q 2938 2591 2744 2837 
Q 2550 3084 2163 3084 
Q 1697 3084 1428 2787 
Q 1159 2491 1159 1978 
L 1159 0 
L 581 0 
L 581 3500 
L 1159 3500 
L 1159 2956 
Q 1366 3272 1645 3428 
Q 1925 3584 2291 3584 
Q 2894 3584 3203 3211 
Q 3513 2838 3513 2113 
z
" transform="scale(0.015625)"/>
       <path id="DejaVuSans-4f" d="M 603 4863 
L 1178 4863 
L 1178 0 
L 603 0 
L 603 4863 
z
" transform="scale(0.015625)"/>
       <path id="DejaVuSans-b" d="M 1984 4856 
Q 1566 4138 1362 3434 
Q 1159 2731 1159 2009 
Q 1159 1288 1364 580 
Q 1569 -128 1984 -844 
L 1484 -844 
Q 1016 -109 783 600 
Q 550 1309 550 2009 
Q 550 2706 781 3412 
Q 1013 4119 1484 4856 
L 1984 4856 
z
" transform="scale(0.015625)"/>
       <path id="DejaVuSans-52" d="M 1959 3097 
Q 1497 3097 1228 2736 
Q 959 2375 959 1747 
Q 959 1119 1226 758 
Q 1494 397 1959 397 
Q 2419 397 2687 759 
Q 2956 1122 2956 1747 
Q 2956 2369 2687 2733 
Q 2419 3097 1959 3097 
z
M 1959 3584 
Q 2709 3584 3137 3096 
Q 3566 2609 3566 1747 
Q 3566 888 3137 398 
Q 2709 -91 1959 -91 
Q 1206 -91 779 398 
Q 353 888 353 1747 
Q 353 2609 779 3096 
Q 1206 3584 1959 3584 
z
" transform="scale(0.015625)"/>
       <path id="DejaVuSans-4c" d="M 603 3500 
L 1178 3500 
L 1178 0 
L 603 0 
L 603 3500 
z
M 603 4863 
L 1178 4863 
L 1178 4134 
L 603 4134 
L 603 4863 
z
" transform="scale(0.015625)"/>
       <path id="DejaVuSans-47" d="M 2906 2969 
L 2906 4863 
L 3481 4863 
L 3481 0 
L 2906 0 
L 2906 525 
Q 2725 213 2448 61 
Q 2172 -91 1784 -91 
Q 1150 -91 751 415 
Q 353 922 353 1747 
Q 353 2572 751 3078 
Q 1150 3584 1784 3584 
Q 2172 3584 2448 3432 
Q 2725 3281 2906 2969 
z
M 947 1747 
Q 947 1113 1208 752 
Q 1469 391 1925 391 
Q 2381 391 2643 752 
Q 2906 1113 2906 1747 
Q 2906 2381 2643 2742 
Q 2381 3103 1925 3103 
Q 1469 3103 1208 2742 
Q 947 2381 947 1747 
z
" transform="scale(0.015625)"/>
       <path id="DejaVuSans-20" d="M 678 2906 
L 4684 2906 
L 4684 2381 
L 678 2381 
L 678 2906 
z
M 678 1631 
L 4684 1631 
L 4684 1100 
L 678 1100 
L 678 1631 
z
" transform="scale(0.015625)"/>
       <path id="DejaVuSans-53" d="M 1159 525 
L 1159 -1331 
L 581 -1331 
L 581 3500 
L 1159 3500 
L 1159 2969 
Q 1341 3281 1617 3432 
Q 1894 3584 2278 3584 
Q 2916 3584 3314 3078 
Q 3713 2572 3713 1747 
Q 3713 922 3314 415 
Q 2916 -91 2278 -91 
Q 1894 -91 1617 61 
Q 1341 213 1159 525 
z
M 3116 1747 
Q 3116 2381 2855 2742 
Q 2594 3103 2138 3103 
Q 1681 3103 1420 2742 
Q 1159 2381 1159 1747 
Q 1159 1113 1420 752 
Q 1681 391 2138 391 
Q 2594 391 2855 752 
Q 3116 1113 3116 1747 
z
" transform="scale(0.015625)"/>
       <path id="DejaVuSans-59" d="M 191 3500 
L 800 3500 
L 1894 563 
L 2988 3500 
L 3597 3500 
L 2284 0 
L 1503 0 
L 191 3500 
z
" transform="scale(0.015625)"/>
       <path id="DejaVuSans-4e" d="M 581 4863 
L 1159 4863 
L 1159 1991 
L 2875 3500 
L 3609 3500 
L 1753 1863 
L 3688 0 
L 2938 0 
L 1159 1709 
L 1159 0 
L 581 0 
L 581 4863 
z
" transform="scale(0.015625)"/>
       <path id="DejaVuSans-f" d="M 750 794 
L 1409 794 
L 1409 256 
L 897 -744 
L 494 -744 
L 750 256 
L 750 794 
z
" transform="scale(0.015625)"/>
       <path id="DejaVuSans-13af" d="M 3431 3500 
L 3431 0 
L 2853 0 
L 2853 3053 
L 1275 3053 
L 1275 0 
L 697 0 
L 697 3053 
L 147 3053 
L 147 3500 
L 697 3500 
L 697 3744 
Q 697 4316 967 4589 
Q 1238 4863 1797 4863 
L 2375 4863 
L 2375 4384 
L 1825 4384 
Q 1516 4384 1395 4259 
Q 1275 4134 1275 3809 
L 1275 3500 
L 3431 3500 
z
M 2853 4856 
L 3431 4856 
L 3431 4128 
L 2853 4128 
L 2853 4856 
z
" transform="scale(0.015625)"/>
       <path id="DejaVuSans-c" d="M 513 4856 
L 1013 4856 
Q 1481 4119 1714 3412 
Q 1947 2706 1947 2009 
Q 1947 1309 1714 600 
Q 1481 -109 1013 -844 
L 513 -844 
Q 928 -128 1133 580 
Q 1338 1288 1338 2009 
Q 1338 2731 1133 3434 
Q 928 4138 513 4856 
z
" transform="scale(0.015625)"/>
      </defs>
      <use xlink:href="#DejaVuSans-50"/>
      <use xlink:href="#DejaVuSans-56" transform="translate(97.40625 0)"/>
      <use xlink:href="#DejaVuSans-3" transform="translate(149.5 0)"/>
      <use xlink:href="#DejaVuSans-44" transform="translate(181.28125 0)"/>
      <use xlink:href="#DejaVuSans-49" transform="translate(242.5625 0)"/>
      <use xlink:href="#DejaVuSans-57" transform="translate(276.015625 0)"/>
      <use xlink:href="#DejaVuSans-48" transform="translate(315.21875 0)"/>
      <use xlink:href="#DejaVuSans-55" transform="translate(376.75 0)"/>
      <use xlink:href="#DejaVuSans-3" transform="translate(417.859375 0)"/>
      <use xlink:href="#DejaVuSans-46" transform="translate(449.640625 0)"/>
      <use xlink:href="#DejaVuSans-44" transform="translate(504.625 0)"/>
      <use xlink:href="#DejaVuSans-51" transform="translate(565.90625 0)"/>
      <use xlink:href="#DejaVuSans-46" transform="translate(629.28125 0)"/>
      <use xlink:href="#DejaVuSans-48" transform="translate(684.265625 0)"/>
      <use xlink:href="#DejaVuSans-4f" transform="translate(745.796875 0)"/>
      <use xlink:href="#DejaVuSans-3" transform="translate(773.578125 0)"/>
      <use xlink:href="#DejaVuSans-56" transform="translate(805.359375 0)"/>
      <use xlink:href="#DejaVuSans-48" transform="translate(857.453125 0)"/>
      <use xlink:href="#DejaVuSans-51" transform="translate(918.984375 0)"/>
      <use xlink:href="#DejaVuSans-57" transform="translate(982.359375 0)"/>
      <use xlink:href="#DejaVuSans-3" transform="translate(1021.5625 0)"/>
      <use xlink:href="#DejaVuSans-3" transform="translate(1053.34375 0)"/>
      <use xlink:href="#DejaVuSans-b" transform="translate(1085.125 0)"/>
      <use xlink:href="#DejaVuSans-56" transform="translate(1124.140625 0)"/>
      <use xlink:href="#DejaVuSans-52" transform="translate(1176.234375 0)"/>
      <use xlink:href="#DejaVuSans-4f" transform="translate(1237.421875 0)"/>
      <use xlink:href="#DejaVuSans-4c" transform="translate(1265.203125 0)"/>
      <use xlink:href="#DejaVuSans-47" transform="translate(1292.984375 0)"/>
      <use xlink:href="#DejaVuSans-3" transform="translate(1356.46875 0)"/>
      <use xlink:href="#DejaVuSans-20" transform="translate(1388.25 0)"/>
      <use xlink:href="#DejaVuSans-3" transform="translate(1472.046875 0)"/>
      <use xlink:href="#DejaVuSans-53" transform="translate(1503.828125 0)"/>
      <use xlink:href="#DejaVuSans-55" transform="translate(1567.3125 0)"/>
      <use xlink:href="#DejaVuSans-52" transform="translate(1606.21875 0)"/>
      <use xlink:href="#DejaVuSans-59" transform="translate(1667.40625 0)"/>
      <use xlink:href="#DejaVuSans-4c" transform="translate(1726.59375 0)"/>
      <use xlink:href="#DejaVuSans-47" transform="translate(1754.375 0)"/>
      <use xlink:href="#DejaVuSans-48" transform="translate(1817.859375 0)"/>
      <use xlink:href="#DejaVuSans-55" transform="translate(1879.390625 0)"/>
      <use xlink:href="#DejaVuSans-3" transform="translate(1920.5 0)"/>
      <use xlink:href="#DejaVuSans-44" transform="translate(1952.28125 0)"/>
      <use xlink:href="#DejaVuSans-46" transform="translate(2013.5625 0)"/>
      <use xlink:href="#DejaVuSans-4e" transform="translate(2068.546875 0)"/>
      <use xlink:href="#DejaVuSans-f" transform="translate(2126.453125 0)"/>
      <use xlink:href="#DejaVuSans-3" transform="translate(2158.234375 0)"/>
      <use xlink:href="#DejaVuSans-49" transform="translate(2190.015625 0)"/>
      <use xlink:href="#DejaVuSans-44" transform="translate(2225.21875 0)"/>
      <use xlink:href="#DejaVuSans-47" transform="translate(2286.5 0)"/>
      <use xlink:href="#DejaVuSans-48" transform="translate(2349.984375 0)"/>
      <use xlink:href="#DejaVuSans-47" transform="translate(2411.515625 0)"/>
      <use xlink:href="#DejaVuSans-3" transform="translate(2475 0)"/>
      <use xlink:href="#DejaVuSans-20" transform="translate(2506.78125 0)"/>
      <use xlink:href="#DejaVuSans-3" transform="translate(2590.578125 0)"/>
      <use xlink:href="#DejaVuSans-46" transform="translate(2622.359375 0)"/>
      <use xlink:href="#DejaVuSans-52" transform="translate(2677.34375 0)"/>
      <use xlink:href="#DejaVuSans-51" transform="translate(2738.53125 0)"/>
      <use xlink:href="#DejaVuSans-13af" transform="translate(2801.90625 0)"/>
      <use xlink:href="#DejaVuSans-55" transform="translate(2864.890625 0)"/>
      <use xlink:href="#DejaVuSans-50" transform="translate(2904.25 0)"/>
      <use xlink:href="#DejaVuSans-48" transform="translate(3001.65625 0)"/>
      <use xlink:href="#DejaVuSans-47" transform="translate(3063.1875 0)"/>
      <use xlink:href="#DejaVuSans-3" transform="translate(3126.671875 0)"/>
      <use xlink:href="#DejaVuSans-57" transform="translate(3158.453125 0)"/>
      <use xlink:href="#DejaVuSans-48" transform="translate(3197.65625 0)"/>
      <use xlink:href="#DejaVuSans-55" transform="translate(3259.1875 0)"/>
      <use xlink:href="#DejaVuSans-50" transform="translate(3298.546875 0)"/>
      <use xlink:href="#DejaVuSans-4c" transform="translate(3395.953125 0)"/>
      <use xlink:href="#DejaVuSans-51" transform="translate(3423.734375 0)"/>
      <use xlink:href="#DejaVuSans-44" transform="translate(3487.109375 0)"/>
      <use xlink:href="#DejaVuSans-4f" transform="translate(3548.390625 0)"/>
      <use xlink:href="#DejaVuSans-c" transform="translate(3576.171875 0)"/>
     </g>
    </g>
   </g>
   <g id="matplotlib.axis_2">
    <g id="ytick_1">
     <g id="line2d_6">
      <defs>
       <path id="m73aa8cb7a8" d="M 0 0 
L -3.5 0 
" style="stroke: #000000; stroke-width: 0.8"/>
      </defs>
      <g>
       <use xlink:href="#m73aa8cb7a8" x="125.203937" y="48.608541" style="stroke: #000000; stroke-width: 0.8"/>
      </g>
     </g>
     <g id="text_7">
      <!-- runpod (#54 hedged_reque) -->
      <g transform="translate(9.951437 51.495947) scale(0.076 -0.076)">
       <defs>
        <path id="DejaVuSans-58" d="M 544 1381 
L 544 3500 
L 1119 3500 
L 1119 1403 
Q 1119 906 1312 657 
Q 1506 409 1894 409 
Q 2359 409 2629 706 
Q 2900 1003 2900 1516 
L 2900 3500 
L 3475 3500 
L 3475 0 
L 2900 0 
L 2900 538 
Q 2691 219 2414 64 
Q 2138 -91 1772 -91 
Q 1169 -91 856 284 
Q 544 659 544 1381 
z
M 1991 3584 
L 1991 3584 
z
" transform="scale(0.015625)"/>
        <path id="DejaVuSans-6" d="M 3272 2816 
L 2363 2816 
L 2100 1772 
L 3016 1772 
L 3272 2816 
z
M 2803 4594 
L 2478 3297 
L 3391 3297 
L 3719 4594 
L 4219 4594 
L 3897 3297 
L 4872 3297 
L 4872 2816 
L 3775 2816 
L 3519 1772 
L 4513 1772 
L 4513 1294 
L 3397 1294 
L 3072 0 
L 2572 0 
L 2894 1294 
L 1978 1294 
L 1656 0 
L 1153 0 
L 1478 1294 
L 494 1294 
L 494 1772 
L 1594 1772 
L 1856 2816 
L 850 2816 
L 850 3297 
L 1978 3297 
L 2297 4594 
L 2803 4594 
z
" transform="scale(0.015625)"/>
        <path id="DejaVuSans-18" d="M 691 4666 
L 3169 4666 
L 3169 4134 
L 1269 4134 
L 1269 2991 
Q 1406 3038 1543 3061 
Q 1681 3084 1819 3084 
Q 2600 3084 3056 2656 
Q 3513 2228 3513 1497 
Q 3513 744 3044 326 
Q 2575 -91 1722 -91 
Q 1428 -91 1123 -41 
Q 819 9 494 109 
L 494 744 
Q 775 591 1075 516 
Q 1375 441 1709 441 
Q 2250 441 2565 725 
Q 2881 1009 2881 1497 
Q 2881 1984 2565 2268 
Q 2250 2553 1709 2553 
Q 1456 2553 1204 2497 
Q 953 2441 691 2322 
L 691 4666 
z
" transform="scale(0.015625)"/>
        <path id="DejaVuSans-4b" d="M 3513 2113 
L 3513 0 
L 2938 0 
L 2938 2094 
Q 2938 2591 2744 2837 
Q 2550 3084 2163 3084 
Q 1697 3084 1428 2787 
Q 1159 2491 1159 1978 
L 1159 0 
L 581 0 
L 581 4863 
L 1159 4863 
L 1159 2956 
Q 1366 3272 1645 3428 
Q 1925 3584 2291 3584 
Q 2894 3584 3203 3211 
Q 3513 2838 3513 2113 
z
" transform="scale(0.015625)"/>
        <path id="DejaVuSans-4a" d="M 2906 1791 
Q 2906 2416 2648 2759 
Q 2391 3103 1925 3103 
Q 1463 3103 1205 2759 
Q 947 2416 947 1791 
Q 947 1169 1205 825 
Q 1463 481 1925 481 
Q 2391 481 2648 825 
Q 2906 1169 2906 1791 
z
M 3481 434 
Q 3481 -459 3084 -895 
Q 2688 -1331 1869 -1331 
Q 1566 -1331 1297 -1286 
Q 1028 -1241 775 -1147 
L 775 -588 
Q 1028 -725 1275 -790 
Q 1522 -856 1778 -856 
Q 2344 -856 2625 -561 
Q 2906 -266 2906 331 
L 2906 616 
Q 2728 306 2450 153 
Q 2172 0 1784 0 
Q 1141 0 747 490 
Q 353 981 353 1791 
Q 353 2603 747 3093 
Q 1141 3584 1784 3584 
Q 2172 3584 2450 3431 
Q 2728 3278 2906 2969 
L 2906 3500 
L 3481 3500 
L 3481 434 
z
" transform="scale(0.015625)"/>
        <path id="DejaVuSans-42" d="M 3263 -1063 
L 3263 -1509 
L -63 -1509 
L -63 -1063 
L 3263 -1063 
z
" transform="scale(0.015625)"/>
        <path id="DejaVuSans-54" d="M 947 1747 
Q 947 1113 1208 752 
Q 1469 391 1925 391 
Q 2381 391 2643 752 
Q 2906 1113 2906 1747 
Q 2906 2381 2643 2742 
Q 2381 3103 1925 3103 
Q 1469 3103 1208 2742 
Q 947 2381 947 1747 
z
M 2906 525 
Q 2725 213 2448 61 
Q 2172 -91 1784 -91 
Q 1150 -91 751 415 
Q 353 922 353 1747 
Q 353 2572 751 3078 
Q 1150 3584 1784 3584 
Q 2172 3584 2448 3432 
Q 2725 3281 2906 2969 
L 2906 3500 
L 3481 3500 
L 3481 -1331 
L 2906 -1331 
L 2906 525 
z
" transform="scale(0.015625)"/>
       </defs>
       <use xlink:href="#DejaVuSans-55"/>
       <use xlink:href="#DejaVuSans-58" transform="translate(41.109375 0)"/>
       <use xlink:href="#DejaVuSans-51" transform="translate(104.484375 0)"/>
       <use xlink:href="#DejaVuSans-53" transform="translate(167.859375 0)"/>
       <use xlink:href="#DejaVuSans-52" transform="translate(231.34375 0)"/>
       <use xlink:href="#DejaVuSans-47" transform="translate(292.53125 0)"/>
       <use xlink:href="#DejaVuSans-3" transform="translate(356.015625 0)"/>
       <use xlink:href="#DejaVuSans-b" transform="translate(387.796875 0)"/>
       <use xlink:href="#DejaVuSans-6" transform="translate(426.8125 0)"/>
       <use xlink:href="#DejaVuSans-18" transform="translate(510.609375 0)"/>
       <use xlink:href="#DejaVuSans-17" transform="translate(574.234375 0)"/>
       <use xlink:href="#DejaVuSans-3" transform="translate(637.859375 0)"/>
       <use xlink:href="#DejaVuSans-4b" transform="translate(669.640625 0)"/>
       <use xlink:href="#DejaVuSans-48" transform="translate(733.015625 0)"/>
       <use xlink:href="#DejaVuSans-47" transform="translate(794.546875 0)"/>
       <use xlink:href="#DejaVuSans-4a" transform="translate(858.03125 0)"/>
       <use xlink:href="#DejaVuSans-48" transform="translate(921.515625 0)"/>
       <use xlink:href="#DejaVuSans-47" transform="translate(983.046875 0)"/>
       <use xlink:href="#DejaVuSans-42" transform="translate(1046.53125 0)"/>
       <use xlink:href="#DejaVuSans-55" transform="translate(1096.53125 0)"/>
       <use xlink:href="#DejaVuSans-48" transform="translate(1135.4375 0)"/>
       <use xlink:href="#DejaVuSans-54" transform="translate(1196.96875 0)"/>
       <use xlink:href="#DejaVuSans-58" transform="translate(1260.453125 0)"/>
       <use xlink:href="#DejaVuSans-48" transform="translate(1323.828125 0)"/>
       <use xlink:href="#DejaVuSans-c" transform="translate(1385.359375 0)"/>
      </g>
     </g>
    </g>
    <g id="ytick_2">
     <g id="line2d_7">
      <g>
       <use xlink:href="#m73aa8cb7a8" x="125.203937" y="76.287836" style="stroke: #000000; stroke-width: 0.8"/>
      </g>
     </g>
     <g id="text_8">
      <!-- runpod (#55 hedged_reque) -->
      <g transform="translate(9.951437 79.175242) scale(0.076 -0.076)">
       <use xlink:href="#DejaVuSans-55"/>
       <use xlink:href="#DejaVuSans-58" transform="translate(41.109375 0)"/>
       <use xlink:href="#DejaVuSans-51" transform="translate(104.484375 0)"/>
       <use xlink:href="#DejaVuSans-53" transform="translate(167.859375 0)"/>
       <use xlink:href="#DejaVuSans-52" transform="translate(231.34375 0)"/>
       <use xlink:href="#DejaVuSans-47" transform="translate(292.53125 0)"/>
       <use xlink:href="#DejaVuSans-3" transform="translate(356.015625 0)"/>
       <use xlink:href="#DejaVuSans-b" transform="translate(387.796875 0)"/>
       <use xlink:href="#DejaVuSans-6" transform="translate(426.8125 0)"/>
       <use xlink:href="#DejaVuSans-18" transform="translate(510.609375 0)"/>
       <use xlink:href="#DejaVuSans-18" transform="translate(574.234375 0)"/>
       <use xlink:href="#DejaVuSans-3" transform="translate(637.859375 0)"/>
       <use xlink:href="#DejaVuSans-4b" transform="translate(669.640625 0)"/>
       <use xlink:href="#DejaVuSans-48" transform="translate(733.015625 0)"/>
       <use xlink:href="#DejaVuSans-47" transform="translate(794.546875 0)"/>
       <use xlink:href="#DejaVuSans-4a" transform="translate(858.03125 0)"/>
       <use xlink:href="#DejaVuSans-48" transform="translate(921.515625 0)"/>
       <use xlink:href="#DejaVuSans-47" transform="translate(983.046875 0)"/>
       <use xlink:href="#DejaVuSans-42" transform="translate(1046.53125 0)"/>
       <use xlink:href="#DejaVuSans-55" transform="translate(1096.53125 0)"/>
       <use xlink:href="#DejaVuSans-48" transform="translate(1135.4375 0)"/>
       <use xlink:href="#DejaVuSans-54" transform="translate(1196.96875 0)"/>
       <use xlink:href="#DejaVuSans-58" transform="translate(1260.453125 0)"/>
       <use xlink:href="#DejaVuSans-48" transform="translate(1323.828125 0)"/>
       <use xlink:href="#DejaVuSans-c" transform="translate(1385.359375 0)"/>
      </g>
     </g>
    </g>
    <g id="ytick_3">
     <g id="line2d_8">
      <g>
       <use xlink:href="#m73aa8cb7a8" x="125.203937" y="103.967131" style="stroke: #000000; stroke-width: 0.8"/>
      </g>
     </g>
     <g id="text_9">
      <!-- runpod (#1 forced_cance) -->
      <g transform="translate(18.911125 106.854537) scale(0.076 -0.076)">
       <defs>
        <path id="DejaVuSans-14" d="M 794 531 
L 1825 531 
L 1825 4091 
L 703 3866 
L 703 4441 
L 1819 4666 
L 2450 4666 
L 2450 531 
L 3481 531 
L 3481 0 
L 794 0 
L 794 531 
z
" transform="scale(0.015625)"/>
       </defs>
       <use xlink:href="#DejaVuSans-55"/>
       <use xlink:href="#DejaVuSans-58" transform="translate(41.109375 0)"/>
       <use xlink:href="#DejaVuSans-51" transform="translate(104.484375 0)"/>
       <use xlink:href="#DejaVuSans-53" transform="translate(167.859375 0)"/>
       <use xlink:href="#DejaVuSans-52" transform="translate(231.34375 0)"/>
       <use xlink:href="#DejaVuSans-47" transform="translate(292.53125 0)"/>
       <use xlink:href="#DejaVuSans-3" transform="translate(356.015625 0)"/>
       <use xlink:href="#DejaVuSans-b" transform="translate(387.796875 0)"/>
       <use xlink:href="#DejaVuSans-6" transform="translate(426.8125 0)"/>
       <use xlink:href="#DejaVuSans-14" transform="translate(510.609375 0)"/>
       <use xlink:href="#DejaVuSans-3" transform="translate(574.234375 0)"/>
       <use xlink:href="#DejaVuSans-49" transform="translate(606.015625 0)"/>
       <use xlink:href="#DejaVuSans-52" transform="translate(641.21875 0)"/>
       <use xlink:href="#DejaVuSans-55" transform="translate(702.40625 0)"/>
       <use xlink:href="#DejaVuSans-46" transform="translate(741.3125 0)"/>
       <use xlink:href="#DejaVuSans-48" transform="translate(796.296875 0)"/>
       <use xlink:href="#DejaVuSans-47" transform="translate(857.828125 0)"/>
       <use xlink:href="#DejaVuSans-42" transform="translate(921.3125 0)"/>
       <use xlink:href="#DejaVuSans-46" transform="translate(971.3125 0)"/>
       <use xlink:href="#DejaVuSans-44" transform="translate(1026.296875 0)"/>
       <use xlink:href="#DejaVuSans-51" transform="translate(1087.578125 0)"/>
       <use xlink:href="#DejaVuSans-46" transform="translate(1150.953125 0)"/>
       <use xlink:href="#DejaVuSans-48" transform="translate(1205.9375 0)"/>
       <use xlink:href="#DejaVuSans-c" transform="translate(1267.46875 0)"/>
      </g>
     </g>
    </g>
    <g id="ytick_4">
     <g id="line2d_9">
      <g>
       <use xlink:href="#m73aa8cb7a8" x="125.203937" y="131.646426" style="stroke: #000000; stroke-width: 0.8"/>
      </g>
     </g>
     <g id="text_10">
      <!-- runpod (#2 forced_cance) -->
      <g transform="translate(18.911125 134.533833) scale(0.076 -0.076)">
       <use xlink:href="#DejaVuSans-55"/>
       <use xlink:href="#DejaVuSans-58" transform="translate(41.109375 0)"/>
       <use xlink:href="#DejaVuSans-51" transform="translate(104.484375 0)"/>
       <use xlink:href="#DejaVuSans-53" transform="translate(167.859375 0)"/>
       <use xlink:href="#DejaVuSans-52" transform="translate(231.34375 0)"/>
       <use xlink:href="#DejaVuSans-47" transform="translate(292.53125 0)"/>
       <use xlink:href="#DejaVuSans-3" transform="translate(356.015625 0)"/>
       <use xlink:href="#DejaVuSans-b" transform="translate(387.796875 0)"/>
       <use xlink:href="#DejaVuSans-6" transform="translate(426.8125 0)"/>
       <use xlink:href="#DejaVuSans-15" transform="translate(510.609375 0)"/>
       <use xlink:href="#DejaVuSans-3" transform="translate(574.234375 0)"/>
       <use xlink:href="#DejaVuSans-49" transform="translate(606.015625 0)"/>
       <use xlink:href="#DejaVuSans-52" transform="translate(641.21875 0)"/>
       <use xlink:href="#DejaVuSans-55" transform="translate(702.40625 0)"/>
       <use xlink:href="#DejaVuSans-46" transform="translate(741.3125 0)"/>
       <use xlink:href="#DejaVuSans-48" transform="translate(796.296875 0)"/>
       <use xlink:href="#DejaVuSans-47" transform="translate(857.828125 0)"/>
       <use xlink:href="#DejaVuSans-42" transform="translate(921.3125 0)"/>
       <use xlink:href="#DejaVuSans-46" transform="translate(971.3125 0)"/>
       <use xlink:href="#DejaVuSans-44" transform="translate(1026.296875 0)"/>
       <use xlink:href="#DejaVuSans-51" transform="translate(1087.578125 0)"/>
       <use xlink:href="#DejaVuSans-46" transform="translate(1150.953125 0)"/>
       <use xlink:href="#DejaVuSans-48" transform="translate(1205.9375 0)"/>
       <use xlink:href="#DejaVuSans-c" transform="translate(1267.46875 0)"/>
      </g>
     </g>
    </g>
    <g id="ytick_5">
     <g id="line2d_10">
      <g>
       <use xlink:href="#m73aa8cb7a8" x="125.203937" y="159.325721" style="stroke: #000000; stroke-width: 0.8"/>
      </g>
     </g>
     <g id="text_11">
      <!-- runpod (#1 forced_cance) -->
      <g transform="translate(18.911125 162.213128) scale(0.076 -0.076)">
       <use xlink:href="#DejaVuSans-55"/>
       <use xlink:href="#DejaVuSans-58" transform="translate(41.109375 0)"/>
       <use xlink:href="#DejaVuSans-51" transform="translate(104.484375 0)"/>
       <use xlink:href="#DejaVuSans-53" transform="translate(167.859375 0)"/>
       <use xlink:href="#DejaVuSans-52" transform="translate(231.34375 0)"/>
       <use xlink:href="#DejaVuSans-47" transform="translate(292.53125 0)"/>
       <use xlink:href="#DejaVuSans-3" transform="translate(356.015625 0)"/>
       <use xlink:href="#DejaVuSans-b" transform="translate(387.796875 0)"/>
       <use xlink:href="#DejaVuSans-6" transform="translate(426.8125 0)"/>
       <use xlink:href="#DejaVuSans-14" transform="translate(510.609375 0)"/>
       <use xlink:href="#DejaVuSans-3" transform="translate(574.234375 0)"/>
       <use xlink:href="#DejaVuSans-49" transform="translate(606.015625 0)"/>
       <use xlink:href="#DejaVuSans-52" transform="translate(641.21875 0)"/>
       <use xlink:href="#DejaVuSans-55" transform="translate(702.40625 0)"/>
       <use xlink:href="#DejaVuSans-46" transform="translate(741.3125 0)"/>
       <use xlink:href="#DejaVuSans-48" transform="translate(796.296875 0)"/>
       <use xlink:href="#DejaVuSans-47" transform="translate(857.828125 0)"/>
       <use xlink:href="#DejaVuSans-42" transform="translate(921.3125 0)"/>
       <use xlink:href="#DejaVuSans-46" transform="translate(971.3125 0)"/>
       <use xlink:href="#DejaVuSans-44" transform="translate(1026.296875 0)"/>
       <use xlink:href="#DejaVuSans-51" transform="translate(1087.578125 0)"/>
       <use xlink:href="#DejaVuSans-46" transform="translate(1150.953125 0)"/>
       <use xlink:href="#DejaVuSans-48" transform="translate(1205.9375 0)"/>
       <use xlink:href="#DejaVuSans-c" transform="translate(1267.46875 0)"/>
      </g>
     </g>
    </g>
    <g id="ytick_6">
     <g id="line2d_11">
      <g>
       <use xlink:href="#m73aa8cb7a8" x="125.203937" y="187.005017" style="stroke: #000000; stroke-width: 0.8"/>
      </g>
     </g>
     <g id="text_12">
      <!-- runpod (#2 forced_cance) -->
      <g transform="translate(18.911125 189.892423) scale(0.076 -0.076)">
       <use xlink:href="#DejaVuSans-55"/>
       <use xlink:href="#DejaVuSans-58" transform="translate(41.109375 0)"/>
       <use xlink:href="#DejaVuSans-51" transform="translate(104.484375 0)"/>
       <use xlink:href="#DejaVuSans-53" transform="translate(167.859375 0)"/>
       <use xlink:href="#DejaVuSans-52" transform="translate(231.34375 0)"/>
       <use xlink:href="#DejaVuSans-47" transform="translate(292.53125 0)"/>
       <use xlink:href="#DejaVuSans-3" transform="translate(356.015625 0)"/>
       <use xlink:href="#DejaVuSans-b" transform="translate(387.796875 0)"/>
       <use xlink:href="#DejaVuSans-6" transform="translate(426.8125 0)"/>
       <use xlink:href="#DejaVuSans-15" transform="translate(510.609375 0)"/>
       <use xlink:href="#DejaVuSans-3" transform="translate(574.234375 0)"/>
       <use xlink:href="#DejaVuSans-49" transform="translate(606.015625 0)"/>
       <use xlink:href="#DejaVuSans-52" transform="translate(641.21875 0)"/>
       <use xlink:href="#DejaVuSans-55" transform="translate(702.40625 0)"/>
       <use xlink:href="#DejaVuSans-46" transform="translate(741.3125 0)"/>
       <use xlink:href="#DejaVuSans-48" transform="translate(796.296875 0)"/>
       <use xlink:href="#DejaVuSans-47" transform="translate(857.828125 0)"/>
       <use xlink:href="#DejaVuSans-42" transform="translate(921.3125 0)"/>
       <use xlink:href="#DejaVuSans-46" transform="translate(971.3125 0)"/>
       <use xlink:href="#DejaVuSans-44" transform="translate(1026.296875 0)"/>
       <use xlink:href="#DejaVuSans-51" transform="translate(1087.578125 0)"/>
       <use xlink:href="#DejaVuSans-46" transform="translate(1150.953125 0)"/>
       <use xlink:href="#DejaVuSans-48" transform="translate(1205.9375 0)"/>
       <use xlink:href="#DejaVuSans-c" transform="translate(1267.46875 0)"/>
      </g>
     </g>
    </g>
    <g id="ytick_7">
     <g id="line2d_12">
      <g>
       <use xlink:href="#m73aa8cb7a8" x="125.203937" y="214.684312" style="stroke: #000000; stroke-width: 0.8"/>
      </g>
     </g>
     <g id="text_13">
      <!-- cerebrium (#1 forced_cance) -->
      <g transform="translate(7.2 217.571718) scale(0.076 -0.076)">
       <defs>
        <path id="DejaVuSans-45" d="M 3116 1747 
Q 3116 2381 2855 2742 
Q 2594 3103 2138 3103 
Q 1681 3103 1420 2742 
Q 1159 2381 1159 1747 
Q 1159 1113 1420 752 
Q 1681 391 2138 391 
Q 2594 391 2855 752 
Q 3116 1113 3116 1747 
z
M 1159 2969 
Q 1341 3281 1617 3432 
Q 1894 3584 2278 3584 
Q 2916 3584 3314 3078 
Q 3713 2572 3713 1747 
Q 3713 922 3314 415 
Q 2916 -91 2278 -91 
Q 1894 -91 1617 61 
Q 1341 213 1159 525 
L 1159 0 
L 581 0 
L 581 4863 
L 1159 4863 
L 1159 2969 
z
" transform="scale(0.015625)"/>
       </defs>
       <use xlink:href="#DejaVuSans-46"/>
       <use xlink:href="#DejaVuSans-48" transform="translate(54.984375 0)"/>
       <use xlink:href="#DejaVuSans-55" transform="translate(116.515625 0)"/>
       <use xlink:href="#DejaVuSans-48" transform="translate(155.421875 0)"/>
       <use xlink:href="#DejaVuSans-45" transform="translate(216.953125 0)"/>
       <use xlink:href="#DejaVuSans-55" transform="translate(280.4375 0)"/>
       <use xlink:href="#DejaVuSans-4c" transform="translate(321.546875 0)"/>
       <use xlink:href="#DejaVuSans-58" transform="translate(349.328125 0)"/>
       <use xlink:href="#DejaVuSans-50" transform="translate(412.703125 0)"/>
       <use xlink:href="#DejaVuSans-3" transform="translate(510.109375 0)"/>
       <use xlink:href="#DejaVuSans-b" transform="translate(541.890625 0)"/>
       <use xlink:href="#DejaVuSans-6" transform="translate(580.90625 0)"/>
       <use xlink:href="#DejaVuSans-14" transform="translate(664.703125 0)"/>
       <use xlink:href="#DejaVuSans-3" transform="translate(728.328125 0)"/>
       <use xlink:href="#DejaVuSans-49" transform="translate(760.109375 0)"/>
       <use xlink:href="#DejaVuSans-52" transform="translate(795.3125 0)"/>
       <use xlink:href="#DejaVuSans-55" transform="translate(856.5 0)"/>
       <use xlink:href="#DejaVuSans-46" transform="translate(895.40625 0)"/>
       <use xlink:href="#DejaVuSans-48" transform="translate(950.390625 0)"/>
       <use xlink:href="#DejaVuSans-47" transform="translate(1011.921875 0)"/>
       <use xlink:href="#DejaVuSans-42" transform="translate(1075.40625 0)"/>
       <use xlink:href="#DejaVuSans-46" transform="translate(1125.40625 0)"/>
       <use xlink:href="#DejaVuSans-44" transform="translate(1180.390625 0)"/>
       <use xlink:href="#DejaVuSans-51" transform="translate(1241.671875 0)"/>
       <use xlink:href="#DejaVuSans-46" transform="translate(1305.046875 0)"/>
       <use xlink:href="#DejaVuSans-48" transform="translate(1360.03125 0)"/>
       <use xlink:href="#DejaVuSans-c" transform="translate(1421.5625 0)"/>
      </g>
     </g>
    </g>
    <g id="ytick_8">
     <g id="line2d_13">
      <g>
       <use xlink:href="#m73aa8cb7a8" x="125.203937" y="242.363607" style="stroke: #000000; stroke-width: 0.8"/>
      </g>
     </g>
     <g id="text_14">
      <!-- cerebrium (#2 forced_cance) -->
      <g transform="translate(7.2 245.251013) scale(0.076 -0.076)">
       <use xlink:href="#DejaVuSans-46"/>
       <use xlink:href="#DejaVuSans-48" transform="translate(54.984375 0)"/>
       <use xlink:href="#DejaVuSans-55" transform="translate(116.515625 0)"/>
       <use xlink:href="#DejaVuSans-48" transform="translate(155.421875 0)"/>
       <use xlink:href="#DejaVuSans-45" transform="translate(216.953125 0)"/>
       <use xlink:href="#DejaVuSans-55" transform="translate(280.4375 0)"/>
       <use xlink:href="#DejaVuSans-4c" transform="translate(321.546875 0)"/>
       <use xlink:href="#DejaVuSans-58" transform="translate(349.328125 0)"/>
       <use xlink:href="#DejaVuSans-50" transform="translate(412.703125 0)"/>
       <use xlink:href="#DejaVuSans-3" transform="translate(510.109375 0)"/>
       <use xlink:href="#DejaVuSans-b" transform="translate(541.890625 0)"/>
       <use xlink:href="#DejaVuSans-6" transform="translate(580.90625 0)"/>
       <use xlink:href="#DejaVuSans-15" transform="translate(664.703125 0)"/>
       <use xlink:href="#DejaVuSans-3" transform="translate(728.328125 0)"/>
       <use xlink:href="#DejaVuSans-49" transform="translate(760.109375 0)"/>
       <use xlink:href="#DejaVuSans-52" transform="translate(795.3125 0)"/>
       <use xlink:href="#DejaVuSans-55" transform="translate(856.5 0)"/>
       <use xlink:href="#DejaVuSans-46" transform="translate(895.40625 0)"/>
       <use xlink:href="#DejaVuSans-48" transform="translate(950.390625 0)"/>
       <use xlink:href="#DejaVuSans-47" transform="translate(1011.921875 0)"/>
       <use xlink:href="#DejaVuSans-42" transform="translate(1075.40625 0)"/>
       <use xlink:href="#DejaVuSans-46" transform="translate(1125.40625 0)"/>
       <use xlink:href="#DejaVuSans-44" transform="translate(1180.390625 0)"/>
       <use xlink:href="#DejaVuSans-51" transform="translate(1241.671875 0)"/>
       <use xlink:href="#DejaVuSans-46" transform="translate(1305.046875 0)"/>
       <use xlink:href="#DejaVuSans-48" transform="translate(1360.03125 0)"/>
       <use xlink:href="#DejaVuSans-c" transform="translate(1421.5625 0)"/>
      </g>
     </g>
    </g>
    <g id="ytick_9">
     <g id="line2d_14">
      <g>
       <use xlink:href="#m73aa8cb7a8" x="125.203937" y="270.042902" style="stroke: #000000; stroke-width: 0.8"/>
      </g>
     </g>
     <g id="text_15">
      <!-- cerebrium (#1 forced_cance) -->
      <g transform="translate(7.2 272.930308) scale(0.076 -0.076)">
       <use xlink:href="#DejaVuSans-46"/>
       <use xlink:href="#DejaVuSans-48" transform="translate(54.984375 0)"/>
       <use xlink:href="#DejaVuSans-55" transform="translate(116.515625 0)"/>
       <use xlink:href="#DejaVuSans-48" transform="translate(155.421875 0)"/>
       <use xlink:href="#DejaVuSans-45" transform="translate(216.953125 0)"/>
       <use xlink:href="#DejaVuSans-55" transform="translate(280.4375 0)"/>
       <use xlink:href="#DejaVuSans-4c" transform="translate(321.546875 0)"/>
       <use xlink:href="#DejaVuSans-58" transform="translate(349.328125 0)"/>
       <use xlink:href="#DejaVuSans-50" transform="translate(412.703125 0)"/>
       <use xlink:href="#DejaVuSans-3" transform="translate(510.109375 0)"/>
       <use xlink:href="#DejaVuSans-b" transform="translate(541.890625 0)"/>
       <use xlink:href="#DejaVuSans-6" transform="translate(580.90625 0)"/>
       <use xlink:href="#DejaVuSans-14" transform="translate(664.703125 0)"/>
       <use xlink:href="#DejaVuSans-3" transform="translate(728.328125 0)"/>
       <use xlink:href="#DejaVuSans-49" transform="translate(760.109375 0)"/>
       <use xlink:href="#DejaVuSans-52" transform="translate(795.3125 0)"/>
       <use xlink:href="#DejaVuSans-55" transform="translate(856.5 0)"/>
       <use xlink:href="#DejaVuSans-46" transform="translate(895.40625 0)"/>
       <use xlink:href="#DejaVuSans-48" transform="translate(950.390625 0)"/>
       <use xlink:href="#DejaVuSans-47" transform="translate(1011.921875 0)"/>
       <use xlink:href="#DejaVuSans-42" transform="translate(1075.40625 0)"/>
       <use xlink:href="#DejaVuSans-46" transform="translate(1125.40625 0)"/>
       <use xlink:href="#DejaVuSans-44" transform="translate(1180.390625 0)"/>
       <use xlink:href="#DejaVuSans-51" transform="translate(1241.671875 0)"/>
       <use xlink:href="#DejaVuSans-46" transform="translate(1305.046875 0)"/>
       <use xlink:href="#DejaVuSans-48" transform="translate(1360.03125 0)"/>
       <use xlink:href="#DejaVuSans-c" transform="translate(1421.5625 0)"/>
      </g>
     </g>
    </g>
    <g id="ytick_10">
     <g id="line2d_15">
      <g>
       <use xlink:href="#m73aa8cb7a8" x="125.203937" y="297.722197" style="stroke: #000000; stroke-width: 0.8"/>
      </g>
     </g>
     <g id="text_16">
      <!-- cerebrium (#2 forced_cance) -->
      <g transform="translate(7.2 300.609604) scale(0.076 -0.076)">
       <use xlink:href="#DejaVuSans-46"/>
       <use xlink:href="#DejaVuSans-48" transform="translate(54.984375 0)"/>
       <use xlink:href="#DejaVuSans-55" transform="translate(116.515625 0)"/>
       <use xlink:href="#DejaVuSans-48" transform="translate(155.421875 0)"/>
       <use xlink:href="#DejaVuSans-45" transform="translate(216.953125 0)"/>
       <use xlink:href="#DejaVuSans-55" transform="translate(280.4375 0)"/>
       <use xlink:href="#DejaVuSans-4c" transform="translate(321.546875 0)"/>
       <use xlink:href="#DejaVuSans-58" transform="translate(349.328125 0)"/>
       <use xlink:href="#DejaVuSans-50" transform="translate(412.703125 0)"/>
       <use xlink:href="#DejaVuSans-3" transform="translate(510.109375 0)"/>
       <use xlink:href="#DejaVuSans-b" transform="translate(541.890625 0)"/>
       <use xlink:href="#DejaVuSans-6" transform="translate(580.90625 0)"/>
       <use xlink:href="#DejaVuSans-15" transform="translate(664.703125 0)"/>
       <use xlink:href="#DejaVuSans-3" transform="translate(728.328125 0)"/>
       <use xlink:href="#DejaVuSans-49" transform="translate(760.109375 0)"/>
       <use xlink:href="#DejaVuSans-52" transform="translate(795.3125 0)"/>
       <use xlink:href="#DejaVuSans-55" transform="translate(856.5 0)"/>
       <use xlink:href="#DejaVuSans-46" transform="translate(895.40625 0)"/>
       <use xlink:href="#DejaVuSans-48" transform="translate(950.390625 0)"/>
       <use xlink:href="#DejaVuSans-47" transform="translate(1011.921875 0)"/>
       <use xlink:href="#DejaVuSans-42" transform="translate(1075.40625 0)"/>
       <use xlink:href="#DejaVuSans-46" transform="translate(1125.40625 0)"/>
       <use xlink:href="#DejaVuSans-44" transform="translate(1180.390625 0)"/>
       <use xlink:href="#DejaVuSans-51" transform="translate(1241.671875 0)"/>
       <use xlink:href="#DejaVuSans-46" transform="translate(1305.046875 0)"/>
       <use xlink:href="#DejaVuSans-48" transform="translate(1360.03125 0)"/>
       <use xlink:href="#DejaVuSans-c" transform="translate(1421.5625 0)"/>
      </g>
     </g>
    </g>
    <g id="ytick_11">
     <g id="line2d_16">
      <g>
       <use xlink:href="#m73aa8cb7a8" x="125.203937" y="325.401492" style="stroke: #000000; stroke-width: 0.8"/>
      </g>
     </g>
     <g id="text_17">
      <!-- modal (#1 forced_cance) -->
      <g transform="translate(22.321625 328.288899) scale(0.076 -0.076)">
       <use xlink:href="#DejaVuSans-50"/>
       <use xlink:href="#DejaVuSans-52" transform="translate(97.40625 0)"/>
       <use xlink:href="#DejaVuSans-47" transform="translate(158.59375 0)"/>
       <use xlink:href="#DejaVuSans-44" transform="translate(222.078125 0)"/>
       <use xlink:href="#DejaVuSans-4f" transform="translate(283.359375 0)"/>
       <use xlink:href="#DejaVuSans-3" transform="translate(311.140625 0)"/>
       <use xlink:href="#DejaVuSans-b" transform="translate(342.921875 0)"/>
       <use xlink:href="#DejaVuSans-6" transform="translate(381.9375 0)"/>
       <use xlink:href="#DejaVuSans-14" transform="translate(465.734375 0)"/>
       <use xlink:href="#DejaVuSans-3" transform="translate(529.359375 0)"/>
       <use xlink:href="#DejaVuSans-49" transform="translate(561.140625 0)"/>
       <use xlink:href="#DejaVuSans-52" transform="translate(596.34375 0)"/>
       <use xlink:href="#DejaVuSans-55" transform="translate(657.53125 0)"/>
       <use xlink:href="#DejaVuSans-46" transform="translate(696.4375 0)"/>
       <use xlink:href="#DejaVuSans-48" transform="translate(751.421875 0)"/>
       <use xlink:href="#DejaVuSans-47" transform="translate(812.953125 0)"/>
       <use xlink:href="#DejaVuSans-42" transform="translate(876.4375 0)"/>
       <use xlink:href="#DejaVuSans-46" transform="translate(926.4375 0)"/>
       <use xlink:href="#DejaVuSans-44" transform="translate(981.421875 0)"/>
       <use xlink:href="#DejaVuSans-51" transform="translate(1042.703125 0)"/>
       <use xlink:href="#DejaVuSans-46" transform="translate(1106.078125 0)"/>
       <use xlink:href="#DejaVuSans-48" transform="translate(1161.0625 0)"/>
       <use xlink:href="#DejaVuSans-c" transform="translate(1222.59375 0)"/>
      </g>
     </g>
    </g>
    <g id="ytick_12">
     <g id="line2d_17">
      <g>
       <use xlink:href="#m73aa8cb7a8" x="125.203937" y="353.080788" style="stroke: #000000; stroke-width: 0.8"/>
      </g>
     </g>
     <g id="text_18">
      <!-- modal (#2 forced_cance) -->
      <g transform="translate(22.321625 355.968194) scale(0.076 -0.076)">
       <use xlink:href="#DejaVuSans-50"/>
       <use xlink:href="#DejaVuSans-52" transform="translate(97.40625 0)"/>
       <use xlink:href="#DejaVuSans-47" transform="translate(158.59375 0)"/>
       <use xlink:href="#DejaVuSans-44" transform="translate(222.078125 0)"/>
       <use xlink:href="#DejaVuSans-4f" transform="translate(283.359375 0)"/>
       <use xlink:href="#DejaVuSans-3" transform="translate(311.140625 0)"/>
       <use xlink:href="#DejaVuSans-b" transform="translate(342.921875 0)"/>
       <use xlink:href="#DejaVuSans-6" transform="translate(381.9375 0)"/>
       <use xlink:href="#DejaVuSans-15" transform="translate(465.734375 0)"/>
       <use xlink:href="#DejaVuSans-3" transform="translate(529.359375 0)"/>
       <use xlink:href="#DejaVuSans-49" transform="translate(561.140625 0)"/>
       <use xlink:href="#DejaVuSans-52" transform="translate(596.34375 0)"/>
       <use xlink:href="#DejaVuSans-55" transform="translate(657.53125 0)"/>
       <use xlink:href="#DejaVuSans-46" transform="translate(696.4375 0)"/>
       <use xlink:href="#DejaVuSans-48" transform="translate(751.421875 0)"/>
       <use xlink:href="#DejaVuSans-47" transform="translate(812.953125 0)"/>
       <use xlink:href="#DejaVuSans-42" transform="translate(876.4375 0)"/>
       <use xlink:href="#DejaVuSans-46" transform="translate(926.4375 0)"/>
       <use xlink:href="#DejaVuSans-44" transform="translate(981.421875 0)"/>
       <use xlink:href="#DejaVuSans-51" transform="translate(1042.703125 0)"/>
       <use xlink:href="#DejaVuSans-46" transform="translate(1106.078125 0)"/>
       <use xlink:href="#DejaVuSans-48" transform="translate(1161.0625 0)"/>
       <use xlink:href="#DejaVuSans-c" transform="translate(1222.59375 0)"/>
      </g>
     </g>
    </g>
    <g id="ytick_13">
     <g id="line2d_18">
      <g>
       <use xlink:href="#m73aa8cb7a8" x="125.203937" y="380.760083" style="stroke: #000000; stroke-width: 0.8"/>
      </g>
     </g>
     <g id="text_19">
      <!-- modal (#1 forced_cance) -->
      <g transform="translate(22.321625 383.647489) scale(0.076 -0.076)">
       <use xlink:href="#DejaVuSans-50"/>
       <use xlink:href="#DejaVuSans-52" transform="translate(97.40625 0)"/>
       <use xlink:href="#DejaVuSans-47" transform="translate(158.59375 0)"/>
       <use xlink:href="#DejaVuSans-44" transform="translate(222.078125 0)"/>
       <use xlink:href="#DejaVuSans-4f" transform="translate(283.359375 0)"/>
       <use xlink:href="#DejaVuSans-3" transform="translate(311.140625 0)"/>
       <use xlink:href="#DejaVuSans-b" transform="translate(342.921875 0)"/>
       <use xlink:href="#DejaVuSans-6" transform="translate(381.9375 0)"/>
       <use xlink:href="#DejaVuSans-14" transform="translate(465.734375 0)"/>
       <use xlink:href="#DejaVuSans-3" transform="translate(529.359375 0)"/>
       <use xlink:href="#DejaVuSans-49" transform="translate(561.140625 0)"/>
       <use xlink:href="#DejaVuSans-52" transform="translate(596.34375 0)"/>
       <use xlink:href="#DejaVuSans-55" transform="translate(657.53125 0)"/>
       <use xlink:href="#DejaVuSans-46" transform="translate(696.4375 0)"/>
       <use xlink:href="#DejaVuSans-48" transform="translate(751.421875 0)"/>
       <use xlink:href="#DejaVuSans-47" transform="translate(812.953125 0)"/>
       <use xlink:href="#DejaVuSans-42" transform="translate(876.4375 0)"/>
       <use xlink:href="#DejaVuSans-46" transform="translate(926.4375 0)"/>
       <use xlink:href="#DejaVuSans-44" transform="translate(981.421875 0)"/>
       <use xlink:href="#DejaVuSans-51" transform="translate(1042.703125 0)"/>
       <use xlink:href="#DejaVuSans-46" transform="translate(1106.078125 0)"/>
       <use xlink:href="#DejaVuSans-48" transform="translate(1161.0625 0)"/>
       <use xlink:href="#DejaVuSans-c" transform="translate(1222.59375 0)"/>
      </g>
     </g>
    </g>
    <g id="ytick_14">
     <g id="line2d_19">
      <g>
       <use xlink:href="#m73aa8cb7a8" x="125.203937" y="408.439378" style="stroke: #000000; stroke-width: 0.8"/>
      </g>
     </g>
     <g id="text_20">
      <!-- modal (#2 forced_cance) -->
      <g transform="translate(22.321625 411.326784) scale(0.076 -0.076)">
       <use xlink:href="#DejaVuSans-50"/>
       <use xlink:href="#DejaVuSans-52" transform="translate(97.40625 0)"/>
       <use xlink:href="#DejaVuSans-47" transform="translate(158.59375 0)"/>
       <use xlink:href="#DejaVuSans-44" transform="translate(222.078125 0)"/>
       <use xlink:href="#DejaVuSans-4f" transform="translate(283.359375 0)"/>
       <use xlink:href="#DejaVuSans-3" transform="translate(311.140625 0)"/>
       <use xlink:href="#DejaVuSans-b" transform="translate(342.921875 0)"/>
       <use xlink:href="#DejaVuSans-6" transform="translate(381.9375 0)"/>
       <use xlink:href="#DejaVuSans-15" transform="translate(465.734375 0)"/>
       <use xlink:href="#DejaVuSans-3" transform="translate(529.359375 0)"/>
       <use xlink:href="#DejaVuSans-49" transform="translate(561.140625 0)"/>
       <use xlink:href="#DejaVuSans-52" transform="translate(596.34375 0)"/>
       <use xlink:href="#DejaVuSans-55" transform="translate(657.53125 0)"/>
       <use xlink:href="#DejaVuSans-46" transform="translate(696.4375 0)"/>
       <use xlink:href="#DejaVuSans-48" transform="translate(751.421875 0)"/>
       <use xlink:href="#DejaVuSans-47" transform="translate(812.953125 0)"/>
       <use xlink:href="#DejaVuSans-42" transform="translate(876.4375 0)"/>
       <use xlink:href="#DejaVuSans-46" transform="translate(926.4375 0)"/>
       <use xlink:href="#DejaVuSans-44" transform="translate(981.421875 0)"/>
       <use xlink:href="#DejaVuSans-51" transform="translate(1042.703125 0)"/>
       <use xlink:href="#DejaVuSans-46" transform="translate(1106.078125 0)"/>
       <use xlink:href="#DejaVuSans-48" transform="translate(1161.0625 0)"/>
       <use xlink:href="#DejaVuSans-c" transform="translate(1222.59375 0)"/>
      </g>
     </g>
    </g>
   </g>
   <g id="patch_29">
    <path d="M 125.203937 435.869559 
L 125.203937 21.178359 
" style="fill: none; stroke: #000000; stroke-width: 0.8; stroke-linejoin: miter; stroke-linecap: square"/>
   </g>
   <g id="patch_30">
    <path d="M 125.203937 435.869559 
L 526.963938 435.869559 
" style="fill: none; stroke: #000000; stroke-width: 0.8; stroke-linejoin: miter; stroke-linecap: square"/>
   </g>
   <g id="text_21">
    <!-- 328 ms to terminal -->
    <g style="fill: #333333" transform="translate(138.892193 50.583056) scale(0.076 -0.076)">
     <defs>
      <path id="DejaVuSans-16" d="M 2597 2516 
Q 3050 2419 3304 2112 
Q 3559 1806 3559 1356 
Q 3559 666 3084 287 
Q 2609 -91 1734 -91 
Q 1441 -91 1130 -33 
Q 819 25 488 141 
L 488 750 
Q 750 597 1062 519 
Q 1375 441 1716 441 
Q 2309 441 2620 675 
Q 2931 909 2931 1356 
Q 2931 1769 2642 2001 
Q 2353 2234 1838 2234 
L 1294 2234 
L 1294 2753 
L 1863 2753 
Q 2328 2753 2575 2939 
Q 2822 3125 2822 3475 
Q 2822 3834 2567 4026 
Q 2313 4219 1838 4219 
Q 1578 4219 1281 4162 
Q 984 4106 628 3988 
L 628 4550 
Q 988 4650 1302 4700 
Q 1616 4750 1894 4750 
Q 2613 4750 3031 4423 
Q 3450 4097 3450 3541 
Q 3450 3153 3228 2886 
Q 3006 2619 2597 2516 
z
" transform="scale(0.015625)"/>
     </defs>
     <use xlink:href="#DejaVuSans-16"/>
     <use xlink:href="#DejaVuSans-15" transform="translate(63.625 0)"/>
     <use xlink:href="#DejaVuSans-1b" transform="translate(127.25 0)"/>
     <use xlink:href="#DejaVuSans-3" transform="translate(190.875 0)"/>
     <use xlink:href="#DejaVuSans-50" transform="translate(222.65625 0)"/>
     <use xlink:href="#DejaVuSans-56" transform="translate(320.0625 0)"/>
     <use xlink:href="#DejaVuSans-3" transform="translate(372.15625 0)"/>
     <use xlink:href="#DejaVuSans-57" transform="translate(403.9375 0)"/>
     <use xlink:href="#DejaVuSans-52" transform="translate(443.140625 0)"/>
     <use xlink:href="#DejaVuSans-3" transform="translate(504.328125 0)"/>
     <use xlink:href="#DejaVuSans-57" transform="translate(536.109375 0)"/>
     <use xlink:href="#DejaVuSans-48" transform="translate(575.3125 0)"/>
     <use xlink:href="#DejaVuSans-55" transform="translate(636.84375 0)"/>
     <use xlink:href="#DejaVuSans-50" transform="translate(676.203125 0)"/>
     <use xlink:href="#DejaVuSans-4c" transform="translate(773.609375 0)"/>
     <use xlink:href="#DejaVuSans-51" transform="translate(801.390625 0)"/>
     <use xlink:href="#DejaVuSans-44" transform="translate(864.765625 0)"/>
     <use xlink:href="#DejaVuSans-4f" transform="translate(926.046875 0)"/>
    </g>
   </g>
   <g id="text_22">
    <!-- 331 ms to terminal -->
    <g style="fill: #333333" transform="translate(139.013694 78.262352) scale(0.076 -0.076)">
     <use xlink:href="#DejaVuSans-16"/>
     <use xlink:href="#DejaVuSans-16" transform="translate(63.625 0)"/>
     <use xlink:href="#DejaVuSans-14" transform="translate(127.25 0)"/>
     <use xlink:href="#DejaVuSans-3" transform="translate(190.875 0)"/>
     <use xlink:href="#DejaVuSans-50" transform="translate(222.65625 0)"/>
     <use xlink:href="#DejaVuSans-56" transform="translate(320.0625 0)"/>
     <use xlink:href="#DejaVuSans-3" transform="translate(372.15625 0)"/>
     <use xlink:href="#DejaVuSans-57" transform="translate(403.9375 0)"/>
     <use xlink:href="#DejaVuSans-52" transform="translate(443.140625 0)"/>
     <use xlink:href="#DejaVuSans-3" transform="translate(504.328125 0)"/>
     <use xlink:href="#DejaVuSans-57" transform="translate(536.109375 0)"/>
     <use xlink:href="#DejaVuSans-48" transform="translate(575.3125 0)"/>
     <use xlink:href="#DejaVuSans-55" transform="translate(636.84375 0)"/>
     <use xlink:href="#DejaVuSans-50" transform="translate(676.203125 0)"/>
     <use xlink:href="#DejaVuSans-4c" transform="translate(773.609375 0)"/>
     <use xlink:href="#DejaVuSans-51" transform="translate(801.390625 0)"/>
     <use xlink:href="#DejaVuSans-44" transform="translate(864.765625 0)"/>
     <use xlink:href="#DejaVuSans-4f" transform="translate(926.046875 0)"/>
    </g>
   </g>
   <g id="text_23">
    <!-- 308 ms to terminal -->
    <g style="fill: #333333" transform="translate(138.095659 105.941647) scale(0.076 -0.076)">
     <use xlink:href="#DejaVuSans-16"/>
     <use xlink:href="#DejaVuSans-13" transform="translate(63.625 0)"/>
     <use xlink:href="#DejaVuSans-1b" transform="translate(127.25 0)"/>
     <use xlink:href="#DejaVuSans-3" transform="translate(190.875 0)"/>
     <use xlink:href="#DejaVuSans-50" transform="translate(222.65625 0)"/>
     <use xlink:href="#DejaVuSans-56" transform="translate(320.0625 0)"/>
     <use xlink:href="#DejaVuSans-3" transform="translate(372.15625 0)"/>
     <use xlink:href="#DejaVuSans-57" transform="translate(403.9375 0)"/>
     <use xlink:href="#DejaVuSans-52" transform="translate(443.140625 0)"/>
     <use xlink:href="#DejaVuSans-3" transform="translate(504.328125 0)"/>
     <use xlink:href="#DejaVuSans-57" transform="translate(536.109375 0)"/>
     <use xlink:href="#DejaVuSans-48" transform="translate(575.3125 0)"/>
     <use xlink:href="#DejaVuSans-55" transform="translate(636.84375 0)"/>
     <use xlink:href="#DejaVuSans-50" transform="translate(676.203125 0)"/>
     <use xlink:href="#DejaVuSans-4c" transform="translate(773.609375 0)"/>
     <use xlink:href="#DejaVuSans-51" transform="translate(801.390625 0)"/>
     <use xlink:href="#DejaVuSans-44" transform="translate(864.765625 0)"/>
     <use xlink:href="#DejaVuSans-4f" transform="translate(926.046875 0)"/>
    </g>
   </g>
   <g id="text_24">
    <!-- 321 ms to terminal -->
    <g style="fill: #333333" transform="translate(138.612296 133.620942) scale(0.076 -0.076)">
     <use xlink:href="#DejaVuSans-16"/>
     <use xlink:href="#DejaVuSans-15" transform="translate(63.625 0)"/>
     <use xlink:href="#DejaVuSans-14" transform="translate(127.25 0)"/>
     <use xlink:href="#DejaVuSans-3" transform="translate(190.875 0)"/>
     <use xlink:href="#DejaVuSans-50" transform="translate(222.65625 0)"/>
     <use xlink:href="#DejaVuSans-56" transform="translate(320.0625 0)"/>
     <use xlink:href="#DejaVuSans-3" transform="translate(372.15625 0)"/>
     <use xlink:href="#DejaVuSans-57" transform="translate(403.9375 0)"/>
     <use xlink:href="#DejaVuSans-52" transform="translate(443.140625 0)"/>
     <use xlink:href="#DejaVuSans-3" transform="translate(504.328125 0)"/>
     <use xlink:href="#DejaVuSans-57" transform="translate(536.109375 0)"/>
     <use xlink:href="#DejaVuSans-48" transform="translate(575.3125 0)"/>
     <use xlink:href="#DejaVuSans-55" transform="translate(636.84375 0)"/>
     <use xlink:href="#DejaVuSans-50" transform="translate(676.203125 0)"/>
     <use xlink:href="#DejaVuSans-4c" transform="translate(773.609375 0)"/>
     <use xlink:href="#DejaVuSans-51" transform="translate(801.390625 0)"/>
     <use xlink:href="#DejaVuSans-44" transform="translate(864.765625 0)"/>
     <use xlink:href="#DejaVuSans-4f" transform="translate(926.046875 0)"/>
    </g>
   </g>
   <g id="text_25">
    <!-- 320 ms to terminal -->
    <g style="fill: #333333" transform="translate(138.569676 161.300237) scale(0.076 -0.076)">
     <use xlink:href="#DejaVuSans-16"/>
     <use xlink:href="#DejaVuSans-15" transform="translate(63.625 0)"/>
     <use xlink:href="#DejaVuSans-13" transform="translate(127.25 0)"/>
     <use xlink:href="#DejaVuSans-3" transform="translate(190.875 0)"/>
     <use xlink:href="#DejaVuSans-50" transform="translate(222.65625 0)"/>
     <use xlink:href="#DejaVuSans-56" transform="translate(320.0625 0)"/>
     <use xlink:href="#DejaVuSans-3" transform="translate(372.15625 0)"/>
     <use xlink:href="#DejaVuSans-57" transform="translate(403.9375 0)"/>
     <use xlink:href="#DejaVuSans-52" transform="translate(443.140625 0)"/>
     <use xlink:href="#DejaVuSans-3" transform="translate(504.328125 0)"/>
     <use xlink:href="#DejaVuSans-57" transform="translate(536.109375 0)"/>
     <use xlink:href="#DejaVuSans-48" transform="translate(575.3125 0)"/>
     <use xlink:href="#DejaVuSans-55" transform="translate(636.84375 0)"/>
     <use xlink:href="#DejaVuSans-50" transform="translate(676.203125 0)"/>
     <use xlink:href="#DejaVuSans-4c" transform="translate(773.609375 0)"/>
     <use xlink:href="#DejaVuSans-51" transform="translate(801.390625 0)"/>
     <use xlink:href="#DejaVuSans-44" transform="translate(864.765625 0)"/>
     <use xlink:href="#DejaVuSans-4f" transform="translate(926.046875 0)"/>
    </g>
   </g>
   <g id="text_26">
    <!-- 310 ms to terminal -->
    <g style="fill: #333333" transform="translate(138.169359 188.979532) scale(0.076 -0.076)">
     <use xlink:href="#DejaVuSans-16"/>
     <use xlink:href="#DejaVuSans-14" transform="translate(63.625 0)"/>
     <use xlink:href="#DejaVuSans-13" transform="translate(127.25 0)"/>
     <use xlink:href="#DejaVuSans-3" transform="translate(190.875 0)"/>
     <use xlink:href="#DejaVuSans-50" transform="translate(222.65625 0)"/>
     <use xlink:href="#DejaVuSans-56" transform="translate(320.0625 0)"/>
     <use xlink:href="#DejaVuSans-3" transform="translate(372.15625 0)"/>
     <use xlink:href="#DejaVuSans-57" transform="translate(403.9375 0)"/>
     <use xlink:href="#DejaVuSans-52" transform="translate(443.140625 0)"/>
     <use xlink:href="#DejaVuSans-3" transform="translate(504.328125 0)"/>
     <use xlink:href="#DejaVuSans-57" transform="translate(536.109375 0)"/>
     <use xlink:href="#DejaVuSans-48" transform="translate(575.3125 0)"/>
     <use xlink:href="#DejaVuSans-55" transform="translate(636.84375 0)"/>
     <use xlink:href="#DejaVuSans-50" transform="translate(676.203125 0)"/>
     <use xlink:href="#DejaVuSans-4c" transform="translate(773.609375 0)"/>
     <use xlink:href="#DejaVuSans-51" transform="translate(801.390625 0)"/>
     <use xlink:href="#DejaVuSans-44" transform="translate(864.765625 0)"/>
     <use xlink:href="#DejaVuSans-4f" transform="translate(926.046875 0)"/>
    </g>
   </g>
   <g id="text_27">
    <!-- terminal unconfirmed (leaked) -->
    <g style="fill: #333333" transform="translate(262.223453 216.658827) scale(0.076 -0.076)">
     <use xlink:href="#DejaVuSans-57"/>
     <use xlink:href="#DejaVuSans-48" transform="translate(39.203125 0)"/>
     <use xlink:href="#DejaVuSans-55" transform="translate(100.734375 0)"/>
     <use xlink:href="#DejaVuSans-50" transform="translate(140.09375 0)"/>
     <use xlink:href="#DejaVuSans-4c" transform="translate(237.5 0)"/>
     <use xlink:href="#DejaVuSans-51" transform="translate(265.28125 0)"/>
     <use xlink:href="#DejaVuSans-44" transform="translate(328.65625 0)"/>
     <use xlink:href="#DejaVuSans-4f" transform="translate(389.9375 0)"/>
     <use xlink:href="#DejaVuSans-3" transform="translate(417.71875 0)"/>
     <use xlink:href="#DejaVuSans-58" transform="translate(449.5 0)"/>
     <use xlink:href="#DejaVuSans-51" transform="translate(512.875 0)"/>
     <use xlink:href="#DejaVuSans-46" transform="translate(576.25 0)"/>
     <use xlink:href="#DejaVuSans-52" transform="translate(631.234375 0)"/>
     <use xlink:href="#DejaVuSans-51" transform="translate(692.421875 0)"/>
     <use xlink:href="#DejaVuSans-13af" transform="translate(755.796875 0)"/>
     <use xlink:href="#DejaVuSans-55" transform="translate(818.78125 0)"/>
     <use xlink:href="#DejaVuSans-50" transform="translate(858.140625 0)"/>
     <use xlink:href="#DejaVuSans-48" transform="translate(955.546875 0)"/>
     <use xlink:href="#DejaVuSans-47" transform="translate(1017.078125 0)"/>
     <use xlink:href="#DejaVuSans-3" transform="translate(1080.5625 0)"/>
     <use xlink:href="#DejaVuSans-b" transform="translate(1112.34375 0)"/>
     <use xlink:href="#DejaVuSans-4f" transform="translate(1151.359375 0)"/>
     <use xlink:href="#DejaVuSans-48" transform="translate(1179.140625 0)"/>
     <use xlink:href="#DejaVuSans-44" transform="translate(1240.671875 0)"/>
     <use xlink:href="#DejaVuSans-4e" transform="translate(1301.953125 0)"/>
     <use xlink:href="#DejaVuSans-48" transform="translate(1356.296875 0)"/>
     <use xlink:href="#DejaVuSans-47" transform="translate(1417.828125 0)"/>
     <use xlink:href="#DejaVuSans-c" transform="translate(1481.3125 0)"/>
    </g>
   </g>
   <g id="text_28">
    <!-- terminal unconfirmed (leaked) -->
    <g style="fill: #333333" transform="translate(185.063382 244.338123) scale(0.076 -0.076)">
     <use xlink:href="#DejaVuSans-57"/>
     <use xlink:href="#DejaVuSans-48" transform="translate(39.203125 0)"/>
     <use xlink:href="#DejaVuSans-55" transform="translate(100.734375 0)"/>
     <use xlink:href="#DejaVuSans-50" transform="translate(140.09375 0)"/>
     <use xlink:href="#DejaVuSans-4c" transform="translate(237.5 0)"/>
     <use xlink:href="#DejaVuSans-51" transform="translate(265.28125 0)"/>
     <use xlink:href="#DejaVuSans-44" transform="translate(328.65625 0)"/>
     <use xlink:href="#DejaVuSans-4f" transform="translate(389.9375 0)"/>
     <use xlink:href="#DejaVuSans-3" transform="translate(417.71875 0)"/>
     <use xlink:href="#DejaVuSans-58" transform="translate(449.5 0)"/>
     <use xlink:href="#DejaVuSans-51" transform="translate(512.875 0)"/>
     <use xlink:href="#DejaVuSans-46" transform="translate(576.25 0)"/>
     <use xlink:href="#DejaVuSans-52" transform="translate(631.234375 0)"/>
     <use xlink:href="#DejaVuSans-51" transform="translate(692.421875 0)"/>
     <use xlink:href="#DejaVuSans-13af" transform="translate(755.796875 0)"/>
     <use xlink:href="#DejaVuSans-55" transform="translate(818.78125 0)"/>
     <use xlink:href="#DejaVuSans-50" transform="translate(858.140625 0)"/>
     <use xlink:href="#DejaVuSans-48" transform="translate(955.546875 0)"/>
     <use xlink:href="#DejaVuSans-47" transform="translate(1017.078125 0)"/>
     <use xlink:href="#DejaVuSans-3" transform="translate(1080.5625 0)"/>
     <use xlink:href="#DejaVuSans-b" transform="translate(1112.34375 0)"/>
     <use xlink:href="#DejaVuSans-4f" transform="translate(1151.359375 0)"/>
     <use xlink:href="#DejaVuSans-48" transform="translate(1179.140625 0)"/>
     <use xlink:href="#DejaVuSans-44" transform="translate(1240.671875 0)"/>
     <use xlink:href="#DejaVuSans-4e" transform="translate(1301.953125 0)"/>
     <use xlink:href="#DejaVuSans-48" transform="translate(1356.296875 0)"/>
     <use xlink:href="#DejaVuSans-47" transform="translate(1417.828125 0)"/>
     <use xlink:href="#DejaVuSans-c" transform="translate(1481.3125 0)"/>
    </g>
   </g>
   <g id="text_29">
    <!-- 8588 ms to terminal -->
    <g style="fill: #333333" transform="translate(475.878089 272.017418) scale(0.076 -0.076)">
     <use xlink:href="#DejaVuSans-1b"/>
     <use xlink:href="#DejaVuSans-18" transform="translate(63.625 0)"/>
     <use xlink:href="#DejaVuSans-1b" transform="translate(127.25 0)"/>
     <use xlink:href="#DejaVuSans-1b" transform="translate(190.875 0)"/>
     <use xlink:href="#DejaVuSans-3" transform="translate(254.5 0)"/>
     <use xlink:href="#DejaVuSans-50" transform="translate(286.28125 0)"/>
     <use xlink:href="#DejaVuSans-56" transform="translate(383.6875 0)"/>
     <use xlink:href="#DejaVuSans-3" transform="translate(435.78125 0)"/>
     <use xlink:href="#DejaVuSans-57" transform="translate(467.5625 0)"/>
     <use xlink:href="#DejaVuSans-52" transform="translate(506.765625 0)"/>
     <use xlink:href="#DejaVuSans-3" transform="translate(567.953125 0)"/>
     <use xlink:href="#DejaVuSans-57" transform="translate(599.734375 0)"/>
     <use xlink:href="#DejaVuSans-48" transform="translate(638.9375 0)"/>
     <use xlink:href="#DejaVuSans-55" transform="translate(700.46875 0)"/>
     <use xlink:href="#DejaVuSans-50" transform="translate(739.828125 0)"/>
     <use xlink:href="#DejaVuSans-4c" transform="translate(837.234375 0)"/>
     <use xlink:href="#DejaVuSans-51" transform="translate(865.015625 0)"/>
     <use xlink:href="#DejaVuSans-44" transform="translate(928.390625 0)"/>
     <use xlink:href="#DejaVuSans-4f" transform="translate(989.671875 0)"/>
    </g>
   </g>
   <g id="text_30">
    <!-- 9379 ms to terminal -->
    <g style="fill: #333333" transform="translate(508.158864 299.696713) scale(0.076 -0.076)">
     <defs>
      <path id="DejaVuSans-1c" d="M 703 97 
L 703 672 
Q 941 559 1184 500 
Q 1428 441 1663 441 
Q 2288 441 2617 861 
Q 2947 1281 2994 2138 
Q 2813 1869 2534 1725 
Q 2256 1581 1919 1581 
Q 1219 1581 811 2004 
Q 403 2428 403 3163 
Q 403 3881 828 4315 
Q 1253 4750 1959 4750 
Q 2769 4750 3195 4129 
Q 3622 3509 3622 2328 
Q 3622 1225 3098 567 
Q 2575 -91 1691 -91 
Q 1453 -91 1209 -44 
Q 966 3 703 97 
z
M 1959 2075 
Q 2384 2075 2632 2365 
Q 2881 2656 2881 3163 
Q 2881 3666 2632 3958 
Q 2384 4250 1959 4250 
Q 1534 4250 1286 3958 
Q 1038 3666 1038 3163 
Q 1038 2656 1286 2365 
Q 1534 2075 1959 2075 
z
" transform="scale(0.015625)"/>
      <path id="DejaVuSans-1a" d="M 525 4666 
L 3525 4666 
L 3525 4397 
L 1831 0 
L 1172 0 
L 2766 4134 
L 525 4134 
L 525 4666 
z
" transform="scale(0.015625)"/>
     </defs>
     <use xlink:href="#DejaVuSans-1c"/>
     <use xlink:href="#DejaVuSans-16" transform="translate(63.625 0)"/>
     <use xlink:href="#DejaVuSans-1a" transform="translate(127.25 0)"/>
     <use xlink:href="#DejaVuSans-1c" transform="translate(190.875 0)"/>
     <use xlink:href="#DejaVuSans-3" transform="translate(254.5 0)"/>
     <use xlink:href="#DejaVuSans-50" transform="translate(286.28125 0)"/>
     <use xlink:href="#DejaVuSans-56" transform="translate(383.6875 0)"/>
     <use xlink:href="#DejaVuSans-3" transform="translate(435.78125 0)"/>
     <use xlink:href="#DejaVuSans-57" transform="translate(467.5625 0)"/>
     <use xlink:href="#DejaVuSans-52" transform="translate(506.765625 0)"/>
     <use xlink:href="#DejaVuSans-3" transform="translate(567.953125 0)"/>
     <use xlink:href="#DejaVuSans-57" transform="translate(599.734375 0)"/>
     <use xlink:href="#DejaVuSans-48" transform="translate(638.9375 0)"/>
     <use xlink:href="#DejaVuSans-55" transform="translate(700.46875 0)"/>
     <use xlink:href="#DejaVuSans-50" transform="translate(739.828125 0)"/>
     <use xlink:href="#DejaVuSans-4c" transform="translate(837.234375 0)"/>
     <use xlink:href="#DejaVuSans-51" transform="translate(865.015625 0)"/>
     <use xlink:href="#DejaVuSans-44" transform="translate(928.390625 0)"/>
     <use xlink:href="#DejaVuSans-4f" transform="translate(989.671875 0)"/>
    </g>
   </g>
   <g id="text_31">
    <!-- 267 ms to terminal -->
    <g style="fill: #333333" transform="translate(136.410579 327.376008) scale(0.076 -0.076)">
     <use xlink:href="#DejaVuSans-15"/>
     <use xlink:href="#DejaVuSans-19" transform="translate(63.625 0)"/>
     <use xlink:href="#DejaVuSans-1a" transform="translate(127.25 0)"/>
     <use xlink:href="#DejaVuSans-3" transform="translate(190.875 0)"/>
     <use xlink:href="#DejaVuSans-50" transform="translate(222.65625 0)"/>
     <use xlink:href="#DejaVuSans-56" transform="translate(320.0625 0)"/>
     <use xlink:href="#DejaVuSans-3" transform="translate(372.15625 0)"/>
     <use xlink:href="#DejaVuSans-57" transform="translate(403.9375 0)"/>
     <use xlink:href="#DejaVuSans-52" transform="translate(443.140625 0)"/>
     <use xlink:href="#DejaVuSans-3" transform="translate(504.328125 0)"/>
     <use xlink:href="#DejaVuSans-57" transform="translate(536.109375 0)"/>
     <use xlink:href="#DejaVuSans-48" transform="translate(575.3125 0)"/>
     <use xlink:href="#DejaVuSans-55" transform="translate(636.84375 0)"/>
     <use xlink:href="#DejaVuSans-50" transform="translate(676.203125 0)"/>
     <use xlink:href="#DejaVuSans-4c" transform="translate(773.609375 0)"/>
     <use xlink:href="#DejaVuSans-51" transform="translate(801.390625 0)"/>
     <use xlink:href="#DejaVuSans-44" transform="translate(864.765625 0)"/>
     <use xlink:href="#DejaVuSans-4f" transform="translate(926.046875 0)"/>
    </g>
   </g>
   <g id="text_32">
    <!-- 264 ms to terminal -->
    <g style="fill: #333333" transform="translate(136.286722 355.055303) scale(0.076 -0.076)">
     <use xlink:href="#DejaVuSans-15"/>
     <use xlink:href="#DejaVuSans-19" transform="translate(63.625 0)"/>
     <use xlink:href="#DejaVuSans-17" transform="translate(127.25 0)"/>
     <use xlink:href="#DejaVuSans-3" transform="translate(190.875 0)"/>
     <use xlink:href="#DejaVuSans-50" transform="translate(222.65625 0)"/>
     <use xlink:href="#DejaVuSans-56" transform="translate(320.0625 0)"/>
     <use xlink:href="#DejaVuSans-3" transform="translate(372.15625 0)"/>
     <use xlink:href="#DejaVuSans-57" transform="translate(403.9375 0)"/>
     <use xlink:href="#DejaVuSans-52" transform="translate(443.140625 0)"/>
     <use xlink:href="#DejaVuSans-3" transform="translate(504.328125 0)"/>
     <use xlink:href="#DejaVuSans-57" transform="translate(536.109375 0)"/>
     <use xlink:href="#DejaVuSans-48" transform="translate(575.3125 0)"/>
     <use xlink:href="#DejaVuSans-55" transform="translate(636.84375 0)"/>
     <use xlink:href="#DejaVuSans-50" transform="translate(676.203125 0)"/>
     <use xlink:href="#DejaVuSans-4c" transform="translate(773.609375 0)"/>
     <use xlink:href="#DejaVuSans-51" transform="translate(801.390625 0)"/>
     <use xlink:href="#DejaVuSans-44" transform="translate(864.765625 0)"/>
     <use xlink:href="#DejaVuSans-4f" transform="translate(926.046875 0)"/>
    </g>
   </g>
   <g id="text_33">
    <!-- 267 ms to terminal -->
    <g style="fill: #333333" transform="translate(136.414256 382.734598) scale(0.076 -0.076)">
     <use xlink:href="#DejaVuSans-15"/>
     <use xlink:href="#DejaVuSans-19" transform="translate(63.625 0)"/>
     <use xlink:href="#DejaVuSans-1a" transform="translate(127.25 0)"/>
     <use xlink:href="#DejaVuSans-3" transform="translate(190.875 0)"/>
     <use xlink:href="#DejaVuSans-50" transform="translate(222.65625 0)"/>
     <use xlink:href="#DejaVuSans-56" transform="translate(320.0625 0)"/>
     <use xlink:href="#DejaVuSans-3" transform="translate(372.15625 0)"/>
     <use xlink:href="#DejaVuSans-57" transform="translate(403.9375 0)"/>
     <use xlink:href="#DejaVuSans-52" transform="translate(443.140625 0)"/>
     <use xlink:href="#DejaVuSans-3" transform="translate(504.328125 0)"/>
     <use xlink:href="#DejaVuSans-57" transform="translate(536.109375 0)"/>
     <use xlink:href="#DejaVuSans-48" transform="translate(575.3125 0)"/>
     <use xlink:href="#DejaVuSans-55" transform="translate(636.84375 0)"/>
     <use xlink:href="#DejaVuSans-50" transform="translate(676.203125 0)"/>
     <use xlink:href="#DejaVuSans-4c" transform="translate(773.609375 0)"/>
     <use xlink:href="#DejaVuSans-51" transform="translate(801.390625 0)"/>
     <use xlink:href="#DejaVuSans-44" transform="translate(864.765625 0)"/>
     <use xlink:href="#DejaVuSans-4f" transform="translate(926.046875 0)"/>
    </g>
   </g>
   <g id="text_34">
    <!-- 320 ms to terminal -->
    <g style="fill: #333333" transform="translate(138.601548 410.413894) scale(0.076 -0.076)">
     <use xlink:href="#DejaVuSans-16"/>
     <use xlink:href="#DejaVuSans-15" transform="translate(63.625 0)"/>
     <use xlink:href="#DejaVuSans-13" transform="translate(127.25 0)"/>
     <use xlink:href="#DejaVuSans-3" transform="translate(190.875 0)"/>
     <use xlink:href="#DejaVuSans-50" transform="translate(222.65625 0)"/>
     <use xlink:href="#DejaVuSans-56" transform="translate(320.0625 0)"/>
     <use xlink:href="#DejaVuSans-3" transform="translate(372.15625 0)"/>
     <use xlink:href="#DejaVuSans-57" transform="translate(403.9375 0)"/>
     <use xlink:href="#DejaVuSans-52" transform="translate(443.140625 0)"/>
     <use xlink:href="#DejaVuSans-3" transform="translate(504.328125 0)"/>
     <use xlink:href="#DejaVuSans-57" transform="translate(536.109375 0)"/>
     <use xlink:href="#DejaVuSans-48" transform="translate(575.3125 0)"/>
     <use xlink:href="#DejaVuSans-55" transform="translate(636.84375 0)"/>
     <use xlink:href="#DejaVuSans-50" transform="translate(676.203125 0)"/>
     <use xlink:href="#DejaVuSans-4c" transform="translate(773.609375 0)"/>
     <use xlink:href="#DejaVuSans-51" transform="translate(801.390625 0)"/>
     <use xlink:href="#DejaVuSans-44" transform="translate(864.765625 0)"/>
     <use xlink:href="#DejaVuSans-4f" transform="translate(926.046875 0)"/>
    </g>
   </g>
   <g id="text_35">
    <!-- Cancellation receipts: confirmed stops and gaps -->
    <g transform="translate(199.43507 15.178359) scale(0.105 -0.105)">
     <defs>
      <path id="DejaVuSans-26" d="M 4122 4306 
L 4122 3641 
Q 3803 3938 3442 4084 
Q 3081 4231 2675 4231 
Q 1875 4231 1450 3742 
Q 1025 3253 1025 2328 
Q 1025 1406 1450 917 
Q 1875 428 2675 428 
Q 3081 428 3442 575 
Q 3803 722 4122 1019 
L 4122 359 
Q 3791 134 3420 21 
Q 3050 -91 2638 -91 
Q 1578 -91 968 557 
Q 359 1206 359 2328 
Q 359 3453 968 4101 
Q 1578 4750 2638 4750 
Q 3056 4750 3426 4639 
Q 3797 4528 4122 4306 
z
" transform="scale(0.015625)"/>
      <path id="DejaVuSans-1d" d="M 750 794 
L 1409 794 
L 1409 0 
L 750 0 
L 750 794 
z
M 750 3309 
L 1409 3309 
L 1409 2516 
L 750 2516 
L 750 3309 
z
" transform="scale(0.015625)"/>
     </defs>
     <use xlink:href="#DejaVuSans-26"/>
     <use xlink:href="#DejaVuSans-44" transform="translate(69.828125 0)"/>
     <use xlink:href="#DejaVuSans-51" transform="translate(131.109375 0)"/>
     <use xlink:href="#DejaVuSans-46" transform="translate(194.484375 0)"/>
     <use xlink:href="#DejaVuSans-48" transform="translate(249.46875 0)"/>
     <use xlink:href="#DejaVuSans-4f" transform="translate(311 0)"/>
     <use xlink:href="#DejaVuSans-4f" transform="translate(338.78125 0)"/>
     <use xlink:href="#DejaVuSans-44" transform="translate(366.5625 0)"/>
     <use xlink:href="#DejaVuSans-57" transform="translate(427.84375 0)"/>
     <use xlink:href="#DejaVuSans-4c" transform="translate(467.046875 0)"/>
     <use xlink:href="#DejaVuSans-52" transform="translate(494.828125 0)"/>
     <use xlink:href="#DejaVuSans-51" transform="translate(556.015625 0)"/>
     <use xlink:href="#DejaVuSans-3" transform="translate(619.390625 0)"/>
     <use xlink:href="#DejaVuSans-55" transform="translate(651.171875 0)"/>
     <use xlink:href="#DejaVuSans-48" transform="translate(690.078125 0)"/>
     <use xlink:href="#DejaVuSans-46" transform="translate(751.609375 0)"/>
     <use xlink:href="#DejaVuSans-48" transform="translate(806.59375 0)"/>
     <use xlink:href="#DejaVuSans-4c" transform="translate(868.125 0)"/>
     <use xlink:href="#DejaVuSans-53" transform="translate(895.90625 0)"/>
     <use xlink:href="#DejaVuSans-57" transform="translate(959.390625 0)"/>
     <use xlink:href="#DejaVuSans-56" transform="translate(998.59375 0)"/>
     <use xlink:href="#DejaVuSans-1d" transform="translate(1050.6875 0)"/>
     <use xlink:href="#DejaVuSans-3" transform="translate(1084.375 0)"/>
     <use xlink:href="#DejaVuSans-46" transform="translate(1116.15625 0)"/>
     <use xlink:href="#DejaVuSans-52" transform="translate(1171.140625 0)"/>
     <use xlink:href="#DejaVuSans-51" transform="translate(1232.328125 0)"/>
     <use xlink:href="#DejaVuSans-13af" transform="translate(1295.703125 0)"/>
     <use xlink:href="#DejaVuSans-55" transform="translate(1358.6875 0)"/>
     <use xlink:href="#DejaVuSans-50" transform="translate(1398.046875 0)"/>
     <use xlink:href="#DejaVuSans-48" transform="translate(1495.453125 0)"/>
     <use xlink:href="#DejaVuSans-47" transform="translate(1556.984375 0)"/>
     <use xlink:href="#DejaVuSans-3" transform="translate(1620.46875 0)"/>
     <use xlink:href="#DejaVuSans-56" transform="translate(1652.25 0)"/>
     <use xlink:href="#DejaVuSans-57" transform="translate(1704.34375 0)"/>
     <use xlink:href="#DejaVuSans-52" transform="translate(1743.546875 0)"/>
     <use xlink:href="#DejaVuSans-53" transform="translate(1804.734375 0)"/>
     <use xlink:href="#DejaVuSans-56" transform="translate(1868.21875 0)"/>
     <use xlink:href="#DejaVuSans-3" transform="translate(1920.3125 0)"/>
     <use xlink:href="#DejaVuSans-44" transform="translate(1952.09375 0)"/>
     <use xlink:href="#DejaVuSans-51" transform="translate(2013.375 0)"/>
     <use xlink:href="#DejaVuSans-47" transform="translate(2076.75 0)"/>
     <use xlink:href="#DejaVuSans-3" transform="translate(2140.234375 0)"/>
     <use xlink:href="#DejaVuSans-4a" transform="translate(2172.015625 0)"/>
     <use xlink:href="#DejaVuSans-44" transform="translate(2235.5 0)"/>
     <use xlink:href="#DejaVuSans-53" transform="translate(2296.78125 0)"/>
     <use xlink:href="#DejaVuSans-56" transform="translate(2360.265625 0)"/>
    </g>
   </g>
  </g>
 </g>
 <defs>
  <clipPath id="pc234ad84d9">
   <rect x="125.203937" y="21.178359" width="401.76" height="414.6912"/>
  </clipPath>
 </defs>
</svg>
